<?xml version="1.0" standalone="no"?>
<!DOCTYPE svg PUBLIC "-//W3C//DTD SVG 1.1//EN" "http://www.w3.org/Graphics/SVG/1.1/DTD/svg11.dtd" >
<svg>
<metadata>
Created by FontForge 20090914 at Sat Mar 11 12:24:34 2017
 By www-data
&#194;&#169; 1992 Unity Progress. Portions &#194;&#169; 2004 The Monotype Corporation. Portions &#194;&#169; 2004 Microsoft Corporation. All Rights Reserved.
</metadata>
<defs>
<font id="CordiaNew" horiz-adv-x="1493" >
  <font-face 
    font-family="Cordia New"
    font-weight="400"
    font-stretch="normal"
    units-per-em="4096"
    panose-1="2 11 3 4 2 2 2 2 2 4"
    ascent="3276"
    descent="-820"
    x-height="1392"
    cap-height="1921"
    bbox="-1851 -2000 3183 3678"
    underline-thickness="102"
    underline-position="-154"
    unicode-range="U+0020-U+25CC"
  />
<missing-glyph horiz-adv-x="2048" 
d="M204 0v2184h1640v-2184h-1640zM408 204h1232v1776h-1232v-1776z" />
    <glyph glyph-name=".notdef" horiz-adv-x="2048" 
d="M204 0v2184h1640v-2184h-1640zM408 204h1232v1776h-1232v-1776z" />
    <glyph glyph-name="space" unicode=" " horiz-adv-x="746" 
 />
    <glyph glyph-name="space" unicode="&#xa0;" horiz-adv-x="746" 
 />
    <glyph glyph-name="exclam" unicode="!" horiz-adv-x="894" 
d="M546 1490l-46 -1014h-107l-46 1014v431h199v-431zM561 0h-227v254h227v-254z" />
    <glyph glyph-name="quotedbl" unicode="&#x22;" horiz-adv-x="746" 
d="M650 1609l-41 -355h-116l-41 355v312h198v-312zM300 1609l-39 -355h-117l-39 355v312h195v-312z" />
    <glyph glyph-name="numbersign" unicode="#" 
d="M1419 562h-377l-118 -544h-118l118 544h-515l-119 -544h-118l118 544h-227v123h248l107 521h-355v120h381l113 548h123l-113 -548h506l119 548h125l-114 -548h216v-120h-241l-105 -521h346v-123zM1052 1206h-511l-110 -521h514z" />
    <glyph glyph-name="dollar" unicode="$" 
d="M788 -31v-239.999h-100v240c-333.333 10.667 -529 194 -587 550l161 23c58.667 -271.333 200.667 -418 426 -440v822c-95.333 26 -172 49.667 -230 71s-111.167 51.666 -159.5 90.999s-85.666 89.166 -111.999 149.499s-39.5 129.5 -39.5 207.5
c0 99.333 21.167 185.333 63.5 258s103.5 130.834 183.5 174.501s178 69.834 294 78.501v115h100v-115c271.333 -24 440.666 -176.667 507.999 -458l-165 -22c-44.667 197.333 -159 309.666 -343 336.999v-748c227.333 -66 377.333 -140.667 450 -224s109 -188.333 109 -315
c0 -158 -49.167 -285.5 -147.5 -382.5s-235.5 -154.5 -411.5 -172.5zM688 1092l0.000976562 722c-256 -20 -384 -142.333 -384 -367c0 -44.667 6.66699 -85 20 -121s34.166 -68.5 62.499 -97.5s67.333 -54.5 117 -76.5s111.167 -42 184.5 -60zM788.001 898.001v-796.998
c268 37.333 402 173.666 402 408.999c0 57.333 -10.833 109.666 -32.5 156.999s-56 87.833 -103 121.5s-135.833 70.167 -266.5 109.5z" />
    <glyph glyph-name="percent" unicode="%" horiz-adv-x="2386" 
d="M1817 1954l-1121 -2025h-136l1123 2025h134zM955 1447c0 -334.667 -131.669 -501.998 -395.002 -501.998c-61.333 0 -116.166 11.167 -164.499 33.5s-89.666 55.666 -123.999 99.999s-60.5 96.5 -78.5 156.5s-27 127.333 -27 202c0 152.667 34.667 277 104 373
s166 144 290 144c126 0 223.333 -45.833 292 -137.5s103 -214.834 103 -369.501zM809.998 1443c0 256.667 -81.667 385 -245 385c-169.333 0 -254 -126.333 -254 -379c0 -260 84.667 -390 254 -390c163.333 0 245 128 245 384zM2211 431.002
c0 -334.667 -131.666 -502 -394.999 -502c-124 0 -220.5 45.167 -289.5 135.5s-103.5 209.833 -103.5 358.5c0 106.667 16.667 199 50 277s78.666 137.167 135.999 177.5s126.333 60.5 207 60.5c66.667 0 125.5 -13 176.5 -39s92.667 -63.167 125 -111.5s56 -102 71 -161
s22.5 -124.167 22.5 -195.5zM2066 427.002c0 258 -82 387 -246 387c-168.667 0 -253 -126.667 -253 -380c0 -259.333 84.333 -389 253 -389c164 0 246 127.333 246 382z" />
    <glyph glyph-name="ampersand" unicode="&#x26;" horiz-adv-x="1790" 
d="M1713 111l-114.001 -142.003c-103.333 80 -205.666 178.667 -306.999 296c-147.333 -197.333 -324.333 -296 -531 -296c-119.333 0 -225 25.333 -317 76s-163.833 117 -215.5 199s-77.5 177 -77.5 285c0 53.333 7.33301 103.5 22 150.5s37 91.833 67 134.5
s72.833 85.834 128.5 129.501s132.834 93.167 231.501 148.5c-70.667 92 -123.5 171.667 -158.5 239s-52.5 130.333 -52.5 189c0 122.667 42.333 225.667 127 309s189 125 313 125c86.667 0 162.167 -18.167 226.5 -54.5s114.666 -85.666 150.999 -147.999
s54.5 -135.166 54.5 -218.499c0 -177.333 -138.333 -335.333 -415 -474l426 -506c22.667 42.667 49 95 79 157l68 180l165 -34c-58 -171.333 -121.667 -316.333 -191 -435l153 -162c35.333 -36 91 -85.333 167 -148zM1086 1541c0 73.333 -24.167 135.168 -72.5 185.501
s-108.833 75.5 -181.5 75.5c-74 0 -137.333 -25.167 -190 -75.5s-79 -111.833 -79 -184.5c0 -22.667 4.5 -48.5 13.5 -77.5s24 -60.833 45 -95.5s64.833 -97.334 131.5 -188.001c222 113.333 333 233.333 333 360zM1174 391.999
c-170.667 176.667 -332.332 370.001 -484.999 580.001c-148 -82 -245.167 -154.333 -291.5 -217s-69.5 -128.334 -69.5 -197.001c0 -116.667 41.833 -219 125.5 -307s181.5 -132 293.5 -132c163.333 0 305.666 91 426.999 273z" />
    <glyph glyph-name="quotesingle" unicode="'" horiz-adv-x="596" 
d="M390 1608l-39 -351h-115l-39 351v313h193v-313z" />
    <glyph glyph-name="parenleft" unicode="(" horiz-adv-x="894" 
d="M788 -430l-129 -0.000976562c-304 417.333 -456 834 -456 1250c0 142.667 14.333 278.834 43 408.501s77.667 266.5 147 410.5s158 294 266 450h119c-268.667 -424.667 -403 -851 -403 -1279c0 -430 137.667 -843.333 413 -1240z" />
    <glyph glyph-name="parenright" unicode=")" horiz-adv-x="894" 
d="M236 -430l-118.001 -0.000976562c268 427.333 402 854 402 1280c0 429.333 -137.667 842.333 -413 1239h129c304 -417.333 456 -833.666 456 -1249c0 -232.667 -38.667 -448.5 -116 -647.5s-190.666 -406.5 -339.999 -622.5z" />
    <glyph glyph-name="asterisk" unicode="*" horiz-adv-x="1044" 
d="M933 1597l-166 -47l-166 -39l112 -134l115 -133l-115 -87l-100 146l-94 150l-181 -296l-119 87l106 133l117 134l-172 39l-168 47l49 137l158 -65l163 -72l-30 357h149l-22 -357l157 72l161 65z" />
    <glyph glyph-name="plus" unicode="+" horiz-adv-x="1772" 
d="M1583 883h-640v-642h-123v642h-642v122h642v641h123v-641h640v-122z" />
    <glyph glyph-name="comma" unicode="," horiz-adv-x="746" 
d="M326 -358l-68.999 96c43.333 32.667 73.666 65.667 90.999 99s26.333 87.666 27 162.999h-105v254h228v-254c0 -155.333 -57.333 -274.666 -172 -357.999z" />
    <glyph glyph-name="hyphen" unicode="-" horiz-adv-x="894" 
d="M799 661h-702v169h702v-169z" />
    <glyph glyph-name="period" unicode="." horiz-adv-x="746" 
d="M491 0h-228v254h228v-254z" />
    <glyph glyph-name="slash" unicode="/" horiz-adv-x="746" 
d="M753 1954l-626 -2002h-126l628 2002h124z" />
    <glyph glyph-name="zero" unicode="0" 
d="M1347 943c0 -650.667 -202.332 -976.002 -606.999 -976.002c-405.333 0 -608 313.667 -608 941c0 180.667 12 335.334 36 464.001s61.667 232.834 113 312.501s115.166 139 191.499 178s165.5 58.5 267.5 58.5c404.667 0 607 -326 607 -978zM1179 942.998
c0 564 -145.331 846.002 -435.998 846.002c-76 0 -142.167 -16.833 -198.5 -50.5s-103 -84.834 -140 -153.501s-63 -155.834 -78 -261.501s-22.5 -235.834 -22.5 -390.501c0 -133.333 6.33301 -248.5 19 -345.5s35.167 -181.667 67.5 -254s78.666 -128.666 138.999 -168.999
s133.166 -60.5 218.499 -60.5c287.333 0 431 279.667 431 839z" />
    <glyph glyph-name="one" unicode="1" 
d="M953 0h-163v1605c-145.333 -137.333 -307.333 -240 -486 -308v144c273.333 150 453 310 539 480h110v-1921z" />
    <glyph glyph-name="two" unicode="2" 
d="M1338 0l-1242 -0.00195312c7.33301 63.333 22 124.666 44 183.999s73.667 134.833 155 226.5s199 197.167 353 316.5c107.333 83.333 190 149.833 248 199.5s108 100.334 150 152.001s72.167 102 90.5 151s27.5 100.833 27.5 155.5c0 80 -17.667 149.667 -53 209
s-84.5 106.333 -147.5 141s-136.167 52 -219.5 52c-242.667 0 -387 -139.667 -433 -419l-172 24c18.667 165.333 82.167 294.833 190.5 388.5s249.166 140.5 422.499 140.5c170 0 310 -49.5 420 -148.5s165 -226.5 165 -382.5c0 -93.333 -20.667 -181.166 -62 -263.499
s-100.5 -158.666 -177.5 -228.999s-200.5 -170.166 -370.5 -299.499c-204 -154.667 -342.667 -302.334 -416 -443.001h1027v-155z" />
    <glyph glyph-name="three" unicode="3" 
d="M131 486l159.999 24c60.667 -272 206.667 -408 438 -408c88.667 0 165.834 19.667 231.501 59s117.667 93 156 161s57.5 147.333 57.5 238c0 121.333 -38.833 218 -116.5 290s-179.5 108 -305.5 108c-42.667 0 -100 -7.33301 -172 -22l18 144
c98.667 0 176 8.83301 232 26.5s103.5 42.5 142.5 74.5s68.167 69.833 87.5 113.5s29 93.5 29 149.5c0 101.333 -34.167 183.833 -102.5 247.5s-155.166 95.5 -260.499 95.5c-205.333 0 -340.666 -125.667 -405.999 -377l-165 29c79.333 321.333 269.333 482 570 482
c162.667 0 293 -43.833 391 -131.5s147 -206.834 147 -357.501c0 -180 -94.333 -313.667 -283 -401c249.333 -63.333 374 -218.666 374 -465.999c0 -179.333 -57.833 -323.833 -173.5 -433.5s-265.834 -164.5 -450.501 -164.5c-328.667 0 -528.334 173 -599.001 519z" />
    <glyph glyph-name="four" unicode="4" 
d="M1361 478h-263v-478h-161v478h-890v147l923 1296h128v-1296h263v-147zM937 625v1029l-731 -1029h731z" />
    <glyph glyph-name="five" unicode="5" 
d="M131 474l165.001 20.001c54.667 -260 202.667 -390 444 -390c77.333 0 148.5 18 213.5 54s120.833 93.5 167.5 172.5s70 174.167 70 285.5c0 138.667 -41.167 252.667 -123.5 342s-188.166 134 -317.499 134c-150.667 0 -298 -70.333 -442 -211l-138 19l184 995h922v-151
h-800l-122 -655c142 98.667 282.667 148 422 148c166 0 305.5 -58.833 418.5 -176.5s169.5 -261.167 169.5 -430.5c0 -89.333 -16 -174.333 -48 -255s-75.833 -151.334 -131.5 -212.001s-124.334 -108.5 -206.001 -143.5s-169.834 -52.5 -264.501 -52.5
c-304 0 -498.333 169 -583 507z" />
    <glyph glyph-name="six" unicode="6" 
d="M1316 1475l-162.999 -17.001c-57.333 218.667 -178 328 -362 328c-54 0 -104.167 -8.66699 -150.5 -26s-88.166 -43 -125.499 -77s-68.833 -72.667 -94.5 -116s-46.5 -86.5 -62.5 -129.5s-30.5 -104 -43.5 -183s-23.167 -185.833 -30.5 -320.5
c138 185.333 309.667 278 515 278c164.667 0 299.334 -55.667 404.001 -167s157 -253.666 157 -426.999c0 -128.667 -26.167 -241.5 -78.5 -338.5s-122.833 -173.333 -211.5 -229s-192.334 -83.5 -311.001 -83.5c-107.333 0 -201.833 20.667 -283.5 62
s-149.834 103 -204.501 185s-93.834 177 -117.501 285s-35.5 239 -35.5 393c0 226 24 412.167 72 558.5s123.833 261.333 227.5 345s230.5 125.5 380.5 125.5c281.333 0 454 -148.667 518 -446zM1181 599.999c0 137.333 -37.668 248.835 -113.001 334.502
s-174.666 128.5 -297.999 128.5c-127.333 0 -233.5 -42.167 -318.5 -126.5s-127.5 -190.5 -127.5 -318.5c0 -138.667 41.333 -259.334 124 -362.001s187.667 -154 315 -154c124 0 224.667 48.167 302 144.5s116 214.166 116 353.499z" />
    <glyph glyph-name="seven" unicode="7" 
d="M1359 1789c-241.333 -277.333 -420.331 -559.998 -536.998 -847.998s-188 -601.667 -214 -941h-177c9.33301 147.333 28.333 290 57 428s66.667 271.667 114 401s106.666 257.666 177.999 384.999s194.666 305.666 369.999 534.999h-1006v146h1215v-106z" />
    <glyph glyph-name="eight" unicode="8" 
d="M473 1034c-182.667 82 -274.002 213 -274.002 393c0 96.667 23.5 181.667 70.5 255s110.833 131.5 191.5 174.5s173.667 64.5 279 64.5c106 0 199.5 -21.667 280.5 -65s144.833 -101.5 191.5 -174.5s70 -157.833 70 -254.5c0 -180 -91.333 -311 -274 -393
c234 -80.667 351 -240.667 351 -480c0 -192.667 -61.833 -338.667 -185.5 -438s-268.167 -149 -433.5 -149c-121.333 0 -226.666 22.5 -315.999 67.5s-162 114.833 -218 209.5s-84 198 -84 310c0 113.333 26.833 210.333 80.5 291s143.834 143.667 270.501 189zM1115 1426
c0 71.333 -16.165 133.833 -48.498 187.5s-76.333 96 -132 127s-120.834 46.5 -195.501 46.5s-139.834 -15.833 -195.501 -47.5s-99.5 -74.167 -131.5 -127.5s-48 -115.333 -48 -186c0 -99.333 36 -179.833 108 -241.5s161 -92.5 267 -92.5s195.167 31 267.5 93
s108.5 142.333 108.5 241zM1188 539c0 86 -18.167 159.832 -54.5 221.499s-87.833 109.5 -154.5 143.5s-146.667 51 -240 51s-173.333 -17 -240 -51s-118.167 -81.833 -154.5 -143.5s-54.5 -135.5 -54.5 -221.5c0 -133.333 41 -239.166 123 -317.499
s190.667 -117.5 326 -117.5c136 0 244.833 39 326.5 117s122.5 184 122.5 318z" />
    <glyph glyph-name="nine" unicode="9" 
d="M166 411l162.999 19.001c57.333 -219.333 178 -329 362 -329c104 0 195.5 34.667 274.5 104s134.333 155.666 166 258.999s54.167 266.333 67.5 489c-138.667 -184.667 -310.667 -277 -516 -277c-164 0 -298.333 55.667 -403 167s-157 253 -157 425
c0 189.333 56.333 345.5 169 468.5s257 184.5 433 184.5c130.667 0 242.5 -31.333 335.5 -94s166.833 -159 221.5 -289s82 -310.667 82 -542c0 -226 -24.167 -412.333 -72.5 -559s-124.166 -261.667 -227.499 -345s-230 -125 -380 -125c-281.333 0 -454 148 -518 444z
M1160 1270c0 69.333 -10.499 134.333 -31.499 195s-52.167 116.5 -93.5 167.5s-88.333 89.333 -141 115s-111 38.5 -175 38.5c-124 0 -224.667 -48.5 -302 -145.5s-116 -214.833 -116 -353.5c0 -137.333 37.667 -248.833 113 -334.5s174.666 -128.5 297.999 -128.5
c128 0 234.667 42.167 320 126.5s128 190.833 128 319.5z" />
    <glyph glyph-name="colon" unicode=":" horiz-adv-x="746" 
d="M491 1136h-228v256h228v-256zM491 0h-228v254h228v-254z" />
    <glyph glyph-name="semicolon" unicode=";" horiz-adv-x="746" 
d="M498 1136h-228v256h228v-256zM326 -358l-68.999 96c43.333 32.667 73.666 65.667 90.999 99s26.333 87.666 27 162.999h-105v254h228v-254c0 -155.333 -57.333 -274.666 -172 -357.999z" />
    <glyph glyph-name="less" unicode="&#x3c;" horiz-adv-x="1772" 
d="M1584 296l-1407 592v108l1407 596v-132l-1246 -518l1246 -515v-131z" />
    <glyph glyph-name="equal" unicode="=" horiz-adv-x="1772" 
d="M1584 1207h-1407v116h1407v-116zM1584 563h-1407v122h1407v-122z" />
    <glyph glyph-name="greater" unicode="&#x3e;" horiz-adv-x="1772" 
d="M1584 891l-1407 -595v131l1246 518l-1246 515v132l1407 -592v-109z" />
    <glyph glyph-name="question" unicode="?" horiz-adv-x="1342" 
d="M734 474l-166.998 -0.00292969v110c2 46 7.16699 88.667 15.5 128s20.166 75.666 35.499 108.999s39.5 69.833 72.5 109.5s74.833 82.5 125.5 128.5c158.667 142.667 238 270.667 238 384c0 100.667 -36 185.834 -108 255.501s-159.333 104.5 -262 104.5
c-196.667 0 -326.667 -130 -390 -390l-179 28c82 342 277 513 585 513c108 0 202 -21.667 282 -65s142.333 -102.666 187 -177.999s67 -164 67 -266c0 -155.333 -90.333 -317.333 -271 -486c-56.667 -53.333 -103.334 -102.166 -140.001 -146.499s-61 -93.666 -73 -147.999
s-18 -117.833 -18 -190.5zM773.002 -0.00292969h-227v253h227v-253z" />
    <glyph glyph-name="at" unicode="@" horiz-adv-x="2146" 
d="M2154 62c-110 -173.333 -251.168 -302.503 -423.501 -387.503s-369.166 -127.5 -590.499 -127.5c-138.667 0 -267.167 17.5 -385.5 52.5s-225.166 86.167 -320.499 153.5s-174.5 147.666 -237.5 240.999s-111.667 197.833 -146 313.5s-51.5 237.834 -51.5 366.501
c0 229.333 49.833 431.833 149.5 607.5s232.334 310.5 398.001 404.5s362.167 141 589.5 141c196.667 0 365.334 -37 506.001 -111s254.167 -185.833 340.5 -335.5s129.5 -318.167 129.5 -505.5c0 -120.667 -15.667 -230.667 -47 -330s-78.166 -187.666 -140.499 -264.999
s-139 -143.333 -230 -198s-177.167 -82 -258.5 -82c-105.333 0 -158 46.333 -158 139c0 24.667 3.33301 59 10 103c-138 -161.333 -287 -242 -447 -242c-66.667 0 -127 13 -181 39s-102.167 65.333 -144.5 118s-74.333 112.334 -96 179.001s-32.5 139.334 -32.5 218.001
c0 80 10.833 159.333 32.5 238s53.667 154.5 96 227.5s91.333 134.167 147 183.5s118.167 87.833 187.5 115.5s137.666 41.5 204.999 41.5c81.333 0 156.166 -19.5 224.499 -58.5s127.166 -102.833 176.499 -191.5l44 217h164l-223 -1052c-10 -47.333 -15 -82.333 -15 -105
c0 -34.667 21 -52 63 -52c27.333 0 56.666 6.16699 87.999 18.5s73.333 36.833 126 73.5s103.334 88.5 152.001 155.5s85.334 143 110.001 228s37 178.833 37 281.5c0 121.333 -20.5 234.833 -61.5 340.5s-98 196.834 -171 273.501s-163.833 134.5 -272.5 173.5
s-231.667 58.5 -369 58.5c-300 0 -545.167 -98.333 -735.5 -295s-285.5 -448.334 -285.5 -755.001c0 -206.667 43.333 -385.667 130 -537s206.667 -269.833 360 -355.5s334.666 -128.5 543.999 -128.5c177.333 0 338.666 31.333 483.999 94s277.333 168.667 396 318h133z
M1394 870.997c0 108.667 -31.5 198.333 -94.5 269s-143.833 106 -242.5 106c-147.333 0 -268.166 -74 -362.499 -222s-141.5 -308 -141.5 -480c0 -119.333 30.5 -219.333 91.5 -300s142.833 -121 245.5 -121c65.333 0 127.833 21.333 187.5 64s115.167 104 166.5 184
s89.166 161.167 113.499 243.5s36.5 167.833 36.5 256.5z" />
    <glyph glyph-name="A" unicode="A" horiz-adv-x="1790" 
d="M1789 0h-205l-250 612h-896l-241 -612h-197l781 1921h190zM1272 763l-398 967l-380 -967h778z" />
    <glyph glyph-name="B" unicode="B" horiz-adv-x="1790" 
d="M231 0v1921h724c120 0 224.5 -18.833 313.5 -56.5s158 -93.167 207 -166.5s73.5 -161 73.5 -263c0 -83.333 -20.5 -160.666 -61.5 -231.999s-112.167 -135.666 -213.5 -192.999c131.333 -42.667 225.333 -104.167 282 -184.5s85 -175.833 85 -286.5
c0 -108 -22 -201 -66 -279s-112.5 -140.833 -205.5 -188.5s-204.5 -71.5 -334.5 -71.5h-804zM417 1759l0.000976562 -683h562c80.667 0 149.834 14.333 207.501 43s102.334 68.667 134.001 120s47.5 113 47.5 185c0 57.333 -9.83301 107.5 -29.5 150.5
s-48.334 78.333 -86.001 106s-86.334 47.667 -146.001 60s-133.834 18.5 -222.501 18.5h-467zM417.001 912.998v-757.999h599c85.333 0 160.333 14 225 42s116.167 70.667 154.5 128s57.5 128.666 57.5 213.999c0 114.667 -39.167 205.667 -117.5 273s-182.5 101 -312.5 101
h-606z" />
    <glyph glyph-name="C" unicode="C" horiz-adv-x="1938" 
d="M1820 604c-127.333 -424.667 -392.997 -637 -796.997 -637c-136 0 -256.5 21.333 -361.5 64s-194.667 106.5 -269 191.5s-133.833 192.833 -178.5 323.5s-67 268 -67 412c0 292 80 531 240 717s374.333 279 643 279c180.667 0 335.5 -45.167 464.5 -135.5
s228.833 -232.5 299.5 -426.5l-174 -48c-106.667 306 -299.334 459 -578.001 459c-216.667 0 -388.334 -79.833 -515.001 -239.5s-190 -362.5 -190 -608.5c0 -276 64 -484.667 192 -626s289.667 -212 485 -212c321.333 0 534.666 177.333 639.999 532z" />
    <glyph glyph-name="D" unicode="D" horiz-adv-x="1938" 
d="M233 0v1921h738c184.667 0 338.5 -43.5 461.5 -130.5s212.167 -203.167 267.5 -348.5s83 -302 83 -470c0 -307.333 -71.167 -546.166 -213.5 -716.499s-341.833 -255.5 -598.5 -255.5h-738zM415 1760l-0.000976562 -1599h452c110.667 0 205.167 9 283.5 27
s153.333 60 225 126s125.834 154.5 162.501 265.5s55 246.167 55 405.5c0 516.667 -242 775 -726 775h-452z" />
    <glyph glyph-name="E" unicode="E" horiz-adv-x="1639" 
d="M1510 0h-1268v1921h1228v-162h-1045v-690h967v-158h-967v-752h1085v-159z" />
    <glyph glyph-name="F" unicode="F" 
d="M1369 1761h-954v-697h813v-157h-813v-907h-182v1921h1136v-160z" />
    <glyph glyph-name="G" unicode="G" horiz-adv-x="2087" 
d="M1917 244c-253.333 -183.333 -519.328 -275 -797.995 -275c-102 0 -196.833 10.833 -284.5 32.5s-168.334 54.167 -242.001 97.5s-141 97.833 -202 163.5s-107.5 130.667 -139.5 195s-56 136.5 -72 216.5s-24 167.667 -24 263c0 212.667 38.667 394.5 116 545.5
s186.666 267.333 327.999 349s311.666 122.5 510.999 122.5c203.333 0 371.166 -44.833 503.499 -134.5s224.5 -227.5 276.5 -413.5l-177 -54c-98.667 301.333 -303.667 452 -615 452c-232.667 0 -416.834 -77 -552.501 -231s-203.5 -360 -203.5 -618
c0 -156.667 28.333 -297 85 -421s142.167 -224.167 256.5 -300.5s253.833 -114.5 418.5 -114.5c233.333 0 445.333 70 636 210v470h-611v158h790v-713z" />
    <glyph glyph-name="H" unicode="H" horiz-adv-x="1938" 
d="M1700 0h-177v933h-1114v-933h-180v1921h180v-829h1114v829h177v-1921z" />
    <glyph glyph-name="I" unicode="I" horiz-adv-x="746" 
d="M468 0h-181v1921h181v-1921z" />
    <glyph glyph-name="J" unicode="J" horiz-adv-x="1342" 
d="M66 529l164.999 19c18.667 -286.667 136.334 -430 353.001 -430c226.667 0 340 143.333 340 430v1373h182v-1373c0 -386 -180.333 -579 -541 -579c-314.667 0 -481 186.667 -499 560z" />
    <glyph glyph-name="K" unicode="K" horiz-adv-x="1790" 
d="M1785 0h-241l-779 1026l-347 -314v-712h-182v1921h182v-1004l1085 1004h246l-865 -786z" />
    <glyph glyph-name="L" unicode="L" 
d="M1382 0h-1149v1921h181v-1764h968v-157z" />
    <glyph glyph-name="M" unicode="M" horiz-adv-x="2235" 
d="M1997 0h-182l30 1724l-657 -1724h-152l-647 1724l29 -1724h-180v1921h255l619 -1663l626 1663h259v-1921z" />
    <glyph glyph-name="N" unicode="N" horiz-adv-x="1938" 
d="M1698 0h-192l-1108 1637l15 -1637h-182v1921h182l1120 -1656l-14 1656h179v-1921z" />
    <glyph glyph-name="O" unicode="O" horiz-adv-x="2087" 
d="M1943 960c0 -300 -79.333 -540.503 -238 -721.503s-377.667 -271.5 -657 -271.5c-184 0 -341.5 40 -472.5 120s-233.833 194.333 -308.5 343s-112 325.334 -112 530.001c0 299.333 79.667 539.833 239 721.5s377.333 272.5 654 272.5c186.667 0 346 -40.667 478 -122
s234.5 -196.166 307.5 -344.499s109.5 -324.166 109.5 -527.499zM1753 959.997c0 252 -62.6689 455.668 -188.002 611.001s-297.666 233 -516.999 233c-220.667 0 -393 -78 -517 -234s-186 -359.333 -186 -610c0 -248.667 63 -451.334 189 -608.001s297.333 -235 514 -235
c143.333 0 266.333 34.167 369 102.5s184.334 166.333 245.001 294s91 276.5 91 446.5z" />
    <glyph glyph-name="P" unicode="P" horiz-adv-x="1639" 
d="M425 812l0.000976562 -811.999h-183v1921h667c195.333 0 347.333 -47.833 456 -143.5s163 -231.167 163 -406.5c0 -78 -13.667 -151.333 -41 -220s-66 -128.834 -116 -180.501s-115.333 -91 -196 -118s-169.334 -40.5 -266.001 -40.5h-484zM425.001 1755v-784h433
c320 0 480 131.333 480 394c0 260 -160 390 -480 390h-433z" />
    <glyph glyph-name="Q" unicode="Q" horiz-adv-x="2087" 
d="M1985 0l-51.001 -126.997c-115.333 40.667 -247.333 115 -396 223c-138.667 -86 -302 -129 -490 -129c-138.667 0 -262.667 22.667 -372 68s-203.666 113.166 -282.999 203.499s-138.833 195.666 -178.5 315.999s-59.5 255.5 -59.5 405.5
c0 299.333 79.667 539.833 239 721.5s377.333 272.5 654 272.5c185.333 0 343.833 -39.833 475.5 -119.5s234.5 -194 308.5 -343s111 -326.5 111 -532.5c0 -322 -94.667 -578 -284 -768c108 -76.667 216.667 -140.334 326 -191.001zM1384 206.003
c-92 70.667 -198.666 125.334 -319.999 164.001l42 134c127.333 -28 262 -97.667 404 -209c162 153.333 243 375 243 665c0 172.667 -30.333 322.667 -91 450s-142.334 224.833 -245.001 292.5s-225.667 101.5 -369 101.5c-218 0 -389.667 -79 -515 -237
s-188 -360.333 -188 -607c0 -248.667 63 -451.334 189 -608.001s297.333 -235 514 -235c115.333 0 227.333 29.667 336 89z" />
    <glyph glyph-name="R" unicode="R" horiz-adv-x="1790" 
d="M1786 0h-232.001l-259 406c-107.333 168 -184 276.333 -230 325s-100.167 86.167 -162.5 112.5s-131.166 39.5 -206.499 39.5h-277v-883h-183v1921h808c122.667 0 227.167 -20.5 313.5 -61.5s152.5 -99.333 198.5 -175s69 -167.5 69 -275.5
c0 -306 -185.667 -477 -557 -513c136.667 -70 254 -180.333 352 -331zM418.999 1760l0.000976562 -720.002h506c339.333 0 509 122.333 509 367c0 52.667 -8.83301 100.334 -26.5 143.001s-46.334 81.334 -86.001 116.001s-91 59 -154 73s-140.833 21 -233.5 21h-515z" />
    <glyph glyph-name="S" unicode="S" horiz-adv-x="1639" 
d="M122 578l181 15.998c14.667 -157.333 67.667 -276.166 159 -356.499s211.333 -120.5 360 -120.5c110 0 203 16.5 279 49.5s134.667 82 176 147s62 133.833 62 206.5c0 193.333 -167.667 320.666 -503 381.999c-227.333 41.333 -390.166 104.333 -488.499 189
s-147.5 201.334 -147.5 350.001c0 158 57.5 283 172.5 375s261.167 138 438.5 138c198.667 0 353.167 -44.5 463.5 -133.5s170.833 -224.5 181.5 -406.5l-178 -8c-21.333 265.333 -172 398 -452 398c-129.333 0 -236.5 -31 -321.5 -93s-127.5 -146.667 -127.5 -254
c0 -183.333 153.333 -305.666 460 -366.999c226.667 -46 396 -110.667 508 -194s168 -204.666 168 -363.999c0 -84.667 -15 -160.834 -45 -228.501s-75.833 -127.167 -137.5 -178.5s-134.167 -90.5 -217.5 -117.5s-176 -40.5 -278 -40.5
c-436.667 0 -674.334 203.667 -713.001 611z" />
    <glyph glyph-name="T" unicode="T" 
d="M1420 1753h-589v-1753h-184v1753h-587v168h1360v-168z" />
    <glyph glyph-name="U" unicode="U" horiz-adv-x="1938" 
d="M229 1921h185v-1230c0 -382.667 184.333 -574 553 -574c365.333 0 548 190.333 548 571v1233h185v-1215c0 -492.667 -243 -739 -729 -739c-494.667 0 -742 246 -742 738v1216z" />
    <glyph glyph-name="V" unicode="V" horiz-adv-x="1639" 
d="M1629 1921l-717 -1921h-189l-703 1921h195l605 -1724l627 1724h182z" />
    <glyph glyph-name="W" unicode="W" horiz-adv-x="2386" 
d="M2349 1921l-516 -1921h-181l-461 1718l-472 -1718h-179l-512 1921h186l416 -1664l447 1664h222l445 -1654l430 1654h175z" />
    <glyph glyph-name="X" unicode="X" horiz-adv-x="1639" 
d="M1634 0h-221l-574 856l-606 -856h-217l723 1002l-620 919h215l505 -771l553 771h188l-638 -899z" />
    <glyph glyph-name="Y" unicode="Y" horiz-adv-x="1639" 
d="M1627 1921l-723 -1092v-829h-182v829l-700 1092h214l587 -921l600 921h204z" />
    <glyph glyph-name="Z" unicode="Z" horiz-adv-x="1639" 
d="M1561 0h-1494v169l1242 1596h-1133v156h1357v-156l-1254 -1608h1282v-157z" />
    <glyph glyph-name="bracketleft" unicode="[" horiz-adv-x="894" 
d="M824 -401h-617v2460h617v-136h-454v-2187h454v-137z" />
    <glyph glyph-name="backslash" unicode="\" horiz-adv-x="746" 
d="M753 -48h-124l-628 2002h125z" />
    <glyph glyph-name="bracketright" unicode="]" horiz-adv-x="894" 
d="M687 -401h-618v137h456v2187h-456v136h618v-2460z" />
    <glyph glyph-name="asciicircum" unicode="^" horiz-adv-x="1772" 
d="M1466 1249l-85 -70l-502 604l-503 -604l-82 70l585 705z" />
    <glyph glyph-name="underscore" unicode="_" horiz-adv-x="1342" 
d="M1358 -335h-1374v133h1374v-133z" />
    <glyph glyph-name="grave" unicode="`" horiz-adv-x="894" 
d="M596 1574h-133l-295 347h260z" />
    <glyph glyph-name="a" unicode="a" 
d="M1360 0h-177.995c-26 65.333 -43 136 -51 212c-150.667 -162 -340.334 -243 -569.001 -243c-83.333 0 -157.833 14.5 -223.5 43.5s-118.167 72.5 -157.5 130.5s-59 128.667 -59 212c0 58.667 9.16699 111.167 27.5 157.5s46.166 87 83.499 122s87.666 65 150.999 90
s177.333 48.833 342 71.5c183.333 25.333 313 52.333 389 81c0 79.333 -2.16699 140.333 -6.5 183s-19.166 82.667 -44.499 120s-64.333 66 -117 86s-117.667 30 -195 30c-240.667 0 -385.334 -103 -434.001 -309l-166 25c51.333 274 251 411 599 411
c109.333 0 201.166 -12.5 275.499 -37.5s129.666 -60.333 165.999 -106s60 -102.167 71 -169.5s16.5 -160 16.5 -278l-5 -392c-1.33301 -104.667 3.5 -185 14.5 -241s34.5 -122.333 70.5 -199zM1115 658l-0.000976562 90.001
c-92.667 -35.333 -239.334 -70.333 -440.001 -105c-106 -18.667 -183.5 -37.834 -232.5 -57.501s-86 -48.167 -111 -85.5s-37.5 -81.333 -37.5 -132c0 -76 28.167 -137.167 84.5 -183.5s128.833 -69.5 217.5 -69.5c52 0 103.333 6.83301 154 20.5s100.334 34 149.001 61
s89.334 59.667 122.001 98s56.5 87.5 71.5 147.5s22.5 132 22.5 216z" />
    <glyph glyph-name="b" unicode="b" horiz-adv-x="1639" 
d="M379 211v-211h-163v1921h163v-756c139.333 172 314 258 524 258c196.667 0 348.667 -67.667 456 -203s161 -306 161 -512c0 -222.667 -55.667 -401.5 -167 -536.5s-266.333 -202.5 -465 -202.5c-204 0 -373.667 80.667 -509 242zM1351 693
c0 173.333 -41.5 315.668 -124.5 427.001s-197.167 167 -342.5 167c-158.667 0 -282.834 -54.667 -372.501 -164s-134.5 -259 -134.5 -449c0 -176.667 44.333 -315.834 133 -417.501s210 -152.5 364 -152.5c73.333 0 139 14 197 42s108.333 70 151 126
s74.834 119.167 96.501 189.5s32.5 147.5 32.5 231.5z" />
    <glyph glyph-name="c" unicode="c" 
d="M1367 451c-52.667 -158 -128.331 -277.834 -226.998 -359.501s-230 -122.5 -394 -122.5c-126 0 -234.167 25.667 -324.5 77s-163.333 133.5 -219 246.5s-83.5 247.833 -83.5 404.5c0 100.667 11.833 191.834 35.5 273.501s51.667 147.667 84 198s70.5 93.333 114.5 129
s96.833 65.5 158.5 89.5s142.167 36 241.5 36c303.333 0 501.333 -141.667 594 -425l-172 -26c-60.667 208.667 -203.334 313 -428.001 313c-72 0 -136.167 -13.167 -192.5 -39.5s-104.333 -65.5 -144 -117.5s-69.5 -112.5 -89.5 -181.5s-30 -146.5 -30 -232.5
c0 -184.667 40.167 -333 120.5 -445s194.166 -168 341.499 -168c212 0 363 125 453 375z" />
    <glyph glyph-name="d" unicode="d" horiz-adv-x="1639" 
d="M1432 0h-162.001v211c-146.667 -161.333 -321 -242 -523 -242c-96 0 -181.667 17 -257 51s-140.666 85 -195.999 153s-96.833 146.667 -124.5 236s-41.5 189 -41.5 299c0 207.333 54 378.333 162 513s261.333 202 460 202c216 0 389.333 -86 520 -258v756h162v-1921z
M1272 700c0 177.333 -45.832 319.501 -137.499 426.501s-215.167 160.5 -370.5 160.5c-144.667 0 -258.334 -55.833 -341.001 -167.5s-124 -253.834 -124 -426.501c0 -168 43 -308.167 129 -420.5s202 -168.5 348 -168.5c157.333 0 279.333 52.333 366 157s130 251 130 439z
" />
    <glyph glyph-name="e" unicode="e" 
d="M1365 675l-1071 0.000976562c2.66699 -180 45.167 -320.5 127.5 -421.5s196.166 -151.5 341.499 -151.5c202.667 0 344.334 112.667 425.001 338l160 -27c-54.667 -158.667 -131.167 -272.334 -229.5 -341.001s-220.166 -103 -365.499 -103
c-196.667 0 -350.667 65 -462 195s-167 307.333 -167 532s56 402 168 532s266.667 195 464 195c402.667 0 605.667 -249.333 609 -748zM1188 810.001c-25.333 321.333 -170.667 482 -436 482c-120.667 0 -222.167 -41.667 -304.5 -125s-131.833 -202.333 -148.5 -357h889z
" />
    <glyph glyph-name="f" unicode="f" horiz-adv-x="746" 
d="M808 1921l-26.998 -132.001c-62.667 9.33301 -108 14 -136 14c-46.667 0 -85.5 -7 -116.5 -21s-55.167 -38.167 -72.5 -72.5s-26 -99.833 -26 -196.5v-121h291v-124h-291v-1268h-163v1268h-222v124h222v145c0 96.667 9.66699 172.834 29 228.501s56.166 101 110.499 136
s121.166 52.5 200.499 52.5c46.667 0 113.667 -11 201 -33z" />
    <glyph glyph-name="g" unicode="g" horiz-adv-x="1639" 
d="M189 -155l159.999 -30.001c34.667 -164 163.334 -246 386.001 -246c356.667 0 535 169.333 535 508v135c-80 -98 -161.167 -163 -243.5 -195s-174.5 -48 -276.5 -48c-94 0 -178.167 16.333 -252.5 49s-139.5 82 -195.5 148s-98.333 143 -127 231s-43 186 -43 294
c0 146.667 27.333 276.834 82 390.501s126.667 199 216 256s196.333 85.5 321 85.5c106.667 0 202.167 -19.333 286.5 -58s161.833 -108 232.5 -208v235h161v-1281c0 -154.667 -23.5 -282.167 -70.5 -382.5s-120.333 -174.333 -220 -222s-226.5 -71.5 -380.5 -71.5
c-362 0 -552.333 136.667 -571 410zM1270 679.999c0 182 -43.002 328.332 -129.002 438.999s-205.667 166 -359 166c-78.667 0 -146.5 -14 -203.5 -42s-106.667 -67.833 -149 -119.5s-74 -113 -95 -184s-31.5 -151.833 -31.5 -242.5
c0 -175.333 42.333 -318.666 127 -429.999s201.334 -167 350.001 -167c88.667 0 168.334 19.333 239.001 58s130.167 101.667 178.5 189s72.5 198.333 72.5 333z" />
    <glyph glyph-name="h" unicode="h" 
d="M1291 0l-165.002 0.000976562v864c0 150 -29 256.833 -87 320.5s-136.667 95.5 -236 95.5c-53.333 0 -103.166 -9 -149.499 -27s-89.166 -44.833 -128.499 -80.5s-70.5 -76.834 -93.5 -123.501s-39 -97.667 -48 -153s-13.5 -153 -13.5 -293v-603h-164v1921h164v-735
c124.667 158 274 237 448 237c315.333 0 473 -171.667 473 -515v-908z" />
    <glyph glyph-name="i" unicode="i" horiz-adv-x="596" 
d="M376 1676h-164v245h164v-245zM376 0h-164v1392h164v-1392z" />
    <glyph glyph-name="j" unicode="j" horiz-adv-x="596" 
d="M376 1680h-164v241h164v-241zM-83 -535l33.001 142.001c38.667 -10 72.667 -15 102 -15c35.333 0 64.666 6.83301 87.999 20.5s41.166 35.167 53.499 64.5s18.5 93.333 18.5 192v1523h164v-1503c0 -80 -2 -143.5 -6 -190.5s-16.667 -91.333 -38 -133
s-52.666 -73.834 -93.999 -96.501s-92.333 -34 -153 -34c-36.667 0 -92.667 10 -168 30z" />
    <glyph glyph-name="k" unicode="k" horiz-adv-x="1342" 
d="M1330 0h-212l-531 761l-208 -187v-574h-164v1921h164v-1175l678 646h230l-579 -521z" />
    <glyph glyph-name="l" unicode="l" horiz-adv-x="596" 
d="M376 0h-164v1921h164v-1921z" />
    <glyph glyph-name="m" unicode="m" horiz-adv-x="2235" 
d="M2022 0l-162.998 -0.000976562v862c0 127.333 -10.333 216.5 -31 267.5s-53 89.333 -97 115s-96.333 38.5 -157 38.5c-85.333 0 -156.833 -23.833 -214.5 -71.5s-98.334 -113 -122.001 -196s-35.5 -193.167 -35.5 -330.5v-685h-163v879
c0 96.667 -8.16699 172.334 -24.5 227.001s-46 97 -89 127s-97.5 45 -163.5 45c-116.667 0 -210 -48.167 -280 -144.5s-105 -226.833 -105 -391.5v-742h-163v1392h163v-201c116 154.667 258 232 426 232c177.333 0 300.666 -77.333 369.999 -232
c124 154.667 269.333 232 436 232c275.333 0 413 -158.667 413 -476v-947z" />
    <glyph glyph-name="n" unicode="n" 
d="M1291 0l-165.002 0.000976562v864c0 150 -29 256.833 -87 320.5s-136.667 95.5 -236 95.5c-53.333 0 -103.166 -9 -149.499 -27s-89.166 -44.833 -128.499 -80.5s-70.5 -76.834 -93.5 -123.501s-39 -97.667 -48 -153s-13.5 -153 -13.5 -293v-603h-164v1392h164v-206
c124.667 158 274 237 448 237c315.333 0 473 -171.667 473 -515v-908z" />
    <glyph glyph-name="o" unicode="o" 
d="M1360 693c0 -229.333 -54.167 -407.334 -162.5 -534.001s-261.5 -190 -459.5 -190c-95.333 0 -180.666 16.667 -255.999 50s-140.833 83 -196.5 149s-97.5 142.333 -125.5 229s-42 183.334 -42 290.001c0 110.667 12.167 209.5 36.5 296.5s61 162.333 110 226
s110.833 115.167 185.5 154.5s171 59 289 59c189.333 0 340.166 -61.5 452.499 -184.5s168.5 -304.833 168.5 -545.5zM1191 692.999c0 124.667 -18.333 231.832 -55 321.499s-87.667 157.667 -153 204s-145 69.5 -239 69.5c-144.667 0 -256.5 -53.167 -335.5 -159.5
s-118.5 -249.166 -118.5 -428.499c0 -177.333 40.167 -321.5 120.5 -432.5s192.166 -166.5 335.499 -166.5c66.667 0 126.334 12.167 179.001 36.5s99.167 61.833 139.5 112.5s71.5 113.5 93.5 188.5s33 159.833 33 254.5z" />
    <glyph glyph-name="p" unicode="p" horiz-adv-x="1639" 
d="M379 211l0.000976562 -742.999h-163v1924h163v-227c143.333 172 317.666 258 522.999 258c92 0 174.5 -14.833 247.5 -44.5s137.167 -75.334 192.5 -137.001s98.833 -138 130.5 -229s47.5 -192.5 47.5 -304.5c0 -222.667 -55.667 -401.5 -167 -536.5
s-266.333 -202.5 -465 -202.5c-204 0 -373.667 80.667 -509 242zM1351 693.001c0 120.667 -20.001 226.001 -60.001 316.001s-94 158.5 -162 205.5s-149.667 70.5 -245 70.5c-78.667 0 -148.667 -13 -210 -39s-114.5 -65.667 -159.5 -119s-79.167 -118 -102.5 -194
s-35 -162.333 -35 -259c0 -176.667 44.333 -315.834 133 -417.501s210 -152.5 364 -152.5c73.333 0 139 14 197 42s108.333 70 151 126s74.834 119.167 96.501 189.5s32.5 147.5 32.5 231.5z" />
    <glyph glyph-name="q" unicode="q" horiz-adv-x="1639" 
d="M1432 -532h-162v743c-146.667 -161.333 -320.667 -242 -522 -242c-94 0 -178.333 16.333 -253 49s-140 82.5 -196 149.5s-98.5 145.833 -127.5 236.5s-43.5 192 -43.5 304c0 207.333 54 378.333 162 513s261.333 202 460 202c216 0 389.333 -86 520 -258v227h162v-1924z
M1272 700c0 177.333 -45.832 319.501 -137.499 426.501s-215.167 160.5 -370.5 160.5c-144.667 0 -258.334 -55.833 -341.001 -167.5s-124 -253.834 -124 -426.501c0 -168 43 -308.167 129 -420.5s202 -168.5 348 -168.5c157.333 0 279.333 52.333 366 157s130 251 130 439z
" />
    <glyph glyph-name="r" unicode="r" horiz-adv-x="894" 
d="M929 1339l-63 -141c-84 35.333 -146.333 53 -187 53c-32.667 0 -62.5 -5.16699 -89.5 -15.5s-52.5 -26.833 -76.5 -49.5s-44.667 -49 -62 -79s-30.333 -63.167 -39 -99.5s-16.667 -90 -24 -161s-11 -135.167 -11 -192.5v-654h-163v1392h144v-282
c68.667 208.667 177 313 325 313c76 0 158 -28 246 -84z" />
    <glyph glyph-name="s" unicode="s" horiz-adv-x="1342" 
d="M100 377l166 26.999c24.667 -106 72.667 -183 144 -231s159.333 -72 264 -72c72 0 136.167 12 192.5 36s99.166 55.5 128.499 94.5s44 85.5 44 139.5c0 49.333 -16.667 91.666 -50 126.999s-77.833 63 -133.5 83s-134.5 40.667 -236.5 62
c-317.333 66.667 -476 196.667 -476 390c0 120.667 46.833 215.834 140.5 285.501s211.167 104.5 352.5 104.5c281.333 0 453.333 -122.667 516 -368l-160 -24c-30 98 -70.5 165.5 -121.5 202.5s-128.167 55.5 -231.5 55.5c-65.333 0 -124 -9.83301 -176 -29.5
s-90.833 -45.834 -116.5 -78.501s-38.5 -71.667 -38.5 -117s11.667 -83.833 35 -115.5s68.5 -60.167 135.5 -85.5s152.5 -50 256.5 -74c197.333 -45.333 326 -100.5 386 -165.5s90 -141.5 90 -229.5c0 -88.667 -21.5 -164.167 -64.5 -226.5s-105.667 -111.333 -188 -147
s-179.166 -53.5 -290.499 -53.5c-71.333 0 -136.333 6.83301 -195 20.5s-112 34.834 -160 63.501s-90 67.334 -126 116.001s-65 118.667 -87 210z" />
    <glyph glyph-name="t" unicode="t" horiz-adv-x="746" 
d="M723 0c-71.333 -14.667 -129.002 -22 -173.002 -22c-63.333 0 -117.666 10.333 -162.999 31s-79.166 52.5 -101.499 95.5s-33.5 119.833 -33.5 230.5v933h-194v124h194v356l165 105v-461h262v-124h-262v-912c0 -64.667 4.16699 -113.167 12.5 -145.5
s24.5 -56.333 48.5 -72s55.667 -23.5 95 -23.5c30 0 73 5.66699 129 17z" />
    <glyph glyph-name="u" unicode="u" 
d="M1276 0l-164.999 0.000976562v206c-122 -158 -271.333 -237 -448 -237c-314.667 0 -472 171.667 -472 515v908h165v-864c0 -151.333 29.333 -258.833 88 -322.5s137 -95.5 235 -95.5c65.333 0 126.166 13.667 182.499 41s106.333 69.166 150 125.499
s71.167 121.833 82.5 196.5s17 179.667 17 315v604h165v-1392z" />
    <glyph glyph-name="v" unicode="v" horiz-adv-x="1342" 
d="M1304 1392l-557 -1392h-152l-557 1392h174l458 -1192l461 1192h173z" />
    <glyph glyph-name="w" unicode="w" horiz-adv-x="1938" 
d="M1916 1392l-465 -1392h-169l-318 1143l-317 -1143h-169l-466 1392h171l374 -1188l333 1188h149l333 -1188l375 1188h169z" />
    <glyph glyph-name="x" unicode="x" horiz-adv-x="1342" 
d="M1318 0h-202l-444 605l-445 -605h-205l555 726l-515 666h204l406 -534l404 534h203l-515 -650z" />
    <glyph glyph-name="y" unicode="y" horiz-adv-x="1342" 
d="M1320 1392l-549.001 -1392l-109 -276c-76 -192.667 -183.667 -289 -323 -289c-34 0 -86 8.66699 -156 26l-18 164c65.333 -15.333 114.333 -23 147 -23c52.667 0 90.834 10.333 114.501 31s47.5 61.334 71.5 122.001l97 245l-548 1392h178l458 -1203l475 1203h162z" />
    <glyph glyph-name="z" unicode="z" horiz-adv-x="1342" 
d="M1280 0h-1224v143l954 1112h-899v137h1126v-110l-966 -1139h1009v-143z" />
    <glyph glyph-name="braceleft" unicode="{" horiz-adv-x="894" 
d="M767 -430c-80 0 -148.166 12.8301 -204.499 38.4971s-100 67.167 -131 124.5s-46.5 154.333 -46.5 291v277c0 115.333 -9.66699 204.833 -29 268.5s-46.833 108.334 -82.5 134.001s-83.167 38.834 -142.5 39.501v173c83.333 0 146.5 34.667 189.5 104
s64.5 179.333 64.5 330v277c0 136.667 14.667 234.834 44 294.501s73 102.5 131 128.5s127 39 207 39v-148c-57.333 -1.33301 -103.5 -11.333 -138.5 -30s-59.833 -48.167 -74.5 -88.5s-22 -145.5 -22 -315.5c0 -274.667 -26 -448.667 -78 -522s-112.333 -125.333 -181 -156
c41.333 -19.333 77.666 -42.666 108.999 -69.999s58 -59.5 80 -96.5s39.167 -80.333 51.5 -130s18.5 -151.167 18.5 -304.5v-117c0 -104.667 6.33301 -187.334 19 -248.001s31.667 -99 57 -115s78.333 -26 159 -30v-148z" />
    <glyph glyph-name="bar" unicode="|" horiz-adv-x="596" 
d="M360 -532h-133v2453h133v-2453z" />
    <glyph glyph-name="braceright" unicode="}" horiz-adv-x="894" 
d="M763 744c-168.667 0 -253.003 -144.331 -253.003 -432.998v-159c0 -104 -2.16699 -185 -6.5 -243s-19 -114.5 -44 -169.5s-61.667 -97 -110 -126s-107.5 -43.5 -177.5 -43.5c-14 0 -29 0.666992 -45 2v148c50 0.666992 93.333 9.16699 130 25.5s63.5 43.833 80.5 82.5
s25.5 147 25.5 325c0 132.667 5.5 239.5 16.5 320.5s27.5 141.167 49.5 180.5s48.833 73.666 80.5 102.999s68.834 54 111.501 74c-53.333 24.667 -98.5 57 -135.5 97s-64.667 84.5 -83 133.5s-29.666 98.667 -33.999 149s-6.5 124.166 -6.5 221.499l1 116
c0 139.333 -5.33301 228.833 -16 268.5s-34.167 69.667 -70.5 90s-86.166 32.166 -149.499 35.499v147c82 0 150.667 -12.667 206 -38s98.833 -65.833 130.5 -121.5s47.5 -153.834 47.5 -294.501l-1 -276c0 -122 11.333 -216.167 34 -282.5s53 -109.166 91 -128.499
s80.667 -29.666 128 -30.999v-173z" />
    <glyph glyph-name="asciitilde" unicode="~" horiz-adv-x="1772" 
d="M1583 926c-106 -70 -182.833 -112.499 -230.5 -127.499s-92.834 -22.5 -135.501 -22.5c-24.667 0 -53.5 3.16699 -86.5 9.5s-65.833 15.666 -98.5 27.999s-87 36.5 -163 72.5c-144 67.333 -249.333 101 -316 101c-106 0 -230.333 -58.667 -373 -176v146
c142 103.333 264.667 155 368 155c54.667 0 101.834 -6.5 141.501 -19.5s105.834 -41.167 198.501 -84.5c149.333 -70.667 258.666 -106 327.999 -106c98.667 0 221 59.667 367 179v-155z" />
    <glyph glyph-name="delete" horiz-adv-x="2048" 
 />
    <glyph glyph-name="exclamdown" unicode="&#xa1;" horiz-adv-x="926" 
d="M570 1164h-214v210h214v-210zM580 -548h-234v404l68 1022h94l72 -1020v-406z" />
    <glyph glyph-name="cent" unicode="&#xa2;" horiz-adv-x="1546" 
d="M1362 438c-28.667 -142 -94.999 -256.833 -198.999 -344.5s-226.333 -131.5 -367 -131.5c-44.667 0 -99.334 9.33301 -164.001 28l-160 -538l-86 26l156 536c-241.333 110.667 -362 332.667 -362 666c0 253.333 59.333 438 178 554s260.667 174 426 174
c28 0 81.333 -4.66699 160 -14l152 520l84 -24l-150 -522c164.667 -64.667 266.667 -183.334 306 -356.001l-172 -26c-22.667 90.667 -80 175.334 -172 254.001l-326 -1124c54.667 -14.667 96.667 -22 126 -22c96.667 0 181.667 32 255 96s121 152.667 143 266z
M910.001 1274l-112 6.00098c-120.667 0 -223.5 -46.833 -308.5 -140.5s-127.5 -242.834 -127.5 -447.501c0 -144 17.667 -255.833 53 -335.5s91 -148.5 167 -206.5z" />
    <glyph glyph-name="sterling" unicode="&#xa3;" horiz-adv-x="1546" 
d="M1426 36c-112.667 -46.667 -208.666 -69.999 -287.999 -69.999c-62 0 -156 19.333 -282 58l-182 54c-48.667 6.66699 -93.334 10 -134.001 10c-139.333 0 -270.666 -36.667 -393.999 -110l-68 170c202.667 128.667 304 310.667 304 546c0 65.333 -10 133.333 -30 204
h-258v132h220c-53.333 176 -80 306.667 -80 392c0 182 59.833 316.5 179.5 403.5s253.834 130.5 402.501 130.5c147.333 0 270.666 -39.5 369.999 -118.5s162.666 -190.167 189.999 -333.5l-174 -26c-18.667 105.333 -64 189 -136 251s-157.333 93 -256 93
c-110 0 -201.5 -35.5 -274.5 -106.5s-109.5 -156.833 -109.5 -257.5s28.667 -243.334 86 -428.001h420v-132h-404c29.333 -67.333 44 -119.333 44 -156c0 -172 -103.333 -364.667 -310 -578c148.667 38.667 248 58 298 58c68 0 149.333 -11.333 244 -34
c157.333 -37.333 265.333 -56 324 -56c70 0 150.667 20.667 242 62z" />
    <glyph glyph-name="currency" unicode="&#xa4;" horiz-adv-x="1546" 
d="M1388 446l-110.001 -112l-184 186c-107.333 -73.333 -216.666 -110 -327.999 -110c-109.333 0 -217.333 36.667 -324 110l-186 -186l-108 112l186 182c-72 107.333 -108 215.333 -108 324c0 107.333 36 215.333 108 324l-186 180l108 112l186 -184
c101.333 72 209.333 108 324 108c114 0 223.333 -36 328 -108l184 184l110 -112l-186 -180c70.667 -106 106 -214 106 -324s-35.333 -218 -106 -324zM1152 952c0 105.333 -37.667 195.668 -113 271.001s-166.333 113 -273 113c-110 0 -201.833 -37.833 -275.5 -113.5
s-110.5 -165.834 -110.5 -270.501c0 -108.667 37.833 -200.5 113.5 -275.5s166.5 -112.5 272.5 -112.5c92 0 179.333 34.333 262 103s124 163.667 124 285z" />
    <glyph glyph-name="yen" unicode="&#xa5;" horiz-adv-x="1546" 
d="M1480 1922l-550 -965.998h488v-132h-560v-262h560v-120h-560v-442h-176v442h-564v120h564v262h-564v132h488l-552 966h194l384 -682c24 -44.667 44.333 -84.334 61 -119.001c19.333 -40.667 43 -94.334 71 -161.001c25.333 59.333 48.5 110 69.5 152l72.5 140l362 670
h212z" />
    <glyph glyph-name="brokenbar" unicode="&#xa6;" horiz-adv-x="722" 
d="M434 952h-144v1004h144v-1004zM434 -586h-144v1006h144v-1006z" />
    <glyph glyph-name="section" unicode="&#xa7;" horiz-adv-x="1546" 
d="M1076 197c144 -106.667 216.002 -230.333 216.002 -371c0 -132.667 -51.333 -234.5 -154 -305.5s-219.334 -106.5 -350.001 -106.5c-318 0 -502.667 142.667 -554 428l180 26c50.667 -209.333 174.667 -314 372 -314c82 0 157.167 23 225.5 69s102.5 113 102.5 201
c0 44 -17.333 89.667 -52 137s-77 89.833 -127 127.5s-165.667 112.167 -347 223.5c-168 102.667 -284 192.167 -348 268.5s-96 162.833 -96 259.5c0 202.667 101.667 336 305 400c-116.667 106.667 -175 214 -175 322c0 117.333 44.667 212.333 134 285
s198.666 109 327.999 109c305.333 0 481.333 -136 528 -408l-188 -18c-38.667 194.667 -144.667 292 -318 292c-74 0 -144.5 -21.833 -211.5 -65.5s-100.5 -104.5 -100.5 -182.5c0 -44 16 -89.5 48 -136.5s69 -86.167 111 -117.5s149 -99.333 321 -204
c132 -80.667 225 -142 279 -184s97.333 -92 130 -150s49 -120 49 -186c0 -124.667 -43 -218.334 -129 -281.001c-26 -25.333 -85.667 -64.666 -179 -117.999zM540.002 1172c-161.333 -85.333 -241.999 -186.669 -241.999 -304.002c0 -77.333 28 -144.666 84 -201.999
s147.333 -123.333 274 -198c115.333 -68 218.666 -133.333 309.999 -196c170.667 82 256 175.333 256 280c0 116.667 -130.667 256.667 -392 420c-142 88.667 -238.667 155.334 -290 200.001z" />
    <glyph glyph-name="dieresis" unicode="&#xa8;" horiz-adv-x="926" 
d="M810 1724h-186v210h186v-210zM304 1724h-188v210h188v-210z" />
    <glyph glyph-name="copyright" unicode="&#xa9;" horiz-adv-x="2048" 
d="M2018 966c0 -171.333 -44.3311 -337.168 -132.998 -497.501s-211.667 -282.5 -369 -366.5s-320 -126 -488 -126s-330.833 42.833 -488.5 128.5s-280.667 207.834 -369 366.501s-132.5 323.667 -132.5 495c0 174 45.5 341 136.5 501s216.167 281.5 375.5 364.5
s318.666 124.5 477.999 124.5c170.667 0 336.167 -44.667 496.5 -134s282.666 -212.333 366.999 -369s126.5 -319 126.5 -487zM1916 965.998c0 247.333 -87.168 457.168 -261.501 629.501s-383.166 258.5 -626.499 258.5c-248 0 -458 -86.333 -630 -259
s-258 -382.334 -258 -629.001c0 -237.333 84.333 -444.666 253 -621.999s380.334 -266 635.001 -266c249.333 0 459.666 85.667 630.999 257s257 381.666 257 630.999zM1484 728c-71.333 -210.667 -222.668 -316 -454.001 -316c-149.333 0 -270.666 48.167 -363.999 144.5
s-140 231.5 -140 405.5c0 172 46.5 305.667 139.5 401s218.5 143 376.5 143c210 0 349.333 -87.333 418 -262l-98 -24c-68 134.667 -176.667 202 -326 202c-115.333 0 -209.5 -40.333 -282.5 -121s-109.5 -195 -109.5 -343c0 -147.333 34.833 -259.833 104.5 -337.5
s160.167 -116.5 271.5 -116.5c182.667 0 302.667 84.667 360 254z" />
    <glyph glyph-name="ordfeminine" unicode="&#xaa;" horiz-adv-x="1028" 
d="M916 1038l-120.002 0.000976562c-16 36.667 -24 88.667 -24 156c-137.333 -121.333 -262.666 -182 -375.999 -182c-79.333 0 -148.833 22 -208.5 66s-89.5 110 -89.5 198c0 143.333 100.667 228.666 302 255.999l200 30c44.667 6.66699 97.334 18.667 158.001 36
c0 97.333 -16 166 -48 206s-98 60 -198 60c-138.667 0 -222.667 -54 -252 -162l-120 30c42.667 149.333 167.334 224 374.001 224c125.333 0 218.666 -21 279.999 -63s92 -119 92 -231v-326l-2 -84c-2 -82.667 8.66699 -154 32 -214zM759.998 1510
c-84 -22.667 -177.665 -41.501 -280.998 -56.501s-170.333 -37.667 -201 -68s-46 -66.166 -46 -107.499c0 -47.333 18.667 -87.5 56 -120.5s88.666 -49.5 153.999 -49.5c74.667 0 137.667 19.167 189 57.5s85.666 78.333 102.999 120s26 116.5 26 224.5z" />
    <glyph glyph-name="guillemotleft" unicode="&#xab;" horiz-adv-x="1546" 
d="M1286 98h-130l-400 584l400 586h130l-338 -586zM758 1268l-334 -584l330 -586h-122l-410 584l410 586h126z" />
    <glyph glyph-name="logicalnot" unicode="&#xac;" horiz-adv-x="1624" 
d="M1434 576h-162v594h-1084v160h1246v-754z" />
    <glyph glyph-name="minus" unicode="&#xad;" horiz-adv-x="926" 
d="M804 598h-682v178h682v-178z" />
    <glyph glyph-name="registered" unicode="&#xae;" horiz-adv-x="2048" 
d="M2018 966c0 -171.333 -44.3311 -337.168 -132.998 -497.501s-211.667 -282.5 -369 -366.5s-320 -126 -488 -126s-330.833 42.833 -488.5 128.5s-280.667 207.834 -369 366.501s-132.5 323.667 -132.5 495c0 174 45.5 341 136.5 501s216.167 281.5 375.5 364.5
s318.666 124.5 477.999 124.5c170.667 0 336.167 -44.667 496.5 -134s282.666 -212.333 366.999 -369s126.5 -319 126.5 -487zM1916 965.998c0 247.333 -87.168 457.168 -261.501 629.501s-383.166 258.5 -626.499 258.5c-248 0 -458 -86.333 -630 -259
s-258 -382.334 -258 -629.001c0 -237.333 84.333 -444.666 253 -621.999s380.334 -266 635.001 -266c249.333 0 459.666 85.667 630.999 257s257 381.666 257 630.999zM1444 432h-135.998l-88 158c-60 108 -114 187 -162 237s-113.333 75 -196 75h-138v-470h-110v1036h344
c193.333 0 314.666 -28.833 363.999 -86.5s74 -117.5 74 -179.5c0 -72 -27.833 -136 -83.5 -192s-139.167 -85.667 -250.5 -89l48 -37c53.333 -32.667 130.666 -128 231.999 -286zM724.003 1386v-400.001h250c200 0 300 67.333 300 202
c0 50.667 -19.167 96.334 -57.5 137.001s-123.833 61 -256.5 61h-236z" />
    <glyph glyph-name="macron" unicode="&#xaf;" horiz-adv-x="1536" 
d="M1544 2126h-1552v106h1552v-106z" />
    <glyph glyph-name="degree" unicode="&#xb0;" horiz-adv-x="1112" 
d="M894 1614c0 -92.667 -34.167 -173.169 -102.5 -241.502s-148.833 -102.5 -241.5 -102.5s-172.834 33.833 -240.501 101.5s-101.5 148.5 -101.5 242.5c0 92.667 33.333 172.834 100 240.501s147.334 101.5 242.001 101.5c92.667 0 173.167 -33.667 241.5 -101
s102.5 -147.666 102.5 -240.999zM814 1614c0 70 -25.5 131.501 -76.5 184.501s-112.833 79.5 -185.5 79.5c-73.333 0 -135.666 -25.667 -186.999 -77s-77 -113 -77 -185c0 -37.333 6.16699 -71.5 18.5 -102.5s31.5 -59.333 57.5 -85s54.5 -45.167 85.5 -58.5
s64.5 -20 100.5 -20c73.333 0 135.666 26.167 186.999 78.5s77 114.166 77 185.499z" />
    <glyph glyph-name="plusminus" unicode="&#xb1;" horiz-adv-x="1526" 
d="M1386 900h-542v-548h-162v548h-542v158h542v542h162v-542h542v-158zM1386 0h-1246v160h1246v-160z" />
    <glyph glyph-name="twosuperior" unicode="&#xb2;" horiz-adv-x="926" 
d="M846 994h-771.999c24 95.333 132.667 212.666 326 351.999c121.333 88 200.666 151.333 237.999 190s56 83.334 56 134.001c0 54.667 -19 99 -57 133s-92.333 51 -163 51c-117.333 0 -194 -50.667 -230 -152l-138 16c49.333 152 173.333 228 372 228
c130 0 222.833 -23.833 278.5 -71.5s83.5 -104.5 83.5 -170.5c0 -63.333 -20.5 -122.833 -61.5 -178.5s-135.167 -136.167 -282.5 -241.5c-76.667 -56 -150 -120 -220 -192h570v-98z" />
    <glyph glyph-name="threesuperior" unicode="&#xb3;" horiz-adv-x="926" 
d="M86 1198l134 11.999c38 -98.667 115.333 -148 232 -148c68.667 0 127.167 19.833 175.5 59.5s72.5 91.167 72.5 154.5c0 73.333 -23.667 121.833 -71 145.5s-117.666 37.834 -210.999 42.501l14 74c56 0 106.333 14.833 151 44.5s67 71.5 67 125.5
c0 104 -65.333 156 -196 156c-102.667 0 -173.334 -44.667 -212.001 -134l-126 20c59.333 130.667 172.666 196 339.999 196c226.667 0 340 -73.333 340 -220c0 -106.667 -67.333 -181 -202 -223c165.333 -38 248 -122.333 248 -253c0 -90 -37.167 -159.167 -111.5 -207.5
s-163.166 -72.5 -266.499 -72.5c-205.333 0 -331.333 76 -378 228z" />
    <glyph glyph-name="acute" unicode="&#xb4;" horiz-adv-x="926" 
d="M732 1932l-244 -312h-132l148 312h228z" />
    <glyph glyph-name="mu" unicode="&#xb5;" horiz-adv-x="1602" 
d="M1348 0l-150.003 -0.000976562v252c-88 -143.333 -163.167 -226.833 -225.5 -250.5s-119.166 -35.5 -170.499 -35.5s-103.5 9 -156.5 27s-126.833 90.333 -221.5 217v-762h-172v1926h172v-578c0 -244.667 15.333 -400.167 46 -466.5s74.334 -117.833 131.001 -154.5
s120.334 -55 191.001 -55c77.333 0 146.5 20.5 207.5 61.5s105.667 95.333 134 163s42.5 216.834 42.5 447.501v582h172v-1374z" />
    <glyph glyph-name="paragraph" unicode="&#xb6;" horiz-adv-x="1494" 
d="M1468 1756h-194v-2308h-164v2308h-370v-2308h-156v1416c-164.667 0 -297.167 47.333 -397.5 142s-150.5 220.667 -150.5 378c0 144 45.333 269.667 136 377s248 161 472 161h824v-166z" />
    <glyph glyph-name="periodcentered" unicode="&#xb7;" horiz-adv-x="772" 
d="M496 840h-210v210h210v-210z" />
    <glyph glyph-name="periodcentered" unicode="&#x2219;" horiz-adv-x="772" 
d="M496 840h-210v210h210v-210z" />
    <glyph glyph-name="cedilla" unicode="&#xb8;" horiz-adv-x="926" 
d="M182 -560l10.001 93.999l94 -4c169.333 0 254 45.333 254 136c0 20.667 -7.33301 42.667 -22 66c-36 37.333 -96 56 -180 56l52 176h110l-42 -144c76 0 135.333 -16.667 178 -50s64 -72.666 64 -117.999c0 -48.667 -26.833 -98.167 -80.5 -148.5
s-146.834 -75.5 -279.501 -75.5c-57.333 0 -110 4 -158 12z" />
    <glyph glyph-name="onesuperior" unicode="&#xb9;" horiz-adv-x="926" 
d="M612 994h-128.001v790c-115.333 -92 -216.666 -152 -303.999 -180v98c126.667 52 238.667 133.333 336 244h96v-952z" />
    <glyph glyph-name="ordmasculine" unicode="&#xba;" horiz-adv-x="1016" 
d="M918 1480c0 -148 -38.833 -264.333 -116.5 -349s-175.5 -127 -293.5 -127c-106 0 -201.167 36.833 -285.5 110.5s-126.5 193.5 -126.5 359.5c0 172 42 295.333 126 370s178.667 112 284 112c121.333 0 220.333 -41.833 297 -125.5s115 -200.5 115 -350.5zM784 1486
c0 130.667 -28.5 223 -85.5 277s-121.167 81 -192.5 81c-185.333 0 -278 -121.333 -278 -364c0 -122 26.167 -213.167 78.5 -273.5s118.833 -90.5 199.5 -90.5c185.333 0 278 123.333 278 370z" />
    <glyph glyph-name="guillemotright" unicode="&#xbb;" horiz-adv-x="1546" 
d="M1312 682l-408 -584h-124l334 586l-336 584h126zM780 682l-402 -584h-128l340 584l-340 586h128z" />
    <glyph glyph-name="onequarter" unicode="&#xbc;" horiz-adv-x="2318" 
d="M1984 1956l-1446 -2034h-130l1446 2034h130zM612 994h-128.001v790c-115.333 -92 -216.666 -152 -303.999 -180v98c126.667 52 238.667 133.333 336 244h96v-952zM2244 166h-142v-208h-128v208h-518v122l530 622h116v-664h142v-80zM1974 246v480l-420 -480h420z" />
    <glyph glyph-name="onehalf" unicode="&#xbd;" horiz-adv-x="2318" 
d="M1952 1956l-1446 -2034h-132l1446 2034h132zM612 994h-128.001v790c-115.333 -92 -216.666 -152 -303.999 -180v98c126.667 52 238.667 133.333 336 244h96v-952zM2236 -42l-772 -0.000976562c32.667 102 140.667 219.333 324 352c125.333 90 206 154 242 192
s54 82 54 132c0 121.333 -73.333 182 -220 182c-70 0 -120.667 -12.167 -152 -36.5s-57.333 -62.166 -78 -113.499l-136 12c46.667 154.667 170 232 370 232c130 0 222.833 -23.833 278.5 -71.5s83.5 -104.5 83.5 -170.5c0 -70 -24.167 -134 -72.5 -192
s-138.833 -134.667 -271.5 -230c-80.667 -59.333 -156 -123.333 -226 -192h576v-96z" />
    <glyph glyph-name="threequarters" unicode="&#xbe;" horiz-adv-x="2318" 
d="M1984 1956l-1446 -2034h-130l1444 2034h132zM86 1198l134 11.999c38 -98.667 115.333 -148 232 -148c68.667 0 127.167 19.833 175.5 59.5s72.5 91.167 72.5 154.5c0 73.333 -23.667 121.833 -71 145.5s-117.666 37.834 -210.999 42.501l14 74
c56 0 106.333 14.833 151 44.5s67 71.5 67 125.5c0 104 -65.333 156 -196 156c-102.667 0 -173.334 -44.667 -212.001 -134l-126 20c59.333 130.667 172.666 196 339.999 196c226.667 0 340 -73.333 340 -220c0 -106.667 -67.333 -181 -202 -223
c165.333 -38 248 -122.333 248 -253c0 -90 -37.167 -159.167 -111.5 -207.5s-163.166 -72.5 -266.499 -72.5c-205.333 0 -331.333 76 -378 228zM2244 165.999h-142v-208h-128v208h-518v122l528 622h118v-664h142v-80zM1974 245.999v480l-420 -480h420z" />
    <glyph glyph-name="questiondown" unicode="&#xbf;" horiz-adv-x="1698" 
d="M960 1164h-210v210h210v-210zM1460 -72c-60 -340 -262.001 -510 -606.001 -510c-191.333 0 -340.166 50.5 -446.499 151.5s-159.5 219.833 -159.5 356.5c0 82 18.833 157 56.5 225s114.834 153.667 231.501 257c97.333 85.333 161.666 155.833 192.999 211.5
s47 143.834 47 264.501h168c0 -18.667 0.666992 -31.334 2 -38.001c0 -122 -19.667 -217.667 -59 -287s-120.333 -158.333 -243 -267c-88 -78 -145.333 -140.667 -172 -188s-40 -101.333 -40 -162c0 -108 41.167 -200.333 123.5 -277s180.5 -115 294.5 -115
c104.667 0 195.167 32.833 271.5 98.5s127.833 165.5 154.5 299.5z" />
    <glyph glyph-name="Agrave" unicode="&#xc0;" horiz-adv-x="1790" 
d="M1789 0h-205l-250 612h-896l-241 -612h-197l781 1921h190zM1272 763l-398 967l-380 -967h778zM966 2054h-133l-295 347h260z" />
    <glyph glyph-name="Aacute" unicode="&#xc1;" horiz-adv-x="1790" 
d="M1789 0h-205l-250 612h-896l-241 -612h-197l781 1921h190zM1272 763l-398 967l-380 -967h778zM1152 2366l-244 -312h-132l148 312h228z" />
    <glyph glyph-name="Acircumflex" unicode="&#xc2;" horiz-adv-x="1790" 
d="M1789 0h-205l-250 612h-896l-241 -612h-197l781 1921h190zM1272 763l-398 967l-380 -967h778zM1222 2054h-186l-171 224l-171 -224h-190l240 312h228z" />
    <glyph glyph-name="Atilde" unicode="&#xc3;" horiz-adv-x="1790" 
d="M1789 0h-205l-250 612h-896l-241 -612h-197l781 1921h190zM1272 763l-398 967l-380 -967h778zM1282 2300c0 -70 -22.332 -127.833 -66.999 -173.5s-99 -68.5 -163 -68.5c-48 0 -118 24 -210 72c-62.667 36 -112 54 -148 54c-78 0 -123.333 -43.333 -136 -130h-114
c6 76 31.833 135.333 77.5 178s100.5 64 164.5 64c49.333 0 120.666 -23.333 213.999 -70c56.667 -29.333 104 -44 142 -44c70 0 112.667 39.333 128 118h112z" />
    <glyph glyph-name="Adieresis" unicode="&#xc4;" horiz-adv-x="1790" 
d="M1789 0h-205l-250 612h-896l-241 -612h-197l781 1921h190zM1272 763l-398 967l-380 -967h778zM1210 2124h-186v210h186v-210zM704 2124h-188v210h188v-210z" />
    <glyph glyph-name="Aring" unicode="&#xc5;" horiz-adv-x="1790" 
d="M1789 0h-205l-250 612h-896l-241 -612h-197l781 1921h190zM1272 763l-398 967l-380 -967h778zM664 2232c0 66 22.5 117.5 67.5 154.5s92.833 55.5 143.5 55.5c53.333 0 101.833 -17.333 145.5 -52s65.5 -87.334 65.5 -158c0 -66.667 -22.5 -118.5 -67.5 -155.5
s-92.833 -55.5 -143.5 -55.5s-98.5 18.5 -143.5 55.5s-67.5 88.833 -67.5 155.5zM734 2229c0 -34.667 12.501 -67.5 37.501 -98.5s59.5 -46.5 103.5 -46.5c39.333 0 72.666 14.333 99.999 43s41 62.667 41 102c0 36 -12.5 69.833 -37.5 101.5s-59.5 47.5 -103.5 47.5
s-78.5 -15.833 -103.5 -47.5s-37.5 -65.5 -37.5 -101.5z" />
    <glyph glyph-name="AE" unicode="&#xc6;" horiz-adv-x="2780" 
d="M2594 0h-1234v574h-824l-272 -574h-208l924 1922h1578v-166h-1002v-680h930v-166h-930v-744h1038v-166zM1360 740v1016h-252l-492 -1016h744z" />
    <glyph glyph-name="Ccedilla" unicode="&#xc7;" horiz-adv-x="1938" 
d="M1820 604c-127.333 -424.667 -392.997 -637 -796.997 -637c-136 0 -256.5 21.333 -361.5 64s-194.667 106.5 -269 191.5s-133.833 192.833 -178.5 323.5s-67 268 -67 412c0 292 80 531 240 717s374.333 279 643 279c180.667 0 335.5 -45.167 464.5 -135.5
s228.833 -232.5 299.5 -426.5l-174 -48c-106.667 306 -299.334 459 -578.001 459c-216.667 0 -388.334 -79.833 -515.001 -239.5s-190 -362.5 -190 -608.5c0 -276 64 -484.667 192 -626s289.667 -212 485 -212c321.333 0 534.666 177.333 639.999 532zM729.003 -524
l10.001 93.999l94 -4c169.333 0 254 45.333 254 136c0 20.667 -7.33301 42.667 -22 66c-36 37.333 -96 56 -180 56l52 176h110l-42 -144c76 0 135.333 -16.667 178 -50s64 -72.666 64 -117.999c0 -48.667 -26.833 -98.167 -80.5 -148.5s-146.834 -75.5 -279.501 -75.5
c-57.333 0 -110 4 -158 12z" />
    <glyph glyph-name="Egrave" unicode="&#xc8;" horiz-adv-x="1639" 
d="M1510 0h-1268v1921h1228v-162h-1045v-690h967v-158h-967v-752h1085v-159zM986 2054h-133l-295 347h260z" />
    <glyph glyph-name="Eacute" unicode="&#xc9;" horiz-adv-x="1639" 
d="M1510 0h-1268v1921h1228v-162h-1045v-690h967v-158h-967v-752h1085v-159zM1132 2412l-244 -312h-132l148 312h228z" />
    <glyph glyph-name="Ecircumflex" unicode="&#xca;" horiz-adv-x="1639" 
d="M1510 0h-1268v1921h1228v-162h-1045v-690h967v-158h-967v-752h1085v-159zM1212 2100h-186l-171 224l-171 -224h-190l240 312h228z" />
    <glyph glyph-name="Edieresis" unicode="&#xcb;" horiz-adv-x="1639" 
d="M1510 0h-1268v1921h1228v-162h-1045v-690h967v-158h-967v-752h1085v-159zM1210 2084h-186v210h186v-210zM704 2084h-188v210h188v-210z" />
    <glyph glyph-name="Igrave" unicode="&#xcc;" horiz-adv-x="746" 
d="M468 0h-181v1921h181v-1921zM496 2054h-133l-295 347h260z" />
    <glyph glyph-name="Iacute" unicode="&#xcd;" horiz-adv-x="746" 
d="M468 0h-181v1921h181v-1921zM652 2412l-244 -312h-132l148 312h228z" />
    <glyph glyph-name="Icircumflex" unicode="&#xce;" horiz-adv-x="746" 
d="M468 0h-181v1921h181v-1921zM742 2100h-186l-171 224l-171 -224h-190l240 312h228z" />
    <glyph glyph-name="Idieresis" unicode="&#xcf;" horiz-adv-x="746" 
d="M468 0h-181v1921h181v-1921zM735 2124h-186v210h186v-210zM229 2124h-188v210h188v-210z" />
    <glyph glyph-name="Eth" unicode="&#xd0;" horiz-adv-x="2008" 
d="M248 0l0.000976562 906.002h-218v110h218v906h654c208.667 0 369.667 -24.833 483 -74.5s215.166 -145.834 305.499 -288.501s135.5 -338.334 135.5 -587.001c0 -648 -298 -972 -894 -972h-684zM444.001 1756l-0.00195312 -740h548v-110h-548v-740h458
c286.667 0 478.334 75.5 575.001 226.5s145 344.833 145 581.5c0 242.667 -47.667 433.667 -143 573s-289.666 209 -582.999 209h-452z" />
    <glyph glyph-name="Ntilde" unicode="&#xd1;" horiz-adv-x="1938" 
d="M1698 0h-192l-1108 1637l15 -1637h-182v1921h182l1120 -1656l-14 1656h179v-1921zM1402 2300c0 -70 -22.332 -127.833 -66.999 -173.5s-99 -68.5 -163 -68.5c-48 0 -118 24 -210 72c-62.667 36 -112 54 -148 54c-78 0 -123.333 -43.333 -136 -130h-114
c6 76 31.833 135.333 77.5 178s100.5 64 164.5 64c49.333 0 120.666 -23.333 213.999 -70c56.667 -29.333 104 -44 142 -44c70 0 112.667 39.333 128 118h112z" />
    <glyph glyph-name="Ograve" unicode="&#xd2;" horiz-adv-x="2087" 
d="M1943 960c0 -300 -79.333 -540.503 -238 -721.503s-377.667 -271.5 -657 -271.5c-184 0 -341.5 40 -472.5 120s-233.833 194.333 -308.5 343s-112 325.334 -112 530.001c0 299.333 79.667 539.833 239 721.5s377.333 272.5 654 272.5c186.667 0 346 -40.667 478 -122
s234.5 -196.166 307.5 -344.499s109.5 -324.166 109.5 -527.499zM1753 959.997c0 252 -62.6689 455.668 -188.002 611.001s-297.666 233 -516.999 233c-220.667 0 -393 -78 -517 -234s-186 -359.333 -186 -610c0 -248.667 63 -451.334 189 -608.001s297.333 -235 514 -235
c143.333 0 266.333 34.167 369 102.5s184.334 166.333 245.001 294s91 276.5 91 446.5zM1116 2074h-133l-295 347h260z" />
    <glyph glyph-name="Oacute" unicode="&#xd3;" horiz-adv-x="2087" 
d="M1943 960c0 -300 -79.333 -540.503 -238 -721.503s-377.667 -271.5 -657 -271.5c-184 0 -341.5 40 -472.5 120s-233.833 194.333 -308.5 343s-112 325.334 -112 530.001c0 299.333 79.667 539.833 239 721.5s377.333 272.5 654 272.5c186.667 0 346 -40.667 478 -122
s234.5 -196.166 307.5 -344.499s109.5 -324.166 109.5 -527.499zM1753 959.997c0 252 -62.6689 455.668 -188.002 611.001s-297.666 233 -516.999 233c-220.667 0 -393 -78 -517 -234s-186 -359.333 -186 -610c0 -248.667 63 -451.334 189 -608.001s297.333 -235 514 -235
c143.333 0 266.333 34.167 369 102.5s184.334 166.333 245.001 294s91 276.5 91 446.5zM1322 2432l-244 -312h-132l148 312h228z" />
    <glyph glyph-name="Ocircumflex" unicode="&#xd4;" horiz-adv-x="2087" 
d="M1943 960c0 -300 -79.333 -540.503 -238 -721.503s-377.667 -271.5 -657 -271.5c-184 0 -341.5 40 -472.5 120s-233.833 194.333 -308.5 343s-112 325.334 -112 530.001c0 299.333 79.667 539.833 239 721.5s377.333 272.5 654 272.5c186.667 0 346 -40.667 478 -122
s234.5 -196.166 307.5 -344.499s109.5 -324.166 109.5 -527.499zM1753 959.997c0 252 -62.6689 455.668 -188.002 611.001s-297.666 233 -516.999 233c-220.667 0 -393 -78 -517 -234s-186 -359.333 -186 -610c0 -248.667 63 -451.334 189 -608.001s297.333 -235 514 -235
c143.333 0 266.333 34.167 369 102.5s184.334 166.333 245.001 294s91 276.5 91 446.5zM1412 2120h-186l-171 224l-171 -224h-190l240 312h228z" />
    <glyph glyph-name="Otilde" unicode="&#xd5;" horiz-adv-x="2087" 
d="M1943 960c0 -300 -79.333 -540.503 -238 -721.503s-377.667 -271.5 -657 -271.5c-184 0 -341.5 40 -472.5 120s-233.833 194.333 -308.5 343s-112 325.334 -112 530.001c0 299.333 79.667 539.833 239 721.5s377.333 272.5 654 272.5c186.667 0 346 -40.667 478 -122
s234.5 -196.166 307.5 -344.499s109.5 -324.166 109.5 -527.499zM1753 959.997c0 252 -62.6689 455.668 -188.002 611.001s-297.666 233 -516.999 233c-220.667 0 -393 -78 -517 -234s-186 -359.333 -186 -610c0 -248.667 63 -451.334 189 -608.001s297.333 -235 514 -235
c143.333 0 266.333 34.167 369 102.5s184.334 166.333 245.001 294s91 276.5 91 446.5zM1472 2340c0 -70 -22.332 -127.833 -66.999 -173.5s-99 -68.5 -163 -68.5c-48 0 -118 24 -210 72c-62.667 36 -112 54 -148 54c-78 0 -123.333 -43.333 -136 -130h-114
c6 76 31.833 135.333 77.5 178s100.5 64 164.5 64c49.333 0 120.666 -23.333 213.999 -70c56.667 -29.333 104 -44 142 -44c70 0 112.667 39.333 128 118h112z" />
    <glyph glyph-name="Odieresis" unicode="&#xd6;" horiz-adv-x="2087" 
d="M1943 960c0 -300 -79.333 -540.503 -238 -721.503s-377.667 -271.5 -657 -271.5c-184 0 -341.5 40 -472.5 120s-233.833 194.333 -308.5 343s-112 325.334 -112 530.001c0 299.333 79.667 539.833 239 721.5s377.333 272.5 654 272.5c186.667 0 346 -40.667 478 -122
s234.5 -196.166 307.5 -344.499s109.5 -324.166 109.5 -527.499zM1753 959.997c0 252 -62.6689 455.668 -188.002 611.001s-297.666 233 -516.999 233c-220.667 0 -393 -78 -517 -234s-186 -359.333 -186 -610c0 -248.667 63 -451.334 189 -608.001s297.333 -235 514 -235
c143.333 0 266.333 34.167 369 102.5s184.334 166.333 245.001 294s91 276.5 91 446.5zM1410 2164h-186v210h186v-210zM903.998 2164h-188v210h188v-210z" />
    <glyph glyph-name="multiply" unicode="&#xd7;" horiz-adv-x="1624" 
d="M1354 524l-118 -116l-424 426l-430 -428l-114 116l428 426l-428 426l118 118l428 -426l422 424l114 -116l-422 -424z" />
    <glyph glyph-name="Oslash" unicode="&#xd8;" horiz-adv-x="2162" 
d="M2010 1912l-234 -262.001c88 -130 147 -243.667 177 -341s45 -213.666 45 -348.999c0 -294.667 -82.5 -534 -247.5 -718s-385.833 -276 -662.5 -276c-218.667 0 -424.667 74 -618 222l-228 -254l-80 68l232 262c-97.333 148 -160.333 270 -189 366s-43 204.667 -43 326
c0 300 83.167 541.667 249.5 725s390.5 275 672.5 275c211.333 0 417.333 -76 618 -228l226 254zM1586 1596c-174.667 134.667 -341.334 202 -500.001 202c-227.333 0 -404.166 -75.667 -530.499 -227s-189.5 -355 -189.5 -611c0 -204.667 49.333 -392 148 -562zM1654 1510
l-1066 -1192c146.667 -129.333 310.667 -194 492 -194c240.667 0 419.834 81.333 537.501 244s176.5 357.334 176.5 584.001c0 197.333 -46.667 383.333 -140 558z" />
    <glyph glyph-name="Ugrave" unicode="&#xd9;" horiz-adv-x="1938" 
d="M229 1921h185v-1230c0 -382.667 184.333 -574 553 -574c365.333 0 548 190.333 548 571v1233h185v-1215c0 -492.667 -243 -739 -729 -739c-494.667 0 -742 246 -742 738v1216zM1036 2054h-133l-295 347h260z" />
    <glyph glyph-name="Uacute" unicode="&#xda;" horiz-adv-x="1938" 
d="M229 1921h185v-1230c0 -382.667 184.333 -574 553 -574c365.333 0 548 190.333 548 571v1233h185v-1215c0 -492.667 -243 -739 -729 -739c-494.667 0 -742 246 -742 738v1216zM1192 2412l-244 -312h-132l148 312h228z" />
    <glyph glyph-name="Ucircumflex" unicode="&#xdb;" horiz-adv-x="1938" 
d="M229 1921h185v-1230c0 -382.667 184.333 -574 553 -574c365.333 0 548 190.333 548 571v1233h185v-1215c0 -492.667 -243 -739 -729 -739c-494.667 0 -742 246 -742 738v1216zM1312 2100h-186l-171 224l-171 -224h-190l240 312h228z" />
    <glyph glyph-name="Udieresis" unicode="&#xdc;" horiz-adv-x="1938" 
d="M229 1921h185v-1230c0 -382.667 184.333 -574 553 -574c365.333 0 548 190.333 548 571v1233h185v-1215c0 -492.667 -243 -739 -729 -739c-494.667 0 -742 246 -742 738v1216zM1300 2124h-186v210h186v-210zM794 2124h-188v210h188v-210z" />
    <glyph glyph-name="Yacute" unicode="&#xdd;" horiz-adv-x="1639" 
d="M1627 1921l-723 -1092v-829h-182v829l-700 1092h214l587 -921l600 921h204zM1092 2412l-244 -312h-132l148 312h228z" />
    <glyph glyph-name="Thorn" unicode="&#xde;" horiz-adv-x="1854" 
d="M444 404v-404h-196v1922h196v-404h522c170 0 306.333 -16 409 -48s182.5 -94.333 239.5 -187s85.5 -195.667 85.5 -309c0 -380 -237.333 -570 -712 -570h-544zM444 1350v-778.001h548c336 0 504 131.333 504 394c0 76.667 -18.167 146.834 -54.5 210.501
s-83.5 108.5 -141.5 134.5s-162.667 39 -314 39h-542z" />
    <glyph glyph-name="germandbls" unicode="&#xdf;" horiz-adv-x="1698" 
d="M670 242l150 70c77.333 -141.333 174.666 -212 291.999 -212c68 0 132.333 23.833 193 71.5s91 113.834 91 198.501c0 53.333 -13 97.666 -39 132.999s-83.667 83.666 -173 144.999c-146.667 101.333 -236 176.666 -268 225.999s-48 95.333 -48 138
c0 58.667 34 146 102 262c78.667 134.667 118 235.334 118 302.001c0 72.667 -30.167 131.834 -90.5 177.501s-132.166 68.5 -215.499 68.5c-242.667 0 -364 -170 -364 -510v-1312h-176v1322c0 422.667 182 634 546 634c117.333 0 224.666 -30 321.999 -90
s146 -148.667 146 -266c0 -80.667 -35.667 -183.667 -107 -309c-66 -116 -99 -197 -99 -243c0 -70.667 70 -152.667 210 -246c118 -78 200.5 -144.833 247.5 -200.5s70.5 -126.167 70.5 -211.5c0 -123.333 -44.667 -224.833 -134 -304.5s-198.666 -119.5 -327.999 -119.5
c-200 0 -348.667 92 -446 276z" />
    <glyph glyph-name="agrave" unicode="&#xe0;" 
d="M1360 0h-177.995c-26 65.333 -43 136 -51 212c-150.667 -162 -340.334 -243 -569.001 -243c-83.333 0 -157.833 14.5 -223.5 43.5s-118.167 72.5 -157.5 130.5s-59 128.667 -59 212c0 58.667 9.16699 111.167 27.5 157.5s46.166 87 83.499 122s87.666 65 150.999 90
s177.333 48.833 342 71.5c183.333 25.333 313 52.333 389 81c0 79.333 -2.16699 140.333 -6.5 183s-19.166 82.667 -44.499 120s-64.333 66 -117 86s-117.667 30 -195 30c-240.667 0 -385.334 -103 -434.001 -309l-166 25c51.333 274 251 411 599 411
c109.333 0 201.166 -12.5 275.499 -37.5s129.666 -60.333 165.999 -106s60 -102.167 71 -169.5s16.5 -160 16.5 -278l-5 -392c-1.33301 -104.667 3.5 -185 14.5 -241s34.5 -122.333 70.5 -199zM1115 658l-0.000976562 90.001
c-92.667 -35.333 -239.334 -70.333 -440.001 -105c-106 -18.667 -183.5 -37.834 -232.5 -57.501s-86 -48.167 -111 -85.5s-37.5 -81.333 -37.5 -132c0 -76 28.167 -137.167 84.5 -183.5s128.833 -69.5 217.5 -69.5c52 0 103.333 6.83301 154 20.5s100.334 34 149.001 61
s89.334 59.667 122.001 98s56.5 87.5 71.5 147.5s22.5 132 22.5 216zM856.004 1574h-133l-295 347h260z" />
    <glyph glyph-name="aacute" unicode="&#xe1;" 
d="M1360 0h-177.995c-26 65.333 -43 136 -51 212c-150.667 -162 -340.334 -243 -569.001 -243c-83.333 0 -157.833 14.5 -223.5 43.5s-118.167 72.5 -157.5 130.5s-59 128.667 -59 212c0 58.667 9.16699 111.167 27.5 157.5s46.166 87 83.499 122s87.666 65 150.999 90
s177.333 48.833 342 71.5c183.333 25.333 313 52.333 389 81c0 79.333 -2.16699 140.333 -6.5 183s-19.166 82.667 -44.499 120s-64.333 66 -117 86s-117.667 30 -195 30c-240.667 0 -385.334 -103 -434.001 -309l-166 25c51.333 274 251 411 599 411
c109.333 0 201.166 -12.5 275.499 -37.5s129.666 -60.333 165.999 -106s60 -102.167 71 -169.5s16.5 -160 16.5 -278l-5 -392c-1.33301 -104.667 3.5 -185 14.5 -241s34.5 -122.333 70.5 -199zM1115 658l-0.000976562 90.001
c-92.667 -35.333 -239.334 -70.333 -440.001 -105c-106 -18.667 -183.5 -37.834 -232.5 -57.501s-86 -48.167 -111 -85.5s-37.5 -81.333 -37.5 -132c0 -76 28.167 -137.167 84.5 -183.5s128.833 -69.5 217.5 -69.5c52 0 103.333 6.83301 154 20.5s100.334 34 149.001 61
s89.334 59.667 122.001 98s56.5 87.5 71.5 147.5s22.5 132 22.5 216zM1022 1932l-244 -312h-132l148 312h228z" />
    <glyph glyph-name="acircumflex" unicode="&#xe2;" 
d="M1360 0h-177.995c-26 65.333 -43 136 -51 212c-150.667 -162 -340.334 -243 -569.001 -243c-83.333 0 -157.833 14.5 -223.5 43.5s-118.167 72.5 -157.5 130.5s-59 128.667 -59 212c0 58.667 9.16699 111.167 27.5 157.5s46.166 87 83.499 122s87.666 65 150.999 90
s177.333 48.833 342 71.5c183.333 25.333 313 52.333 389 81c0 79.333 -2.16699 140.333 -6.5 183s-19.166 82.667 -44.499 120s-64.333 66 -117 86s-117.667 30 -195 30c-240.667 0 -385.334 -103 -434.001 -309l-166 25c51.333 274 251 411 599 411
c109.333 0 201.166 -12.5 275.499 -37.5s129.666 -60.333 165.999 -106s60 -102.167 71 -169.5s16.5 -160 16.5 -278l-5 -392c-1.33301 -104.667 3.5 -185 14.5 -241s34.5 -122.333 70.5 -199zM1115 658l-0.000976562 90.001
c-92.667 -35.333 -239.334 -70.333 -440.001 -105c-106 -18.667 -183.5 -37.834 -232.5 -57.501s-86 -48.167 -111 -85.5s-37.5 -81.333 -37.5 -132c0 -76 28.167 -137.167 84.5 -183.5s128.833 -69.5 217.5 -69.5c52 0 103.333 6.83301 154 20.5s100.334 34 149.001 61
s89.334 59.667 122.001 98s56.5 87.5 71.5 147.5s22.5 132 22.5 216zM1082 1620h-186l-171 224l-171 -224h-190l240 312h228z" />
    <glyph glyph-name="atilde" unicode="&#xe3;" 
d="M1360 0h-177.995c-26 65.333 -43 136 -51 212c-150.667 -162 -340.334 -243 -569.001 -243c-83.333 0 -157.833 14.5 -223.5 43.5s-118.167 72.5 -157.5 130.5s-59 128.667 -59 212c0 58.667 9.16699 111.167 27.5 157.5s46.166 87 83.499 122s87.666 65 150.999 90
s177.333 48.833 342 71.5c183.333 25.333 313 52.333 389 81c0 79.333 -2.16699 140.333 -6.5 183s-19.166 82.667 -44.499 120s-64.333 66 -117 86s-117.667 30 -195 30c-240.667 0 -385.334 -103 -434.001 -309l-166 25c51.333 274 251 411 599 411
c109.333 0 201.166 -12.5 275.499 -37.5s129.666 -60.333 165.999 -106s60 -102.167 71 -169.5s16.5 -160 16.5 -278l-5 -392c-1.33301 -104.667 3.5 -185 14.5 -241s34.5 -122.333 70.5 -199zM1115 658l-0.000976562 90.001
c-92.667 -35.333 -239.334 -70.333 -440.001 -105c-106 -18.667 -183.5 -37.834 -232.5 -57.501s-86 -48.167 -111 -85.5s-37.5 -81.333 -37.5 -132c0 -76 28.167 -137.167 84.5 -183.5s128.833 -69.5 217.5 -69.5c52 0 103.333 6.83301 154 20.5s100.334 34 149.001 61
s89.334 59.667 122.001 98s56.5 87.5 71.5 147.5s22.5 132 22.5 216zM1142 1900c0 -70 -22.332 -127.833 -66.999 -173.5s-99 -68.5 -163 -68.5c-48 0 -118 24 -210 72c-62.667 36 -112 54 -148 54c-78 0 -123.333 -43.333 -136 -130h-114c6 76 31.833 135.333 77.5 178
s100.5 64 164.5 64c49.333 0 120.666 -23.333 213.999 -70c56.667 -29.333 104 -44 142 -44c70 0 112.667 39.333 128 118h112z" />
    <glyph glyph-name="adieresis" unicode="&#xe4;" 
d="M1360 0h-177.995c-26 65.333 -43 136 -51 212c-150.667 -162 -340.334 -243 -569.001 -243c-83.333 0 -157.833 14.5 -223.5 43.5s-118.167 72.5 -157.5 130.5s-59 128.667 -59 212c0 58.667 9.16699 111.167 27.5 157.5s46.166 87 83.499 122s87.666 65 150.999 90
s177.333 48.833 342 71.5c183.333 25.333 313 52.333 389 81c0 79.333 -2.16699 140.333 -6.5 183s-19.166 82.667 -44.499 120s-64.333 66 -117 86s-117.667 30 -195 30c-240.667 0 -385.334 -103 -434.001 -309l-166 25c51.333 274 251 411 599 411
c109.333 0 201.166 -12.5 275.499 -37.5s129.666 -60.333 165.999 -106s60 -102.167 71 -169.5s16.5 -160 16.5 -278l-5 -392c-1.33301 -104.667 3.5 -185 14.5 -241s34.5 -122.333 70.5 -199zM1115 658l-0.000976562 90.001
c-92.667 -35.333 -239.334 -70.333 -440.001 -105c-106 -18.667 -183.5 -37.834 -232.5 -57.501s-86 -48.167 -111 -85.5s-37.5 -81.333 -37.5 -132c0 -76 28.167 -137.167 84.5 -183.5s128.833 -69.5 217.5 -69.5c52 0 103.333 6.83301 154 20.5s100.334 34 149.001 61
s89.334 59.667 122.001 98s56.5 87.5 71.5 147.5s22.5 132 22.5 216zM1070 1664h-186v210h186v-210zM564.004 1664h-188v210h188v-210z" />
    <glyph glyph-name="aring" unicode="&#xe5;" 
d="M1360 0h-177.995c-26 65.333 -43 136 -51 212c-150.667 -162 -340.334 -243 -569.001 -243c-83.333 0 -157.833 14.5 -223.5 43.5s-118.167 72.5 -157.5 130.5s-59 128.667 -59 212c0 58.667 9.16699 111.167 27.5 157.5s46.166 87 83.499 122s87.666 65 150.999 90
s177.333 48.833 342 71.5c183.333 25.333 313 52.333 389 81c0 79.333 -2.16699 140.333 -6.5 183s-19.166 82.667 -44.499 120s-64.333 66 -117 86s-117.667 30 -195 30c-240.667 0 -385.334 -103 -434.001 -309l-166 25c51.333 274 251 411 599 411
c109.333 0 201.166 -12.5 275.499 -37.5s129.666 -60.333 165.999 -106s60 -102.167 71 -169.5s16.5 -160 16.5 -278l-5 -392c-1.33301 -104.667 3.5 -185 14.5 -241s34.5 -122.333 70.5 -199zM1115 658l-0.000976562 90.001
c-92.667 -35.333 -239.334 -70.333 -440.001 -105c-106 -18.667 -183.5 -37.834 -232.5 -57.501s-86 -48.167 -111 -85.5s-37.5 -81.333 -37.5 -132c0 -76 28.167 -137.167 84.5 -183.5s128.833 -69.5 217.5 -69.5c52 0 103.333 6.83301 154 20.5s100.334 34 149.001 61
s89.334 59.667 122.001 98s56.5 87.5 71.5 147.5s22.5 132 22.5 216zM524.004 1772c0 66 22.5 117.501 67.5 154.501s92.833 55.5 143.5 55.5c53.333 0 101.833 -17.333 145.5 -52s65.5 -87.334 65.5 -158.001c0 -66.667 -22.5 -118.5 -67.5 -155.5
s-92.833 -55.5 -143.5 -55.5s-98.5 18.5 -143.5 55.5s-67.5 88.833 -67.5 155.5zM594.004 1769c0 -34.667 12.501 -67.5 37.501 -98.5s59.5 -46.5 103.5 -46.5c39.333 0 72.666 14.333 99.999 43s41 62.667 41 102c0 36 -12.5 69.833 -37.5 101.5s-59.5 47.5 -103.5 47.5
s-78.5 -15.833 -103.5 -47.5s-37.5 -65.5 -37.5 -101.5z" />
    <glyph glyph-name="ae" unicode="&#xe6;" horiz-adv-x="2472" 
d="M2326 708l-2.00098 -50.001h-1042c0 -114 10.333 -208.167 31 -282.5s69.834 -138.833 147.501 -193.5s166.834 -82 267.501 -82c202.667 0 334 100.667 394 302l186 -24c-96 -273.333 -292.667 -410 -590 -410c-213.333 0 -390.666 96 -531.999 288
c-187.333 -192 -387.333 -288 -600 -288c-120.667 0 -227.5 30.833 -320.5 92.5s-139.5 156.834 -139.5 285.501c0 114.667 43.333 207.167 130 277.5s246 120.5 478 150.5c146.667 19.333 270.667 44 372 74c0 44 0.666992 70.667 2 80c0 123.333 -26.333 211.5 -79 264.5
s-144.334 79.5 -275.001 79.5c-239.333 0 -376 -91.333 -410 -274l-170 22c64 257.333 258 386 582 386c153.333 0 263.166 -18.333 329.499 -55s121.833 -89.667 166.5 -159c122 142.667 277.333 214 466 214c183.333 0 332.5 -67.167 447.5 -201.5
s168.5 -299.833 160.5 -496.5zM2144 791.999c-20.667 320 -162.667 480 -426 480c-148 0 -258.333 -48 -331 -144s-109 -208 -109 -336h866zM1110 741.999c-90 -42.667 -248.667 -82 -476 -118c-210.667 -33.333 -316 -123.333 -316 -270c0 -85.333 30.667 -150.333 92 -195
s135.333 -67 222 -67c104.667 0 200.167 26.5 286.5 79.5s139.833 113.167 160.5 180.5s31 197.333 31 390z" />
    <glyph glyph-name="ccedilla" unicode="&#xe7;" 
d="M1367 451c-52.667 -158 -128.331 -277.834 -226.998 -359.501s-230 -122.5 -394 -122.5c-126 0 -234.167 25.667 -324.5 77s-163.333 133.5 -219 246.5s-83.5 247.833 -83.5 404.5c0 100.667 11.833 191.834 35.5 273.501s51.667 147.667 84 198s70.5 93.333 114.5 129
s96.833 65.5 158.5 89.5s142.167 36 241.5 36c303.333 0 501.333 -141.667 594 -425l-172 -26c-60.667 208.667 -203.334 313 -428.001 313c-72 0 -136.167 -13.167 -192.5 -39.5s-104.333 -65.5 -144 -117.5s-69.5 -112.5 -89.5 -181.5s-30 -146.5 -30 -232.5
c0 -184.667 40.167 -333 120.5 -445s194.166 -168 341.499 -168c212 0 363 125 453 375zM462.003 -504.001l10.001 93.999l94 -4c169.333 0 254 45.333 254 136c0 20.667 -7.33301 42.667 -22 66c-36 37.333 -96 56 -180 56l52 176h110l-42 -144
c76 0 135.333 -16.667 178 -50s64 -72.666 64 -117.999c0 -48.667 -26.833 -98.167 -80.5 -148.5s-146.834 -75.5 -279.501 -75.5c-57.333 0 -110 4 -158 12z" />
    <glyph glyph-name="egrave" unicode="&#xe8;" 
d="M1365 675l-1071 0.000976562c2.66699 -180 45.167 -320.5 127.5 -421.5s196.166 -151.5 341.499 -151.5c202.667 0 344.334 112.667 425.001 338l160 -27c-54.667 -158.667 -131.167 -272.334 -229.5 -341.001s-220.166 -103 -365.499 -103
c-196.667 0 -350.667 65 -462 195s-167 307.333 -167 532s56 402 168 532s266.667 195 464 195c402.667 0 605.667 -249.333 609 -748zM1188 810.001c-25.333 321.333 -170.667 482 -436 482c-120.667 0 -222.167 -41.667 -304.5 -125s-131.833 -202.333 -148.5 -357h889z
M835.998 1574h-133l-295 347h260z" />
    <glyph glyph-name="eacute" unicode="&#xe9;" 
d="M1365 675l-1071 0.000976562c2.66699 -180 45.167 -320.5 127.5 -421.5s196.166 -151.5 341.499 -151.5c202.667 0 344.334 112.667 425.001 338l160 -27c-54.667 -158.667 -131.167 -272.334 -229.5 -341.001s-220.166 -103 -365.499 -103
c-196.667 0 -350.667 65 -462 195s-167 307.333 -167 532s56 402 168 532s266.667 195 464 195c402.667 0 605.667 -249.333 609 -748zM1188 810.001c-25.333 321.333 -170.667 482 -436 482c-120.667 0 -222.167 -41.667 -304.5 -125s-131.833 -202.333 -148.5 -357h889z
M1032 1932l-244 -312h-132l148 312h228z" />
    <glyph glyph-name="ecircumflex" unicode="&#xea;" 
d="M1365 675l-1071 0.000976562c2.66699 -180 45.167 -320.5 127.5 -421.5s196.166 -151.5 341.499 -151.5c202.667 0 344.334 112.667 425.001 338l160 -27c-54.667 -158.667 -131.167 -272.334 -229.5 -341.001s-220.166 -103 -365.499 -103
c-196.667 0 -350.667 65 -462 195s-167 307.333 -167 532s56 402 168 532s266.667 195 464 195c402.667 0 605.667 -249.333 609 -748zM1188 810.001c-25.333 321.333 -170.667 482 -436 482c-120.667 0 -222.167 -41.667 -304.5 -125s-131.833 -202.333 -148.5 -357h889z
M1122 1620h-186l-171 224l-171 -224h-190l240 312h228z" />
    <glyph glyph-name="edieresis" unicode="&#xeb;" 
d="M1365 675l-1071 0.000976562c2.66699 -180 45.167 -320.5 127.5 -421.5s196.166 -151.5 341.499 -151.5c202.667 0 344.334 112.667 425.001 338l160 -27c-54.667 -158.667 -131.167 -272.334 -229.5 -341.001s-220.166 -103 -365.499 -103
c-196.667 0 -350.667 65 -462 195s-167 307.333 -167 532s56 402 168 532s266.667 195 464 195c402.667 0 605.667 -249.333 609 -748zM1188 810.001c-25.333 321.333 -170.667 482 -436 482c-120.667 0 -222.167 -41.667 -304.5 -125s-131.833 -202.333 -148.5 -357h889z
M1090 1624h-186v210h186v-210zM583.998 1624h-188v210h188v-210z" />
    <glyph glyph-name="igrave" unicode="&#xec;" horiz-adv-x="772" 
d="M480 0h-178v1374h178v-1374zM516 1574h-133l-295 347h260z" />
    <glyph glyph-name="iacute" unicode="&#xed;" horiz-adv-x="772" 
d="M480 0h-178v1374h178v-1374zM682 1932l-244 -312h-132l148 312h228z" />
    <glyph glyph-name="icircumflex" unicode="&#xee;" horiz-adv-x="772" 
d="M480 0h-178v1374h178v-1374zM742 1620h-186l-171 224l-171 -224h-190l240 312h228z" />
    <glyph glyph-name="idieresis" unicode="&#xef;" horiz-adv-x="772" 
d="M480 0h-178v1374h178v-1374zM730 1624h-186v210h186v-210zM224 1624h-188v210h188v-210z" />
    <glyph glyph-name="eth" unicode="&#xf0;" horiz-adv-x="1546" 
d="M1076 1248c-78.667 170.667 -164.666 307.334 -257.999 410.001l-366 -168l-32 76l340 156c-86.667 80 -165.334 146.667 -236.001 200h178c54.667 -42 112.667 -90.667 174 -146l280 134l34 -76l-244 -116c302.667 -348 454 -696 454 -1044
c0 -210.667 -56.833 -381.334 -170.5 -512.001s-268.167 -196 -463.5 -196c-198.667 0 -353.667 63 -465 189s-167 297 -167 513c0 212 50.833 382.667 152.5 512s243.5 194 425.5 194c88.667 0 210 -42 364 -126zM1214 684c0 150 -37 282.501 -111 397.501
s-189.667 172.5 -347 172.5c-150.667 0 -262 -56.833 -334 -170.5s-108 -254.167 -108 -421.5c0 -170.667 39.167 -307.334 117.5 -410.001s189.166 -154 332.499 -154c140.667 0 250.834 54.667 330.501 164s119.5 250 119.5 422z" />
    <glyph glyph-name="ntilde" unicode="&#xf1;" 
d="M1291 0l-165.002 0.000976562v864c0 150 -29 256.833 -87 320.5s-136.667 95.5 -236 95.5c-53.333 0 -103.166 -9 -149.499 -27s-89.166 -44.833 -128.499 -80.5s-70.5 -76.834 -93.5 -123.501s-39 -97.667 -48 -153s-13.5 -153 -13.5 -293v-603h-164v1392h164v-206
c124.667 158 274 237 448 237c315.333 0 473 -171.667 473 -515v-908zM1162 1900c0 -70 -22.332 -127.833 -66.999 -173.5s-99 -68.5 -163 -68.5c-48 0 -118 24 -210 72c-62.667 36 -112 54 -148 54c-78 0 -123.333 -43.333 -136 -130h-114c6 76 31.833 135.333 77.5 178
s100.5 64 164.5 64c49.333 0 120.666 -23.333 213.999 -70c56.667 -29.333 104 -44 142 -44c70 0 112.667 39.333 128 118h112z" />
    <glyph glyph-name="ograve" unicode="&#xf2;" 
d="M1360 693c0 -229.333 -54.167 -407.334 -162.5 -534.001s-261.5 -190 -459.5 -190c-95.333 0 -180.666 16.667 -255.999 50s-140.833 83 -196.5 149s-97.5 142.333 -125.5 229s-42 183.334 -42 290.001c0 110.667 12.167 209.5 36.5 296.5s61 162.333 110 226
s110.833 115.167 185.5 154.5s171 59 289 59c189.333 0 340.166 -61.5 452.499 -184.5s168.5 -304.833 168.5 -545.5zM1191 692.999c0 124.667 -18.333 231.832 -55 321.499s-87.667 157.667 -153 204s-145 69.5 -239 69.5c-144.667 0 -256.5 -53.167 -335.5 -159.5
s-118.5 -249.166 -118.5 -428.499c0 -177.333 40.167 -321.5 120.5 -432.5s192.166 -166.5 335.499 -166.5c66.667 0 126.334 12.167 179.001 36.5s99.167 61.833 139.5 112.5s71.5 113.5 93.5 188.5s33 159.833 33 254.5zM816 1574h-133l-295 347h260z" />
    <glyph glyph-name="oacute" unicode="&#xf3;" 
d="M1360 693c0 -229.333 -54.167 -407.334 -162.5 -534.001s-261.5 -190 -459.5 -190c-95.333 0 -180.666 16.667 -255.999 50s-140.833 83 -196.5 149s-97.5 142.333 -125.5 229s-42 183.334 -42 290.001c0 110.667 12.167 209.5 36.5 296.5s61 162.333 110 226
s110.833 115.167 185.5 154.5s171 59 289 59c189.333 0 340.166 -61.5 452.499 -184.5s168.5 -304.833 168.5 -545.5zM1191 692.999c0 124.667 -18.333 231.832 -55 321.499s-87.667 157.667 -153 204s-145 69.5 -239 69.5c-144.667 0 -256.5 -53.167 -335.5 -159.5
s-118.5 -249.166 -118.5 -428.499c0 -177.333 40.167 -321.5 120.5 -432.5s192.166 -166.5 335.499 -166.5c66.667 0 126.334 12.167 179.001 36.5s99.167 61.833 139.5 112.5s71.5 113.5 93.5 188.5s33 159.833 33 254.5zM1002 1932l-244 -312h-132l148 312h228z" />
    <glyph glyph-name="ocircumflex" unicode="&#xf4;" 
d="M1360 693c0 -229.333 -54.167 -407.334 -162.5 -534.001s-261.5 -190 -459.5 -190c-95.333 0 -180.666 16.667 -255.999 50s-140.833 83 -196.5 149s-97.5 142.333 -125.5 229s-42 183.334 -42 290.001c0 110.667 12.167 209.5 36.5 296.5s61 162.333 110 226
s110.833 115.167 185.5 154.5s171 59 289 59c189.333 0 340.166 -61.5 452.499 -184.5s168.5 -304.833 168.5 -545.5zM1191 692.999c0 124.667 -18.333 231.832 -55 321.499s-87.667 157.667 -153 204s-145 69.5 -239 69.5c-144.667 0 -256.5 -53.167 -335.5 -159.5
s-118.5 -249.166 -118.5 -428.499c0 -177.333 40.167 -321.5 120.5 -432.5s192.166 -166.5 335.499 -166.5c66.667 0 126.334 12.167 179.001 36.5s99.167 61.833 139.5 112.5s71.5 113.5 93.5 188.5s33 159.833 33 254.5zM1082 1600h-186l-171 224l-171 -224h-190l240 312
h228z" />
    <glyph glyph-name="otilde" unicode="&#xf5;" 
d="M1360 693c0 -229.333 -54.167 -407.334 -162.5 -534.001s-261.5 -190 -459.5 -190c-95.333 0 -180.666 16.667 -255.999 50s-140.833 83 -196.5 149s-97.5 142.333 -125.5 229s-42 183.334 -42 290.001c0 110.667 12.167 209.5 36.5 296.5s61 162.333 110 226
s110.833 115.167 185.5 154.5s171 59 289 59c189.333 0 340.166 -61.5 452.499 -184.5s168.5 -304.833 168.5 -545.5zM1191 692.999c0 124.667 -18.333 231.832 -55 321.499s-87.667 157.667 -153 204s-145 69.5 -239 69.5c-144.667 0 -256.5 -53.167 -335.5 -159.5
s-118.5 -249.166 -118.5 -428.499c0 -177.333 40.167 -321.5 120.5 -432.5s192.166 -166.5 335.499 -166.5c66.667 0 126.334 12.167 179.001 36.5s99.167 61.833 139.5 112.5s71.5 113.5 93.5 188.5s33 159.833 33 254.5zM1132 1900c0 -70 -22.332 -127.833 -66.999 -173.5
s-99 -68.5 -163 -68.5c-48 0 -118 24 -210 72c-62.667 36 -112 54 -148 54c-78 0 -123.333 -43.333 -136 -130h-114c6 76 31.833 135.333 77.5 178s100.5 64 164.5 64c49.333 0 120.666 -23.333 213.999 -70c56.667 -29.333 104 -44 142 -44c70 0 112.667 39.333 128 118
h112z" />
    <glyph glyph-name="odieresis" unicode="&#xf6;" 
d="M1360 693c0 -229.333 -54.167 -407.334 -162.5 -534.001s-261.5 -190 -459.5 -190c-95.333 0 -180.666 16.667 -255.999 50s-140.833 83 -196.5 149s-97.5 142.333 -125.5 229s-42 183.334 -42 290.001c0 110.667 12.167 209.5 36.5 296.5s61 162.333 110 226
s110.833 115.167 185.5 154.5s171 59 289 59c189.333 0 340.166 -61.5 452.499 -184.5s168.5 -304.833 168.5 -545.5zM1191 692.999c0 124.667 -18.333 231.832 -55 321.499s-87.667 157.667 -153 204s-145 69.5 -239 69.5c-144.667 0 -256.5 -53.167 -335.5 -159.5
s-118.5 -249.166 -118.5 -428.499c0 -177.333 40.167 -321.5 120.5 -432.5s192.166 -166.5 335.499 -166.5c66.667 0 126.334 12.167 179.001 36.5s99.167 61.833 139.5 112.5s71.5 113.5 93.5 188.5s33 159.833 33 254.5zM1070 1644h-186v210h186v-210zM564 1644h-188v210
h188v-210z" />
    <glyph glyph-name="divide" unicode="&#xf7;" horiz-adv-x="1526" 
d="M868 1252h-212v210h212v-210zM1386 868h-1246v160h1246v-160zM868 432h-212v212h212v-212z" />
    <glyph glyph-name="oslash" unicode="&#xf8;" horiz-adv-x="1698" 
d="M466 88l-141.999 -182l-72 56l142 186c-118.667 125.333 -178 298 -178 518c0 229.333 55.167 410 165.5 542s266.5 198 468.5 198c126 0 264 -42.667 414 -128l132 170l74 -54l-138 -180c110.667 -146 166 -322 166 -528c0 -226.667 -55.333 -403 -166 -529
s-269.334 -189 -476.001 -189c-139.333 0 -269.333 40 -390 120zM1166 1150c-108 81.333 -210.667 121.999 -308 121.999c-151.333 0 -265.5 -55.833 -342.5 -167.5s-115.5 -251.167 -115.5 -418.5c0 -145.333 33.333 -278.666 100 -399.999zM1228 1078l-664 -861.999
c92 -77.333 186.667 -116 284 -116c160 0 278 57.167 354 171.5s114 253.166 114 416.499c0 129.333 -29.333 259.333 -88 390z" />
    <glyph glyph-name="ugrave" unicode="&#xf9;" 
d="M1276 0l-164.999 0.000976562v206c-122 -158 -271.333 -237 -448 -237c-314.667 0 -472 171.667 -472 515v908h165v-864c0 -151.333 29.333 -258.833 88 -322.5s137 -95.5 235 -95.5c65.333 0 126.166 13.667 182.499 41s106.333 69.166 150 125.499
s71.167 121.833 82.5 196.5s17 179.667 17 315v604h165v-1392zM816.001 1574h-133l-295 347h260z" />
    <glyph glyph-name="uacute" unicode="&#xfa;" 
d="M1276 0l-164.999 0.000976562v206c-122 -158 -271.333 -237 -448 -237c-314.667 0 -472 171.667 -472 515v908h165v-864c0 -151.333 29.333 -258.833 88 -322.5s137 -95.5 235 -95.5c65.333 0 126.166 13.667 182.499 41s106.333 69.166 150 125.499
s71.167 121.833 82.5 196.5s17 179.667 17 315v604h165v-1392zM952.001 1932l-244 -312h-132l148 312h228z" />
    <glyph glyph-name="ucircumflex" unicode="&#xfb;" 
d="M1276 0l-164.999 0.000976562v206c-122 -158 -271.333 -237 -448 -237c-314.667 0 -472 171.667 -472 515v908h165v-864c0 -151.333 29.333 -258.833 88 -322.5s137 -95.5 235 -95.5c65.333 0 126.166 13.667 182.499 41s106.333 69.166 150 125.499
s71.167 121.833 82.5 196.5s17 179.667 17 315v604h165v-1392zM1082 1620h-186l-171 224l-171 -224h-190l240 312h228z" />
    <glyph glyph-name="udieresis" unicode="&#xfc;" 
d="M1276 0l-164.999 0.000976562v206c-122 -158 -271.333 -237 -448 -237c-314.667 0 -472 171.667 -472 515v908h165v-864c0 -151.333 29.333 -258.833 88 -322.5s137 -95.5 235 -95.5c65.333 0 126.166 13.667 182.499 41s106.333 69.166 150 125.499
s71.167 121.833 82.5 196.5s17 179.667 17 315v604h165v-1392zM1030 1644h-186v210h186v-210zM524.001 1644h-188v210h188v-210z" />
    <glyph glyph-name="yacute" unicode="&#xfd;" horiz-adv-x="1342" 
d="M1320 1392l-549.001 -1392l-109 -276c-76 -192.667 -183.667 -289 -323 -289c-34 0 -86 8.66699 -156 26l-18 164c65.333 -15.333 114.333 -23 147 -23c52.667 0 90.834 10.333 114.501 31s47.5 61.334 71.5 122.001l97 245l-548 1392h178l458 -1203l475 1203h162z
M951.999 1932l-244 -312h-132l148 312h228z" />
    <glyph glyph-name="thorn" unicode="&#xfe;" horiz-adv-x="1546" 
d="M394 200v-751.999h-176v2474h176v-752c90.667 157.333 234 236 430 236c194 0 338.5 -70.333 433.5 -211s142.5 -306.334 142.5 -497.001c0 -189.333 -48.667 -358.333 -146 -507s-246 -223 -446 -223c-183.333 0 -321.333 77.333 -414 232zM1218 700.001
c0 154 -33.667 289.499 -101 406.499s-173 175.5 -317 175.5c-136.667 0 -242.5 -59.5 -317.5 -178.5s-112.5 -260.833 -112.5 -425.5c0 -171.333 36.5 -310.5 109.5 -417.5s176.5 -160.5 310.5 -160.5c137.333 0 243 55.333 317 166s111 255.334 111 434.001z" />
    <glyph glyph-name="ydieresis" unicode="&#xff;" horiz-adv-x="1342" 
d="M1320 1392l-549.001 -1392l-109 -276c-76 -192.667 -183.667 -289 -323 -289c-34 0 -86 8.66699 -156 26l-18 164c65.333 -15.333 114.333 -23 147 -23c52.667 0 90.834 10.333 114.501 31s47.5 61.334 71.5 122.001l97 245l-548 1392h178l458 -1203l475 1203h162z
M1010 1644h-186v210h186v-210zM503.999 1644h-188v210h188v-210z" />
    <glyph glyph-name="dotlessi" unicode="&#x131;" horiz-adv-x="772" 
d="M480 0h-178v1374h178v-1374z" />
    <glyph glyph-name="OE" unicode="&#x152;" horiz-adv-x="2780" 
d="M2658 0h-1102v329c-108.667 -242 -301.334 -363 -578.001 -363c-260 0 -453 94.167 -579 282.5s-189 426.833 -189 715.5c0 310.667 65.5 553.667 196.5 729s321.5 263 571.5 263c134.667 0 253.834 -35.5 357.501 -106.5s177.167 -164.833 220.5 -281.5v354h1060v-166
h-882v-676h812v-166h-812v-748h924v-166zM1540 978c0 244 -48.5 443.668 -145.5 599.001s-235.833 233 -416.5 233c-190 0 -331.833 -79.333 -425.5 -238s-140.5 -368 -140.5 -628c0 -248.667 49 -449.834 147 -603.501s237.667 -230.5 419 -230.5
c185.333 0 325.333 79 420 237s142 368.333 142 631z" />
    <glyph glyph-name="oe" unicode="&#x153;" horiz-adv-x="2624" 
d="M2486 656l-1064 0.000976562c0 -166 41 -300.167 123 -402.5s195.667 -153.5 341 -153.5c196 0 327.333 99.333 394 298l178 -26c-85.333 -269.333 -277.333 -404 -576 -404c-249.333 0 -433.333 98.667 -552 296c-140.667 -197.333 -320.667 -296 -540 -296
c-226 0 -389.833 69 -491.5 207s-152.5 303 -152.5 495c0 151.333 24.167 282.166 72.5 392.499s120.5 195.166 216.5 254.499s215 89 357 89c242.667 0 420.667 -102 534 -306c128.667 204 305.334 306 530.001 306c217.333 0 376.666 -72.667 478 -218
c101.333 -145.333 152 -322.666 152 -531.999zM2300 788.001c-28.667 324 -172 486.001 -430 486.001c-130.667 0 -236.667 -46.333 -318 -139s-122 -208.334 -122 -347.001h870zM1242 692.002c0 172 -40.501 312 -121.501 420s-193.167 162 -336.5 162
c-151.333 0 -265.166 -57.833 -341.499 -173.5s-114.5 -252.5 -114.5 -410.5c0 -176.667 40 -319.167 120 -427.5s192 -162.5 336 -162.5c152.667 0 267.167 59 343.5 177s114.5 256.333 114.5 415z" />
    <glyph glyph-name="Scaron" unicode="&#x160;" horiz-adv-x="1639" 
d="M122 578l181 15.998c14.667 -157.333 67.667 -276.166 159 -356.499s211.333 -120.5 360 -120.5c110 0 203 16.5 279 49.5s134.667 82 176 147s62 133.833 62 206.5c0 193.333 -167.667 320.666 -503 381.999c-227.333 41.333 -390.166 104.333 -488.499 189
s-147.5 201.334 -147.5 350.001c0 158 57.5 283 172.5 375s261.167 138 438.5 138c198.667 0 353.167 -44.5 463.5 -133.5s170.833 -224.5 181.5 -406.5l-178 -8c-21.333 265.333 -172 398 -452 398c-129.333 0 -236.5 -31 -321.5 -93s-127.5 -146.667 -127.5 -254
c0 -183.333 153.333 -305.666 460 -366.999c226.667 -46 396 -110.667 508 -194s168 -204.666 168 -363.999c0 -84.667 -15 -160.834 -45 -228.501s-75.833 -127.167 -137.5 -178.5s-134.167 -90.5 -217.5 -117.5s-176 -40.5 -278 -40.5
c-436.667 0 -674.334 203.667 -713.001 611zM1172 2422l-250 -312h-228l-240 312h190l174 -228l168 228h186z" />
    <glyph glyph-name="scaron" unicode="&#x161;" horiz-adv-x="1342" 
d="M100 377l166 26.999c24.667 -106 72.667 -183 144 -231s159.333 -72 264 -72c72 0 136.167 12 192.5 36s99.166 55.5 128.499 94.5s44 85.5 44 139.5c0 49.333 -16.667 91.666 -50 126.999s-77.833 63 -133.5 83s-134.5 40.667 -236.5 62
c-317.333 66.667 -476 196.667 -476 390c0 120.667 46.833 215.834 140.5 285.501s211.167 104.5 352.5 104.5c281.333 0 453.333 -122.667 516 -368l-160 -24c-30 98 -70.5 165.5 -121.5 202.5s-128.167 55.5 -231.5 55.5c-65.333 0 -124 -9.83301 -176 -29.5
s-90.833 -45.834 -116.5 -78.501s-38.5 -71.667 -38.5 -117s11.667 -83.833 35 -115.5s68.5 -60.167 135.5 -85.5s152.5 -50 256.5 -74c197.333 -45.333 326 -100.5 386 -165.5s90 -141.5 90 -229.5c0 -88.667 -21.5 -164.167 -64.5 -226.5s-105.667 -111.333 -188 -147
s-179.166 -53.5 -290.499 -53.5c-71.333 0 -136.333 6.83301 -195 20.5s-112 34.834 -160 63.501s-90 67.334 -126 116.001s-65 118.667 -87 210zM982 1906l-250 -312h-228l-240 312h190l174 -228l168 228h186z" />
    <glyph glyph-name="Ydieresis" unicode="&#x178;" horiz-adv-x="1639" 
d="M1627 1921l-723 -1092v-829h-182v829l-700 1092h214l587 -921l600 921h204zM1120 2124h-186v210h186v-210zM614 2124h-188v210h188v-210z" />
    <glyph glyph-name="Zcaron" unicode="&#x17d;" horiz-adv-x="1639" 
d="M1561 0h-1494v169l1242 1596h-1133v156h1357v-156l-1254 -1608h1282v-157zM1238 2422l-250 -312h-228l-240 312h190l174 -228l168 228h186z" />
    <glyph glyph-name="zcaron" unicode="&#x17e;" horiz-adv-x="1342" 
d="M1280 0h-1224v143l954 1112h-899v137h1126v-110l-966 -1139h1009v-143zM1031 1932l-250 -312h-228l-240 312h190l174 -228l168 228h186z" />
    <glyph glyph-name="florin" unicode="&#x192;" horiz-adv-x="1546" 
d="M1432 1916l-32.0039 -144c-77.333 17.333 -138.666 26 -183.999 26c-59.333 0 -104.666 -15 -135.999 -45s-56.666 -96.333 -75.999 -199l-34 -180h278l-20 -122h-278l-264 -1512c-22 -125.333 -58 -211 -108 -257s-120.667 -69 -212 -69c-74.667 0 -162 9.33301 -262 28
l32 146c86.667 -17.333 146 -26 178 -26c113.333 0 183.333 78.667 210 236l246 1454h-272l20 122h274l38 208c18.667 102 36.834 173.667 54.501 215s51.167 78.5 100.5 111.5s114.333 49.5 195 49.5c89.333 0 173.333 -14 252 -42z" />
    <glyph glyph-name="circumflex" unicode="&#x2c6;" horiz-adv-x="926" 
d="M822 1620h-186l-171 224l-171 -224h-190l240 312h228z" />
    <glyph glyph-name="caron" unicode="&#x2c7;" horiz-adv-x="926" 
d="M842 1932l-250 -312h-228l-240 312h190l174 -228l168 228h186z" />
    <glyph glyph-name="ring" unicode="&#x2da;" horiz-adv-x="926" 
d="M254 1772c0 66 22.5 117.501 67.5 154.501s92.833 55.5 143.5 55.5c53.333 0 101.833 -17.333 145.5 -52s65.5 -87.334 65.5 -158.001c0 -66.667 -22.5 -118.5 -67.5 -155.5s-92.833 -55.5 -143.5 -55.5s-98.5 18.5 -143.5 55.5s-67.5 88.833 -67.5 155.5zM324 1769
c0 -34.667 12.501 -67.5 37.501 -98.5s59.5 -46.5 103.5 -46.5c39.333 0 72.666 14.333 99.999 43s41 62.667 41 102c0 36 -12.5 69.833 -37.5 101.5s-59.5 47.5 -103.5 47.5s-78.5 -15.833 -103.5 -47.5s-37.5 -65.5 -37.5 -101.5z" />
    <glyph glyph-name="ring" unicode="&#x25e6;" horiz-adv-x="926" 
d="M254 1772c0 66 22.5 117.501 67.5 154.501s92.833 55.5 143.5 55.5c53.333 0 101.833 -17.333 145.5 -52s65.5 -87.334 65.5 -158.001c0 -66.667 -22.5 -118.5 -67.5 -155.5s-92.833 -55.5 -143.5 -55.5s-98.5 18.5 -143.5 55.5s-67.5 88.833 -67.5 155.5zM324 1769
c0 -34.667 12.501 -67.5 37.501 -98.5s59.5 -46.5 103.5 -46.5c39.333 0 72.666 14.333 99.999 43s41 62.667 41 102c0 36 -12.5 69.833 -37.5 101.5s-59.5 47.5 -103.5 47.5s-78.5 -15.833 -103.5 -47.5s-37.5 -65.5 -37.5 -101.5z" />
    <glyph glyph-name="tilde" unicode="&#x2dc;" horiz-adv-x="926" 
d="M882 1900c0 -70 -22.332 -127.833 -66.999 -173.5s-99 -68.5 -163 -68.5c-48 0 -118 24 -210 72c-62.667 36 -112 54 -148 54c-78 0 -123.333 -43.333 -136 -130h-114c6 76 31.833 135.333 77.5 178s100.5 64 164.5 64c49.333 0 120.666 -23.333 213.999 -70
c56.667 -29.333 104 -44 142 -44c70 0 112.667 39.333 128 118h112z" />
    <glyph glyph-name="uni0E01" unicode="&#xe01;" horiz-adv-x="1638" 
d="M1401 0l-152 0.000976562v1196c0 101.333 -45.167 180.666 -135.5 237.999s-200.833 86 -331.5 86c-159.333 0 -300 -43.667 -422 -131c108 -28 217.333 -80 328 -156c-64.667 -28 -118.667 -59.333 -162 -94s-71.5 -68.167 -84.5 -100.5s-19.5 -71.166 -19.5 -116.499
v-922h-152v987c0 113.333 64.333 192.666 193 237.999c-70 44.667 -183.333 85.667 -340 123c58 90 151.667 164.333 281 223s256.666 88 381.999 88c127.333 0 237.833 -19 331.5 -57s164.334 -90.167 212.001 -156.5s71.5 -146.833 71.5 -241.5v-1204z" />
    <glyph glyph-name="uni0E02" unicode="&#xe02;" horiz-adv-x="1540" 
d="M1302 0l-839.999 -0.00195312v152h205v774c0 38 22.333 103.333 67 196c45.333 93.333 68 157.666 68 192.999c0 118.667 -67 187 -201 205c-115.333 0 -202.666 -19.333 -261.999 -58c57.333 0 107.833 -10.167 151.5 -30.5s75.667 -50.333 96 -90
s30.5 -86.167 30.5 -139.5c0 -45.333 -9.83301 -87.166 -29.5 -125.499s-50.334 -71 -92.001 -98s-92.5 -40.5 -152.5 -40.5c-55.333 0 -101 11.333 -137 34s-65.833 56 -89.5 100s-35.5 91 -35.5 141c0 74.667 12.833 141.334 38.5 200.001s75.5 114.334 149.5 167.001
s178 79 312 79c111.333 0 202.666 -30.667 273.999 -92s107 -144 107 -248c0 -47.333 -24 -121 -72 -221s-72 -165.667 -72 -197v-749h332v1486h152v-1638zM478.001 1217c0 84 -43.667 126 -131 126c-84.667 0 -127 -42 -127 -126c0 -88 42.333 -132 127 -132
c87.333 0 131 44 131 132z" />
    <glyph glyph-name="uni0E03" unicode="&#xe03;" horiz-adv-x="1638" 
d="M1396 0l-843.998 -0.00195312v152h205v925c0 74 42.667 151 128 231c37.333 34.667 56 57.334 56 68.001c0 16.667 -11.333 37.334 -34 62.001s-41.334 37 -56.001 37c-26.667 0 -90.667 -45.333 -192 -136c-114.667 112 -195.334 168 -242.001 168
c-38 0 -78.167 -23.667 -120.5 -71s-67.833 -93.333 -76.5 -138c38.667 38.667 95 58 169 58c70.667 0 129.167 -25 175.5 -75s69.5 -112.333 69.5 -187c0 -75.333 -24.5 -136.5 -73.5 -183.5s-114.5 -70.5 -196.5 -70.5c-91.333 0 -160 32.5 -206 97.5s-69 147.5 -69 247.5
c0 134.667 42 247.334 126 338.001s154 136 210 136c28 0 51.333 -7 70 -21l159 -122l156 118c22 16.667 41 25 57 25c20 0 66 -39.667 138 -119s108 -131.333 108 -156c0 -10.667 -58 -85.334 -174 -224.001c-20.667 -24.667 -31 -59 -31 -103v-905h336v1486h152v-1638z
M503.002 1106c0 84.667 -43.667 127 -131 127c-84.667 0 -127 -42.333 -127 -127c0 -87.333 42.333 -131 127 -131c87.333 0 131 43.667 131 131z" />
    <glyph glyph-name="uni0E04" unicode="&#xe04;" horiz-adv-x="1708" 
d="M1470 0l-150.996 0.000976562v1065c0 87.333 -19.5 164.166 -58.5 230.499s-92.833 120.333 -161.5 162s-147 62.5 -235 62.5c-84.667 0 -161.834 -18.833 -231.501 -56.5s-130.334 -98 -182.001 -181s-77.5 -182.833 -77.5 -299.5v-647l86 270l123 418
c51.333 174.667 148.666 262 291.999 262c73.333 0 135.833 -26.333 187.5 -79s77.5 -116.334 77.5 -191.001c0 -78 -26.333 -142.667 -79 -194s-118 -77 -196 -77c-100.667 0 -166 33 -196 99l-21 -66l-258 -778h-156v987c0 192 58.667 352 176 480s266.333 192 447 192
c112 0 213.667 -22 305 -66s165.666 -110.167 222.999 -198.5s86 -194.166 86 -317.499v-1077zM995.004 1008c0 90 -46.333 135 -139 135c-82 0 -123 -41 -123 -123c0 -90 46.333 -135 139 -135c82 0 123 41 123 123z" />
    <glyph glyph-name="uni0E05" unicode="&#xe05;" horiz-adv-x="1708" 
d="M1479 0h-151.999v1184c0 204.667 -57 307 -171 307c-43.333 0 -77.666 -9.66699 -102.999 -29l-172 -131l-172 131c-28.667 22 -69.334 33 -122.001 33c-128.667 0 -193 -103.667 -193 -311v-844l82 258l123 352c62 178 154.667 267 278 267
c180.667 0 271 -90.333 271 -271c0 -52 -11 -97.167 -33 -135.5s-52 -68.333 -90 -90s-83 -32.5 -135 -32.5c-74 0 -142.333 37 -205 111l-33 -107l-254 -692h-156v1270c0 63.333 14 123.5 42 180.5s66.5 102.5 115.5 136.5s104.5 51 166.5 51
c95.333 0 164.666 -18 207.999 -54c23.333 -16 59 -45.667 107 -89c32 29.333 70 59 114 89c46 36 114.667 54 206 54c55.333 0 103.333 -13.833 144 -41.5s73.167 -67 97.5 -118s36.5 -109.5 36.5 -175.5v-1303zM1008 954c0 84.667 -42.333 127 -127 127
c-87.333 0 -131 -42.333 -131 -127c0 -87.333 43.667 -131 131 -131c84.667 0 127 43.667 127 131z" />
    <glyph glyph-name="uni0E06" unicode="&#xe06;" horiz-adv-x="1995" 
d="M1751 0l-151 0.00195312c0 18 -17.667 51.667 -53 101s-79 102.666 -131 159.999s-105.5 104.833 -160.5 142.5s-113.833 68.5 -176.5 92.5s-109 37.667 -139 41v-373c0 -54 -21.5 -98.167 -64.5 -132.5s-95.167 -51.5 -156.5 -51.5c-60.667 0 -117.334 14 -170.001 42
s-97.5 70.167 -134.5 126.5s-55.5 121.5 -55.5 195.5c0 114.667 40.333 201.334 121 260.001s183.667 88 309 88v385c0 68 42.667 144.333 128 229c40 39.333 60 62.666 60 69.999c0 16 -11.5 36.5 -34.5 61.5s-41.5 37.5 -55.5 37.5c-30 0 -95.667 -45.333 -197 -136
c-114.667 112 -195 168 -241 168c-38 0 -78.833 -24.333 -122.5 -73s-68.5 -94 -74.5 -136c36 38.667 94.667 58 176 58c42.667 0 80.667 -8.83301 114 -26.5s62.333 -46.334 87 -86.001s37 -89.5 37 -149.5c0 -74.667 -25.5 -135.667 -76.5 -183s-115.833 -71 -194.5 -71
c-182.667 0 -274 117.667 -274 353c0 131.333 42.333 241.833 127 331.5s153 134.5 205 134.5c34 0 60 -7 78 -21l155 -122l156 118c22 16.667 41 25 57 25c20.667 0 66.834 -40.333 138.501 -121s107.5 -132 107.5 -154c0 -18 -25.333 -56.667 -76 -116l-102 -115
c-18 -22 -27 -54 -27 -96v-373c118.667 -22.667 239.167 -72.5 361.5 -149.5s228.5 -181.5 318.5 -313.5l-20 148v1269h151v-1638zM535 1106c0 84.667 -43.667 127 -131 127c-84.667 0 -127 -42.333 -127 -127c0 -87.333 42.333 -131 127 -131c87.333 0 131 43.667 131 131z
M789 225.002v316.001c-186 0 -279 -68.333 -279 -205c0 -54.667 20.167 -103.834 60.5 -147.501s88.5 -65.5 144.5 -65.5c49.333 0 74 34 74 102z" />
    <glyph glyph-name="uni0E07" unicode="&#xe07;" horiz-adv-x="1282" 
d="M1044 0h-151l-868 881l110 110l672 -688c8 -8.66699 23 -27.667 45 -57l35 -50l22 -32l-16 110v758c0 32.667 2.33301 57 7 73s17.334 42.333 38.001 79c-44 -46.667 -101.333 -70 -172 -70c-42.667 0 -82.334 10 -119.001 30s-68.334 50.333 -95.001 91
s-40 87.667 -40 141c0 55.333 12.333 104.333 37 147s57.167 76 97.5 100s86.833 36 139.5 36c66.667 0 126.334 -25.833 179.001 -77.5s79 -109.167 79 -172.5v-1409zM901 1380c0 84.667 -42.333 127 -127 127c-82 0 -123 -41 -123 -123c0 -84.667 42.333 -127 127 -127
c82 0 123 41 123 123z" />
    <glyph glyph-name="uni0E08" unicode="&#xe08;" horiz-adv-x="1565" 
d="M1327 0l-142.998 0.00292969l-238 688c-22 60.667 -37 99 -45 115c-35.333 -60 -99.333 -90 -192 -90c-51.333 0 -96 11.167 -134 33.5s-68.167 53.166 -90.5 92.499s-33.5 84.666 -33.5 135.999c0 42 9.66699 81.5 29 118.5s48.166 68.167 86.499 93.5
s82.833 38 133.5 38c140.667 0 233.667 -69.667 279 -209l176 -537l41 -147v741c0 72 -17.5 138.5 -52.5 199.5s-91.5 116 -169.5 165s-169.333 73.5 -274 73.5c-142.667 0 -252.667 -47.5 -330 -142.5s-116 -226.167 -116 -393.5v-127h-152v147
c0 132.667 25.167 248.667 75.5 348s118.166 176.166 203.499 230.499s186.333 81.5 303 81.5c185.333 0 338.833 -52.5 460.5 -157.5s182.5 -243.833 182.5 -416.5v-1081zM840.002 971.003c0 82 -41 123 -123 123s-123 -41 -123 -123c0 -84.667 41 -127 123 -127
s123 42.333 123 127z" />
    <glyph glyph-name="uni0E09" unicode="&#xe09;" horiz-adv-x="1659" 
d="M1073 258c-66.667 -52.667 -181.335 -138.67 -344.002 -258.003h-151v717c-123.333 26.667 -185 111.334 -185 254.001c0 49.333 12.167 93.833 36.5 133.5s56.333 71.667 96 96s84.167 36.5 133.5 36.5c74.667 0 137.834 -25 189.501 -75s77.5 -112.333 77.5 -187
c0 -132 -65.667 -218 -197 -258v-549c196.667 150 324.667 244.833 384 284.5s106 59.5 140 59.5v532c0 134 -47.833 244.667 -143.5 332s-212.834 131 -351.501 131c-84 0 -160.833 -19.167 -230.5 -57.5s-130 -99.5 -181 -183.5s-76.5 -185 -76.5 -303v-123h-155v123
c0 134.667 29.167 254.334 87.5 359.001s135 187 230 247s204.833 90 329.5 90c91.333 0 175.166 -14.333 251.499 -43s145.333 -72 207 -130s107.834 -123.5 138.501 -196.5s46 -153.167 46 -240.5v-549c117.333 -29.333 176 -112.666 176 -249.999
c0 -72.667 -24.333 -134.5 -73 -185.5s-109 -76.5 -181 -76.5c-47.333 0 -90.666 8.5 -129.999 25.5s-71.166 41.333 -95.499 73s-36.5 67.167 -36.5 106.5c0 31.333 2.66699 53 8 65zM785.999 974.997c0 84.667 -42.333 127 -127 127s-127 -42.333 -127 -127
s42.333 -127 127 -127s127 42.333 127 127zM1446 253.997c0 90 -45 135 -135 135c-84.667 0 -127 -42.333 -127 -127c0 -90 45 -135 135 -135c84.667 0 127 42.333 127 127z" />
    <glyph glyph-name="uni0E0A" unicode="&#xe0a;" horiz-adv-x="1565" 
d="M1390 1667l-261.998 -261.998l192 -139v-1266h-807v152h189v897c0 51.333 3.33301 89 10 113s25.667 54.333 57 91s74.333 77.667 129 123c-124.667 87.333 -244.667 131 -360 131c-130.667 0 -219.334 -30 -266.001 -90c25.333 11.333 48.333 17 69 17
c41.333 0 80 -9 116 -27s66 -47.833 90 -89.5s36 -90.834 36 -147.501c0 -72.667 -28.333 -134.334 -85 -185.001s-121.334 -76 -194.001 -76c-81.333 0 -144.833 25.333 -190.5 76s-68.5 126 -68.5 226c0 122.667 48 226 144 310s213.667 126 353 126
c151.333 0 303 -53.333 455 -160l286 282zM444.002 1188c0 84.667 -44 127 -132 127c-84 0 -126 -42.333 -126 -127c0 -87.333 42 -131 126 -131c88 0 132 43.667 132 131zM1169 152.002l-0.000976562 1044l-148 107c-45.333 -42 -81.166 -77.833 -107.499 -107.5
s-42.333 -52 -48 -67s-8.5 -44.5 -8.5 -88.5v-888h312z" />
    <glyph glyph-name="uni0E0B" unicode="&#xe0b;" horiz-adv-x="1565" 
d="M1397 1667l-261.999 -262.001l192 -172v-1233h-819v152h201v925c0 68.667 35.333 138.334 106 209.001l111 111c-65.333 62.667 -105 94 -119 94c-16.667 0 -82.334 -50.667 -197.001 -152c-114.667 112 -195 168 -241 168c-38.667 0 -74.167 -21 -106.5 -63
s-51.833 -86 -58.5 -132c52 29.333 96 44 132 44c74 0 134.167 -25 180.5 -75s69.5 -112.333 69.5 -187c0 -68.667 -24.333 -128.167 -73 -178.5s-106.667 -75.5 -174 -75.5c-179.333 0 -269 122.667 -269 368c0 103.333 30.5 204.333 91.5 303s134.167 148 219.5 148
c30 0 53.333 -7 70 -21l155 -131l156 127c20.667 16.667 39.667 25 57 25c16.667 0 83.667 -53.333 201 -160l270 270zM1176 151.999v1019l-152 132c-13.333 -12 -37 -34.667 -71 -68s-57.333 -63.666 -70 -90.999s-19 -56.333 -19 -87v-905h312zM459.001 1106
c0 84.667 -43.667 127 -131 127c-84.667 0 -127 -42.333 -127 -127c0 -87.333 42.333 -131 127 -131c87.333 0 131 43.667 131 131z" />
    <glyph glyph-name="uni0E0C" unicode="&#xe0c;" horiz-adv-x="2445" 
d="M2208 0h-152.001c-5.33301 39.333 -51.333 108.5 -138 207.5s-180.334 176.667 -281.001 233s-178 85.5 -232 87.5v-364c0 -122.667 -60 -184 -180 -184c-54.667 0 -103.667 15 -147 45s-80.166 73.167 -110.499 129.5s-45.5 117.5 -45.5 183.5c0 100 30 181.5 90 244.5
s140.333 96.833 241 101.5v512c0 101.333 -45.167 180.666 -135.5 237.999s-200.833 86 -331.5 86c-160 0 -300.333 -43.667 -421 -131c114.667 -29.333 223.667 -81.333 327 -156c-185.333 -80.667 -278 -184.334 -278 -311.001v-455c30 30 69 45 117 45
c54.667 0 102.5 -11.5 143.5 -34.5s72.667 -54 95 -93s33.5 -85.167 33.5 -138.5c0 -51.333 -12 -96.5 -36 -135.5s-57.167 -70.5 -99.5 -94.5s-90.166 -36 -143.499 -36c-77.333 0 -140.333 24.833 -189 74.5s-73 113.5 -73 191.5v708c0 110.667 68.333 201 205 271
c-70 45.333 -183.333 86.333 -340 123c57.333 90 151.166 164.333 281.499 223s257.833 88 382.5 88c133.333 0 246.833 -20.333 340.5 -61s162.667 -94 207 -160s66.5 -144 66.5 -234v-532c106 -13.333 221.833 -61.166 347.5 -143.499s226.834 -186.166 303.501 -311.499
v1421h152v-1638zM1262 225l-0.000976562 316c-131.333 -2.66699 -197 -69.667 -197 -201c0 -52.667 14.833 -102 44.5 -148s66.834 -69 111.501 -69c27.333 0 41 34 41 102zM658.998 250c0 82 -40.667 123 -122 123c-84.667 0 -127 -45 -127 -135
c0 -82 40.667 -123 122 -123c84.667 0 127 45 127 135z" />
    <glyph glyph-name="uni0E0D" unicode="&#xe0d;" horiz-adv-x="2490" 
d="M2253 0l-1004 0.00195312v1196c0 101.333 -45.167 180.666 -135.5 237.999s-200.833 86 -331.5 86c-159.333 0 -300 -43.667 -422 -131c108 -28 217.333 -80 328 -156c-104.667 -45.333 -178.667 -91 -222 -137s-65 -104 -65 -174v-463
c38.667 35.333 81.334 53 128.001 53c76 0 139.333 -25.167 190 -75.5s76 -113.833 76 -190.5c0 -52 -11.833 -97.5 -35.5 -136.5s-56.167 -70.333 -97.5 -94s-88.666 -35.5 -141.999 -35.5c-52 0 -97.5 11.333 -136.5 34s-69.667 53.667 -92 93s-33.5 85.666 -33.5 138.999
v708c0 132.667 68.333 223 205 271c-70 44.667 -183.333 85.667 -340 123c58 90 151.667 164.333 281 223s256.666 88 381.999 88c127.333 0 237.833 -19 331.5 -57s164.334 -90.167 212.001 -156.5s71.5 -146.833 71.5 -241.5v-1052h700v1486h152v-1638zM654.998 250.002
c0 82 -41.333 123 -124 123c-92 0 -138 -45 -138 -135c0 -82 41.667 -123 125 -123c91.333 0 137 45 137 135zM2216 -167.998c-38.667 -161.333 -117.17 -289.001 -235.503 -383.001s-258.166 -141 -419.499 -141c-73.333 0 -138.166 13.833 -194.499 41.5
s-99.5 64.5 -129.5 110.5s-45 100.333 -45 163c0 73.333 26.667 134 80 182s117 72 191 72s136 -26.667 186 -80s75 -115.666 75 -186.999c0 -76 -32.667 -135.667 -98 -179c86.667 6 176.834 55 270.501 147s148.167 189 163.5 291zM1593 -392.999c0 90 -45 135 -135 135
c-87.333 0 -131 -43.667 -131 -131c0 -90 45 -135 135 -135c87.333 0 131 43.667 131 131z" />
    <glyph glyph-name="uni0E0E" unicode="&#xe0e;" horiz-adv-x="1802" 
d="M1565 -590l-398.001 -401l-356 237c-36 24 -62 61 -78 111v-62c0 -73.333 -26.667 -138.666 -80 -195.999s-118.666 -86 -195.999 -86c-57.333 0 -107.833 12.667 -151.5 38s-78.167 59.5 -103.5 102.5s-38 93.167 -38 150.5c0 75.333 26.833 140.5 80.5 195.5
s118.167 82.5 193.5 82.5c88 0 152.333 -21.667 193 -65c-11.333 14 -19.666 27.833 -24.999 41.5s-8 27.167 -8 40.5v213h139v-340l410 -267l266 267v1724c0 102 -44.833 181.5 -134.5 238.5s-200.5 85.5 -332.5 85.5c-160.667 0 -301.334 -43.667 -422.001 -131
c111.333 -28.667 220.666 -80.667 327.999 -156c-64 -30 -117.167 -61.833 -159.5 -95.5s-69.333 -66.5 -81 -98.5s-17.5 -71 -17.5 -117v-672c0 -72 -25 -135 -75 -189s-111 -81 -183 -81c-53.333 0 -100.666 12 -141.999 36s-73.833 55.667 -97.5 95
s-35.5 84.333 -35.5 135c0 74.667 23 136 69 184s106.333 72 181 72c46 0 89.667 -10.667 131 -32v513c0 110.667 63 191.334 189 242.001c-70 44.667 -184.667 85.667 -344 123c58 90.667 151.833 165.167 281.5 223.5s258.167 87.5 385.5 87.5
c126.667 0 236.5 -18.833 329.5 -56.5s163.167 -89.834 210.5 -156.501s71 -147.334 71 -242.001v-1794zM458.999 238c0 95.333 -46.333 143 -139 143c-79.333 0 -119 -42.333 -119 -127c0 -95.333 44.333 -143 133 -143c83.333 0 125 42.333 125 127zM597.999 -700
c0 98 -50.667 147 -152 147c-34 0 -64.333 -14 -91 -42s-40 -60.333 -40 -97c0 -98.667 47 -148 141 -148c22.667 0 44.5 5.66699 65.5 17s39 28 54 50s22.5 46.333 22.5 73z" />
    <glyph glyph-name="uni0E0F" unicode="&#xe0f;" horiz-adv-x="1802" 
d="M1565 -688l-294.997 -302.998l-185 184l-180 -184c-36 36.667 -87.667 92.667 -155 168c-12 19.333 -21.667 41 -29 65c-10.667 -66 -39.334 -120.667 -86.001 -164s-98.667 -65 -156 -65c-62.667 0 -117.667 12.833 -165 38.5s-84.166 59.667 -110.499 102
s-39.5 92.5 -39.5 150.5c0 75.333 26.833 140.5 80.5 195.5s118.167 82.5 193.5 82.5c77.333 0 141.666 -23 192.999 -69c-12.667 16.667 -21.334 34 -26.001 52s-7 29.333 -7 34v213h139v-402l168 -205l180 177l177 -177l151 160v1831c0 102 -44.833 181.5 -134.5 238.5
s-200.5 85.5 -332.5 85.5c-160.667 0 -301.334 -43.667 -422.001 -131c111.333 -28.667 220.666 -80.667 327.999 -156c-64 -30 -117.167 -61.833 -159.5 -95.5s-69.333 -66.5 -81 -98.5s-17.5 -71 -17.5 -117v-672c0 -72 -25 -135 -75 -189s-111 -81 -183 -81
c-53.333 0 -100.666 12 -141.999 36s-73.833 55.667 -97.5 95s-35.5 84.333 -35.5 135c0 74.667 23 136 69 184s106.333 72 181 72c46 0 89.667 -10.667 131 -32v513c0 113.333 63 194 189 242c-70 44.667 -184.667 85.667 -344 123c58 90.667 151.833 165.167 281.5 223.5
s258.167 87.5 385.5 87.5c126.667 0 236.5 -18.833 329.5 -56.5s163.167 -89.834 210.5 -156.501s71 -147.334 71 -242.001v-1892zM459.003 238.002c0 95.333 -46.333 143 -139 143c-79.333 0 -119 -42.333 -119 -127c0 -95.333 44.333 -143 133 -143
c83.333 0 125 42.333 125 127zM598.003 -699.998c0 98 -50.665 147.001 -151.998 147.001c-24.667 0 -46.834 -6.33301 -66.501 -19s-35.334 -29.334 -47.001 -50.001s-17.5 -44 -17.5 -70c0 -98.667 50.667 -148 152 -148c87.333 0 131 46.667 131 140z" />
    <glyph glyph-name="uni0E10" unicode="&#xe10;" horiz-adv-x="1565" 
d="M1413 1716c-18.667 -155.333 -36.165 -246.667 -52.498 -274s-46.5 -41 -90.5 -41c-26 0 -107.333 16.333 -244 49c-133.333 32.667 -224.333 49 -273 49c-212.667 0 -350.334 -77.667 -413.001 -233c76 40.667 185.333 61 328 61c168 0 317.833 -22 449.5 -66
s197.5 -106.667 197.5 -188l-168 -1073h-143l-181 516c-4 21.333 -8 44.666 -12 69.999c0 8.66699 1.33301 36 4 82c-46.667 -93.333 -123.334 -140 -230.001 -140c-41.333 0 -80 10.167 -116 30.5s-67.833 52.333 -95.5 96s-41.5 94.5 -41.5 152.5
c0 73.333 25.333 136 76 188s113.334 78 188.001 78c128.667 0 214 -64 256 -192l168 -516l33 -177h12l12 271l86 590c0 44 -63.167 78.167 -189.5 102.5s-252.833 36.5 -379.5 36.5c-138.667 0 -272.334 -12.333 -401.001 -37l4 41c12 122.667 67.5 228.334 166.5 317.001
s233.167 133 402.5 133c104 0 223.667 -18 359 -54c58 -15.333 96.667 -23 116 -23c8 2 17.667 59.333 29 172zM725.002 798.999c0 84.667 -42.333 127 -127 127c-34 0 -63.667 -12.333 -89 -37s-38 -54.667 -38 -90c0 -84.667 42.333 -127 127 -127s127 42.333 127 127z
M1311 -758.001l-283.001 -286l-180 180l-176 -180l-131 147c-22.667 25.333 -39 59.333 -49 102c-16 -163.333 -107.667 -245 -275 -245c-78.667 0 -142 26.5 -190 79.5s-72 123.167 -72 210.5c0 46 10.167 88.5 30.5 127.5s51.333 72 93 99s90.5 40.5 146.5 40.5
c70.667 0 128 -19.333 172 -58c-9.33301 18 -17 34.5 -23 49.5s-9 27.5 -9 37.5v290h143v-479l164 -209l176 176l176 -176l147 152v61c6 28.667 15.667 52 29 70c-41.333 -44 -98.666 -66 -171.999 -66c-166.667 0 -250 86 -250 258c0 75.333 26.167 137.833 78.5 187.5
s116.5 74.5 192.5 74.5c78 0 141.167 -24.667 189.5 -74s72.5 -116 72.5 -200v-369zM1176 -377.001c0 82 -44 123 -132 123c-87.333 0 -131 -45 -131 -135c0 -82 45.667 -123 137 -123c84 0 126 45 126 135zM360.001 -766.001c0 92.667 -46.333 139 -139 139
c-84.667 0 -127 -42.333 -127 -127c0 -92.667 43.333 -139 130 -139c90.667 0 136 42.333 136 127z" />
    <glyph glyph-name="uni0E11" unicode="&#xe11;" horiz-adv-x="2064" 
d="M1822 0l-151.998 -0.000976562v1233c0 169.333 -68.333 254 -205 254h-24l-549 -1487h-139v1077c0 74 42.667 151 128 231c37.333 34.667 56 57.334 56 68.001c0 14 -10.667 34 -32 60s-40.666 39 -57.999 39c-26.667 0 -90.667 -45.333 -192 -136
c-114.667 112 -195.334 168 -242.001 168c-38 0 -78.167 -23.667 -120.5 -71s-67.833 -93.333 -76.5 -138c38.667 38.667 95 58 169 58c70.667 0 129.167 -25 175.5 -75s69.5 -112.333 69.5 -187c0 -52 -11.5 -97 -34.5 -135s-54.333 -67.333 -94 -88
s-86.834 -31 -141.501 -31c-91.333 0 -160 32.5 -206 97.5s-69 147.5 -69 247.5c0 138 42.667 251.5 128 340.5s154.666 133.5 207.999 133.5c28 0 51.333 -7 70 -21l159 -122l156 118c22 16.667 41 25 57 25c12 0 35.167 -15.833 69.5 -47.5s72.333 -72.667 114 -123
s62.5 -85.166 62.5 -104.499c0 -10.667 -58 -85.334 -174 -224.001c-20.667 -24.667 -31 -59 -31 -103v-631l115 328l319 884h103c254 0 381 -137.667 381 -413v-1225zM499.002 1106c0 84.667 -43.667 127 -131 127c-84.667 0 -127 -42.333 -127 -127
c0 -87.333 42.333 -131 127 -131c87.333 0 131 43.667 131 131z" />
    <glyph glyph-name="uni0E12" unicode="&#xe12;" horiz-adv-x="2515" 
d="M2277 0l-151 0.000976562c-10 42.667 -56.833 111.667 -140.5 207s-176.667 172 -279 230s-178.166 89.667 -227.499 95v-368c0 -122.667 -61.667 -184 -185 -184c-92 0 -165.5 33.167 -220.5 99.5s-82.5 154.5 -82.5 264.5c0 66 13.333 123.5 40 172.5
s65.167 88.333 115.5 118s110.5 46.167 180.5 49.5v500c0 204.667 -57 307 -171 307c-43.333 0 -77.666 -9.66699 -102.999 -29l-172 -131l-172 131c-28.667 22 -69.334 33 -122.001 33c-128.667 0 -193 -103.667 -193 -311v-987l343 409c13.333 16 32.5 34.5 57.5 55.5
s42.5 34.167 52.5 39.5c-44.667 0 -86.5 9.83301 -125.5 29.5s-72 48.667 -99 87s-40.5 81.166 -40.5 128.499c0 48.667 10 92.834 30 132.501s50.167 71.834 90.5 96.501s88.833 37 145.5 37c53.333 0 100.166 -11.333 140.499 -34s72 -52.834 95 -90.501
s34.5 -81.834 34.5 -132.501c0 -69.333 -30 -139.333 -90 -210l-630 -745h-156v1270c0 63.333 14 123.5 42 180.5s66.5 102.5 115.5 136.5s104.5 51 166.5 51c95.333 0 164.666 -18 207.999 -54c23.333 -16 59 -45.667 107 -89c32 29.333 70 59 114 89
c46 36 114.667 54 206 54c55.333 0 103.333 -13.833 144 -41.5s73.167 -67 97.5 -118s36.5 -109.5 36.5 -175.5v-631c81.333 0 190.833 -42.833 328.5 -128.5s243.834 -187.5 318.501 -305.5v1400h151v-1638zM983 954.001c0 93.333 -46.333 140 -139 140
c-84.667 0 -127 -42.333 -127 -127c0 -98.667 46.333 -148 139 -148c84.667 0 127 45 127 135zM1327 225.001v316.001c-125.333 -2.66699 -188 -68.334 -188 -197.001c0 -147.333 50.333 -221 151 -221c24.667 0 37 34 37 102z" />
    <glyph glyph-name="uni0E13" unicode="&#xe13;" horiz-adv-x="2490" 
d="M1851 381l-71.001 -61.9961l-183 -136c-88.667 -66 -158 -127 -208 -183h-140v1196c0 101.333 -45.167 180.666 -135.5 237.999s-200.833 86 -331.5 86c-159.333 0 -300 -43.667 -422 -131c108 -28 217.333 -80 328 -156c-64.667 -28 -118.334 -59 -161.001 -93
s-71.5 -67.667 -86.5 -101s-22.5 -72.333 -22.5 -117v-455c30 27.333 67.667 41 113 41c52 0 97.667 -11.5 137 -34.5s70.333 -53.833 93 -92.5s34 -83.667 34 -135c0 -52 -11.833 -97.5 -35.5 -136.5s-56.167 -70.333 -97.5 -94s-88.666 -35.5 -141.999 -35.5
c-75.333 0 -135.833 24.333 -181.5 73s-68.5 113 -68.5 193v741c0 113.333 64.333 192.666 193 237.999c-70 44.667 -183.333 85.667 -340 123c58 90 151.667 164.333 281 223s256.666 88 381.999 88c127.333 0 237.833 -19 331.5 -57s164.334 -90.167 212.001 -156.5
s71.5 -146.833 71.5 -241.5v-1007c104.667 107.333 222.834 199.666 354.501 276.999s241.5 116 329.5 116v1048h151v-1069c126 -50.667 189 -144.667 189 -282c0 -64 -13 -118.833 -39 -164.5s-61.5 -80.834 -106.5 -105.501s-98.833 -37 -161.5 -37
c-199.333 0 -299 101 -299 303c0 9.33301 10.667 42 32 98zM2294 283.004c0 117.333 -58.667 176 -176 176c-114.667 0 -172 -56 -172 -168c0 -117.333 58.667 -176 176 -176c114.667 0 172 56 172 168zM654.999 250.004c0 84.667 -42.333 127 -127 127s-127 -45 -127 -135
c0 -84.667 41.333 -127 124 -127c86.667 0 130 45 130 135z" />
    <glyph glyph-name="uni0E14" unicode="&#xe14;" horiz-adv-x="1708" 
d="M1470 0l-151.002 0.00195312v1065c0 87.333 -21 164.666 -63 231.999s-97.5 120.666 -166.5 159.999s-148.167 59 -237.5 59c-90 0 -168.833 -23.333 -236.5 -70s-122.334 -110 -164.001 -190s-62.5 -169.667 -62.5 -269v-758l356 447c14 17.333 42 42.666 84 75.999
l23 18c-169.333 0 -254 82 -254 246c0 49.333 12.333 94.333 37 135s56.834 73.334 96.501 98.001s83.834 37 132.501 37c52 0 98.333 -11.833 139 -35.5s72.834 -54.667 96.501 -93s35.5 -81.833 35.5 -130.5c0 -70 -30.333 -142 -91 -216l-667 -811h-144v987
c0 189.333 58.833 348.666 176.5 477.999s266.5 194 446.5 194c120 0 225.833 -25.5 317.5 -76.5s164 -119.667 217 -206s79.5 -186.166 79.5 -299.499v-1077zM994.998 1008c0 90 -46.333 135 -139 135c-82 0 -123 -41 -123 -123c0 -90 46.333 -135 139 -135
c82 0 123 41 123 123z" />
    <glyph glyph-name="uni0E15" unicode="&#xe15;" horiz-adv-x="1708" 
d="M1470 0l-151.996 -0.00195312v1184c0 204.667 -57 307 -171 307c-43.333 0 -77.666 -9.66699 -102.999 -29l-172 -131l-172 131c-28.667 22 -69.334 33 -122.001 33c-128.667 0 -193 -103.667 -193 -311v-987l343 409c7.33301 8.66699 26 27.334 56 56.001
c12.667 10.667 30.667 23.667 54 39c-72 0 -134.167 24.5 -186.5 73.5s-78.5 106.167 -78.5 171.5c0 78 24.333 141.833 73 191.5s113 74.5 193 74.5c77.333 0 141.666 -24 192.999 -72s77 -109.667 77 -185c0 -69.333 -30 -139.333 -90 -210l-630 -745h-156v1270
c0 97.333 31.167 183 93.5 257s139.166 111 230.499 111c95.333 0 164.666 -18 207.999 -54c23.333 -16 59 -45.667 107 -89c32 29.333 70 59 114 89c46 36 114.667 54 206 54c48 0 91.167 -10.833 129.5 -32.5s72.666 -58.167 102.999 -109.5s45.5 -115.666 45.5 -192.999
v-1303zM974.004 953.998c0 93.333 -46.333 140 -139 140c-84.667 0 -127 -42.333 -127 -127c0 -98.667 46.333 -148 139 -148c84.667 0 127 45 127 135z" />
    <glyph glyph-name="uni0E16" unicode="&#xe16;" horiz-adv-x="1638" 
d="M1401 0l-152 0.000976562v1196c0 101.333 -45.167 180.666 -135.5 237.999s-200.833 86 -331.5 86c-159.333 0 -300 -43.667 -422 -131c108 -28 217.333 -80 328 -156c-64.667 -28 -118.334 -59.167 -161.001 -93.5s-72.167 -68.666 -88.5 -102.999
s-24.5 -73.833 -24.5 -118.5v-463c20.667 30 63 45 127 45c48.667 0 92 -11.5 130 -34.5s68.167 -53.333 90.5 -91s33.5 -80.5 33.5 -128.5c0 -52 -11.833 -97.5 -35.5 -136.5s-56.167 -70.333 -97.5 -94s-88.666 -35.5 -141.999 -35.5c-76.667 0 -137.5 24.333 -182.5 73
s-67.5 111.667 -67.5 189v745c0 113.333 64.333 192.666 193 237.999c-70 44.667 -183.333 85.667 -340 123c58 90 151.667 164.333 281 223s256.666 88 381.999 88c127.333 0 237.833 -19 331.5 -57s164.334 -90.167 212.001 -156.5s71.5 -146.833 71.5 -241.5v-1204z
M659 242.001c0 82 -44.333 123 -133 123c-86 0 -129 -44 -129 -132c0 -81.333 41.667 -122 125 -122c91.333 0 137 43.667 137 131z" />
    <glyph glyph-name="uni0E17" unicode="&#xe17;" horiz-adv-x="1757" 
d="M1520 0l-152.001 0.00195312v1233c0 169.333 -68.333 254 -205 254h-24l-541 -1487h-139v1118c0 3.33301 0.666992 10.666 2 21.999c1.33301 9.33301 2 18.333 2 27c-32 -30 -71.333 -45 -118 -45c-47.333 0 -90 9.5 -128 28.5s-70.667 49.167 -98 90.5
s-41 90.666 -41 147.999c0 46 10.333 88.667 31 128s52.334 72.833 95.001 100.5s92 41.5 148 41.5c78 0 141.167 -25.5 189.5 -76.5s72.5 -115.5 72.5 -193.5v-988l41 163l62 194l315 880h107c254 0 381 -137.667 381 -413v-1225zM482.999 1397c0 82 -42.333 123 -127 123
c-90 0 -135 -45.333 -135 -136c0 -81.333 41.667 -122 125 -122c91.333 0 137 45 137 135z" />
    <glyph glyph-name="uni0E18" unicode="&#xe18;" horiz-adv-x="1470" 
d="M1343 1384l-118 -81c-94 142 -237.667 213 -431 213c-112 0 -215 -33.833 -309 -101.5s-161.667 -152.5 -203 -254.5c12.667 6 27.667 11.5 45 16.5s35.333 7.5 54 7.5h496c204.667 0 307 -94.333 307 -283v-901h-951v152h193v892h-303l4 37
c17.333 160.667 94.5 297.167 231.5 409.5s289.167 168.5 456.5 168.5c235.333 0 411.333 -91.667 528 -275zM1032 152v733.001c0 57.333 -13.333 98.166 -40 122.499s-59.667 36.5 -99 36.5h-315v-892h454z" />
    <glyph glyph-name="uni0E19" unicode="&#xe19;" horiz-adv-x="1757" 
d="M1146 411c-26 0 -83.334 -27.999 -172.001 -83.999s-163.167 -112.167 -223.5 -168.5s-108.5 -109.166 -144.5 -158.499h-151v1151c-24.667 -19.333 -60 -29 -106 -29c-48.667 0 -92 9.33301 -130 28s-71 48.5 -99 89.5s-42 90.833 -42 149.5c0 46 10.333 88.667 31 128
s52.334 72.833 95.001 100.5s92 41.5 148 41.5c52 0 97 -11 135 -33s68 -53.333 90 -94s33 -88.334 33 -143.001v-1172c104 100.667 205.167 179.167 303.5 235.5s190 94.666 275 114.999s144.833 30.5 179.5 30.5v1040h152v-1069c125.333 -50.667 188 -144.667 188 -282
c0 -204.667 -102.333 -307 -307 -307c-59.333 0 -111.333 13.167 -156 39.5s-79.667 61.833 -105 106.5s-38 97 -38 157c0 48 14.667 90.667 44 128zM482.999 1397c0 82 -40.667 123 -122 123c-93.333 0 -140 -45.333 -140 -136c0 -81.333 41 -122 123 -122
c92.667 0 139 45 139 135zM1577 283.001c0 117.333 -58.667 176 -176 176c-114.667 0 -172 -56 -172 -168c0 -117.333 58.667 -176 176 -176c114.667 0 172 56 172 168z" />
    <glyph glyph-name="uni0E1A" unicode="&#xe1a;" horiz-adv-x="1827" 
d="M1589 0l-1310 -0.000976562v152h188v1007c-26.667 -22 -69 -33 -127 -33c-74.667 0 -136.334 25 -185.001 75s-73 112.667 -73 188c0 46 10.5 88.5 31.5 127.5s53 72.5 96 100.5s93.167 42 150.5 42c52 0 96.833 -11.167 134.5 -33.5s67.667 -53.666 90 -93.999
s33.5 -87.833 33.5 -142.5v-1237h820v1486h151v-1638zM487.001 1397c0 82 -40.667 123 -122 123c-93.333 0 -140 -45.333 -140 -136c0 -81.333 41 -122 123 -122c92.667 0 139 45 139 135z" />
    <glyph glyph-name="uni0E1B" unicode="&#xe1b;" horiz-adv-x="1827" 
d="M1589 0l-1310 -0.000976562v152h188v1007c-26.667 -22 -69 -33 -127 -33c-74.667 0 -136.334 25 -185.001 75s-73 112.667 -73 188c0 46 10.5 88.5 31.5 127.5s53 72.5 96 100.5s93.167 42 150.5 42c52 0 96.833 -11.167 134.5 -33.5s67.667 -53.666 90 -93.999
s33.5 -87.833 33.5 -142.5v-1237h820v2363h151v-2515zM487.001 1397c0 82 -40.667 123 -122 123c-93.333 0 -140 -45.333 -140 -136c0 -81.333 41 -122 123 -122c92.667 0 139 45 139 135z" />
    <glyph glyph-name="uni0E1C" unicode="&#xe1c;" horiz-adv-x="1659" 
d="M1421 0l-138.998 -0.000976562l-446 545l-447 -545h-143v1389c0 52.667 11.667 99.334 35 140.001s54.166 72.5 92.499 95.5s83.166 34.5 134.499 34.5c76 0 140.667 -26 194 -78s80 -116 80 -192c0 -52.667 -11.333 -99 -34 -139s-53 -71.333 -91 -94
s-82.333 -34 -133 -34s-93 15 -127 45v-925l373 458h131l369 -446v1384h151v-1638zM639.002 1384c0 90.667 -46.333 136 -139 136c-82 0 -123 -41 -123 -123c0 -90 43.333 -135 130 -135c88 0 132 40.667 132 122z" />
    <glyph glyph-name="uni0E1D" unicode="&#xe1d;" horiz-adv-x="1659" 
d="M1421 0l-138.998 -0.000976562l-446 545l-447 -545h-143v1389c0 52.667 11.667 99.334 35 140.001s54.166 72.5 92.499 95.5s83.166 34.5 134.499 34.5c76 0 140.667 -26 194 -78s80 -116 80 -192c0 -52.667 -11.333 -99 -34 -139s-53 -71.333 -91 -94
s-82.333 -34 -133 -34s-93 15 -127 45v-925l373 458h131l369 -446v2261h151v-2515zM639.002 1384c0 90.667 -46.333 136 -139 136c-82 0 -123 -41 -123 -123c0 -90 43.333 -135 130 -135c88 0 132 40.667 132 122z" />
    <glyph glyph-name="uni0E1E" unicode="&#xe1e;" horiz-adv-x="1896" 
d="M1659 0l-152.001 -0.00195312l-401 1257l-49 213l-45 -213l-406 -1257h-151v1159c-30 -24.667 -71 -37 -123 -37c-72 0 -132.333 26.333 -181 79s-73 115.334 -73 188.001c0 46 10.333 88.667 31 128s52.334 72.833 95.001 100.5s92 41.5 148 41.5
c78.667 0 140.667 -25.167 186 -75.5s68 -115.166 68 -194.499v-950l82 270l299 929h143l327 -1005l50 -207v1212h152v-1638zM482.999 1397c0 82 -40.333 123 -121 123c-94 0 -141 -45.333 -141 -136c0 -81.333 40.667 -122 122 -122c93.333 0 140 45 140 135z" />
    <glyph glyph-name="uni0E1F" unicode="&#xe1f;" horiz-adv-x="1896" 
d="M1659 0l-152.001 -0.00195312l-401 1257l-49 213l-45 -213l-406 -1257h-151v1159c-30 -24.667 -71 -37 -123 -37c-72 0 -132.333 26.333 -181 79s-73 115.334 -73 188.001c0 46 10.333 88.667 31 128s52.334 72.833 95.001 100.5s92 41.5 148 41.5
c78.667 0 140.667 -25.167 186 -75.5s68 -115.166 68 -194.499v-950l82 270l299 929h143l327 -1005l50 -207v2089h152v-2515zM482.999 1397c0 82 -40.333 123 -121 123c-94 0 -141 -45.333 -141 -136c0 -81.333 40.667 -122 122 -122c93.333 0 140 45 140 135z" />
    <glyph glyph-name="uni0E20" unicode="&#xe20;" horiz-adv-x="1802" 
d="M1565 0l-151.999 0.000976562v1196c0 102 -44.833 181.5 -134.5 238.5s-200.5 85.5 -332.5 85.5c-160.667 0 -301.334 -43.667 -422.001 -131c111.333 -28.667 220.666 -80.667 327.999 -156c-64 -30 -117.167 -61.833 -159.5 -95.5s-69.333 -66.5 -81 -98.5
s-17.5 -71 -17.5 -117v-672c0 -72 -25 -135 -75 -189s-111 -81 -183 -81c-53.333 0 -100.666 12 -141.999 36s-73.833 55.667 -97.5 95s-35.5 84.333 -35.5 135c0 74.667 23 136 69 184s106.333 72 181 72c46 0 89.667 -10.667 131 -32v513
c0 110.667 63 191.334 189 242.001c-70 44.667 -184.667 85.667 -344 123c58 90.667 151.833 165.167 281.5 223.5s258.167 87.5 385.5 87.5c126.667 0 236.5 -18.833 329.5 -56.5s163.167 -89.834 210.5 -156.501s71 -147.334 71 -242.001v-1204zM459.001 238.001
c0 95.333 -46.333 143 -139 143c-79.333 0 -119 -42.333 -119 -127c0 -95.333 44.333 -143 133 -143c83.333 0 125 42.333 125 127z" />
    <glyph glyph-name="uni0E21" unicode="&#xe21;" horiz-adv-x="1778" 
d="M1540 0l-150.998 -0.00390625c0 13.333 -22 42.5 -66 87.5s-99 93.667 -165 146s-147 103.833 -243 154.5s-179.667 78.334 -251 83.001v-307c0 -122.667 -60.333 -184 -181 -184c-60.667 0 -115.334 15 -164.001 45s-88 69.333 -118 118s-45 103.334 -45 164.001
c0 101.333 32.667 180.666 98 237.999s152.666 86 261.999 86v524c-14 -22 -52.667 -33 -116 -33c-81.333 0 -146.5 25.833 -195.5 77.5s-73.5 114.834 -73.5 189.501c0 76.667 26.667 140.834 80 192.501s118.333 77.5 195 77.5c77.333 0 140.333 -25.167 189 -75.5
s73 -115.166 73 -194.499v-771c90.667 0 213.5 -42.5 368.5 -127.5s272.5 -180.167 352.5 -285.5v1433h151v-1638zM537.002 1397c0 82 -42 123 -126 123c-91.333 0 -137 -45.333 -137 -136c0 -81.333 42 -122 126 -122c91.333 0 137 45 137 135zM520.002 224.996v254
c-142 0 -213 -57.333 -213 -172c0 -44.667 17.5 -86.5 52.5 -125.5s74.833 -58.5 119.5 -58.5c27.333 0 41 34 41 102z" />
    <glyph glyph-name="uni0E22" unicode="&#xe22;" horiz-adv-x="1638" 
d="M1397 0h-1094v557c0 140.667 38.333 226.667 115 258c-186 61.333 -279 192.333 -279 393c0 52.667 7.83301 102.667 23.5 150s41.334 95 77.001 143s79.834 86.333 132.501 115s111.667 43 177 43c88.667 0 159.334 -25.167 212.001 -75.5s79 -115.166 79 -194.499
c0 -52 -11.5 -98 -34.5 -138s-53.5 -71.5 -91.5 -94.5s-82 -34.5 -132 -34.5c-164 0 -246 76.667 -246 230c0 7.33301 1.33301 23.666 4 48.999c-35.333 -35.333 -53 -96.333 -53 -183c0 -88 29 -162.833 87 -224.5s128.667 -92.5 212 -92.5h237v-143h-213
c-103.333 0 -155 -60 -155 -180v-426h790v1486h152v-1638zM695.997 1384c0 90.667 -45.333 136 -136 136c-84 0 -126 -41 -126 -123c0 -90 45.667 -135 137 -135c83.333 0 125 40.667 125 122z" />
    <glyph glyph-name="uni0E23" unicode="&#xe23;" horiz-adv-x="1233" 
d="M1167 1114l-143.001 -0.000976562v33c0 72 -16.167 136 -48.5 192s-75 100.167 -128 132.5s-114.167 48.5 -183.5 48.5c-221.333 0 -345.666 -106.667 -372.999 -320c51.333 16.667 89.333 25 114 25h447v-1000c0 -66.667 -25.5 -124.167 -76.5 -172.5
s-110.167 -72.5 -177.5 -72.5c-186 0 -279 92.667 -279 278c0 50 11.5 94.667 34.5 134s53.667 70.5 92 93.5s82.5 34.5 132.5 34.5c45.333 0 86 -12.333 122 -37v598h-548v82c0 140 49.667 257.667 149 353s220.333 143 363 143c98 0 184.5 -21.5 259.5 -64.5
s134.333 -100.167 178 -171.5s65.5 -153.666 65.5 -246.999v-62zM708.999 253.999c0 82 -41 123 -123 123c-84.667 0 -127 -42.333 -127 -127c0 -82 41 -123 123 -123c84.667 0 127 42.333 127 127z" />
    <glyph glyph-name="uni0E24" unicode="&#xe24;" horiz-adv-x="1638" 
d="M1401 -995l-152.004 0.00195312v2191c0 101.333 -45.167 180.666 -135.5 237.999s-200.833 86 -331.5 86c-159.333 0 -300 -43.667 -422 -131c108 -28 217.333 -80 328 -156c-64.667 -28 -118.334 -59 -161.001 -93s-71.5 -67.667 -86.5 -101s-22.5 -72.333 -22.5 -117
v-439c23.333 22 57.333 33 102 33c48.667 0 93.334 -10.167 134.001 -30.5s74.334 -51 101.001 -92s40 -90.167 40 -147.5c0 -52 -11.833 -97.5 -35.5 -136.5s-56.167 -70.333 -97.5 -94s-88.666 -35.5 -141.999 -35.5c-45.333 0 -86.166 9 -122.499 27
s-66.666 46.667 -90.999 86s-36.5 89 -36.5 149v745c0 113.333 64.333 192.666 193 237.999c-70 44.667 -183.333 85.667 -340 123c58 90 151.667 164.333 281 223s256.666 88 381.999 88c127.333 0 237.833 -19 331.5 -57s164.334 -90.167 212.001 -156.5
s71.5 -146.833 71.5 -241.5v-2199zM654.996 250.002c0 82 -41.333 123 -124 123c-92 0 -138 -45 -138 -135c0 -82 43 -123 129 -123c88.667 0 133 45 133 135z" />
    <glyph glyph-name="uni0E25" unicode="&#xe25;" horiz-adv-x="1659" 
d="M1421 0l-150.998 0.000976562c0 126.667 -60.667 320 -182 580s-220.333 428.333 -297 505c-49.333 -46 -115.833 -133 -199.5 -261s-143.834 -250.333 -180.501 -367c44 36.667 87.333 55 130 55c77.333 0 142.333 -25.167 195 -75.5s79 -113.833 79 -190.5
c0 -76 -26.5 -139.333 -79.5 -190s-117.833 -76 -194.5 -76c-82 0 -149 29.5 -201 88.5s-78 130.5 -78 214.5c0 83.333 9.66699 163.833 29 241.5s48.666 155 87.999 232s99 167.833 179 272.5s159 191.667 237 261c90 -68 186 -197.5 288 -388.5
s179.333 -387.833 232 -590.5l8 4l-53 443v307c0 126.667 -44.833 233.5 -134.5 320.5s-199.167 130.5 -328.5 130.5c-96 0 -180.833 -23 -254.5 -69s-133 -108.667 -178 -188s-67.5 -170 -67.5 -272v-110h-151v110c0 133.333 28.167 250 84.5 350s133 178.667 230 236
s210.5 86 340.5 86c84 0 161.833 -13.833 233.5 -41.5s137.5 -69.834 197.5 -126.501s104.833 -119.5 134.5 -188.5s44.5 -144.167 44.5 -225.5v-1077zM672.002 250.001c0 82 -43.667 123 -131 123s-131 -45 -131 -135c0 -82 42.333 -123 127 -123c90 0 135 45 135 135z" />
    <glyph glyph-name="uni0E26" unicode="&#xe26;" horiz-adv-x="1802" 
d="M1565 -995l-151.999 0.000976562v2191c0 102 -44.833 181.5 -134.5 238.5s-200.5 85.5 -332.5 85.5c-160.667 0 -301.334 -43.667 -422.001 -131c111.333 -28.667 220.666 -80.667 327.999 -156c-64 -30 -117.167 -61.833 -159.5 -95.5s-69.333 -66.5 -81 -98.5
s-17.5 -71 -17.5 -117v-672c0 -72 -25 -135 -75 -189s-111 -81 -183 -81c-53.333 0 -100.666 12 -141.999 36s-73.833 55.667 -97.5 95s-35.5 84.333 -35.5 135c0 74.667 23 136 69 184s106.333 72 181 72c46 0 89.667 -10.667 131 -32v513
c0 110.667 63 191.334 189 242.001c-70 44.667 -184.667 85.667 -344 123c58 90.667 151.833 165.167 281.5 223.5s258.167 87.5 385.5 87.5c126.667 0 236.5 -18.833 329.5 -56.5s163.167 -89.834 210.5 -156.501s71 -147.334 71 -242.001v-2199zM459.001 238.001
c0 95.333 -46.333 143 -139 143c-79.333 0 -119 -42.333 -119 -127c0 -95.333 44.333 -143 133 -143c83.333 0 125 42.333 125 127z" />
    <glyph glyph-name="uni0E27" unicode="&#xe27;" horiz-adv-x="1421" 
d="M1032 483v663.998c0 70 -15.833 131.5 -47.5 184.5s-75.167 95.5 -130.5 127.5s-118.666 48 -189.999 48c-114 0 -209.5 -39.167 -286.5 -117.5s-115.5 -174.166 -115.5 -287.499v-238h-151v250c0 152.667 53.667 281.667 161 387s238 158 392 158
c142 0 264.167 -47.667 366.5 -143s153.5 -213 153.5 -353v-938c0 -45.333 -11.5 -86 -34.5 -122s-53.667 -65.5 -92 -88.5s-80.833 -34.5 -127.5 -34.5c-183.333 0 -275 92.667 -275 278c0 50 11.667 94.833 35 134.5s53.666 70.834 90.999 93.501s80 34 128 34
c51.333 0 92.333 -12.333 123 -37zM1040 257.998c0 79.333 -39.333 119 -118 119c-84.667 0 -127 -43.667 -127 -131c0 -79.333 39.333 -119 118 -119c84.667 0 127 43.667 127 131z" />
    <glyph glyph-name="uni0E28" unicode="&#xe28;" horiz-adv-x="1708" 
d="M1298 1475c56.667 -38.667 99.501 -95.333 128.501 -170s43.5 -150.667 43.5 -228v-1077h-151v1065c0 140.667 -35.667 239 -107 295c-11.333 -8.66699 -34.333 -36 -69 -82c-6 -8 -32 -35.333 -78 -82c49.333 -46.667 74 -104.667 74 -174
c0 -78 -26.5 -141.5 -79.5 -190.5s-118.833 -73.5 -197.5 -73.5c-86.667 0 -150 28.667 -190 86l-25 -66l-258 -778h-156v987c0 84.667 11.333 163 34 235s59.667 142.167 111 210.5s117.5 123.166 198.5 164.499s174.167 62 279.5 62c135.333 0 247.333 -30 336 -90
c40 54.667 89 151.667 147 291l137 -64c0.666992 -6 -17 -42.667 -53 -110c-54.667 -103.333 -96.334 -173.666 -125.001 -210.999zM1106 1450c-46.667 44 -131.333 65.998 -254 65.998c-91.333 0 -171.833 -23.667 -241.5 -71s-126 -112.166 -169 -194.499
s-64.5 -174.166 -64.5 -275.499v-627l74 258l131 418c54.667 174.667 151.334 262 290.001 262c25.333 0 52.666 -5.33301 81.999 -16c45.333 46 96 106 152 180zM995.002 1012c0 90 -45 135 -135 135c-82 0 -123 -42.333 -123 -127c0 -90 45 -135 135 -135
c82 0 123 42.333 123 127z" />
    <glyph glyph-name="uni0E29" unicode="&#xe29;" horiz-adv-x="1946" 
d="M1962 1171c-138 -164.667 -262.333 -273.666 -373 -326.999v-844h-1310v152h188v1003c-26 -22 -65.333 -33 -118 -33c-78.667 0 -142.834 25.833 -192.501 77.5s-74.5 114.834 -74.5 189.501c0 46 10.5 88.5 31.5 127.5s53 72.5 96 100.5s93.167 42 150.5 42
c52 0 96.833 -11.167 134.5 -33.5s67.667 -53.666 90 -93.999s33.5 -87.833 33.5 -142.5v-1237h820v630c-76 -35.333 -174.333 -53 -295 -53c-100.667 0 -186 27.667 -256 83s-105 128.666 -105 219.999c0 70 23.667 129.833 71 179.5s105.666 74.5 174.999 74.5
c51.333 0 95.833 -10.667 133.5 -32s67.167 -50.833 88.5 -88.5s32 -82.167 32 -133.5c0 -72.667 -39.667 -135.334 -119 -188.001c40 0 68.333 1 85 3s45.834 10.167 87.501 24.5s75.834 36.5 102.501 66.5v700h151v-634c34.667 17.333 84.5 58.666 149.5 123.999
s103.833 111.333 116.5 138zM487 1397c0 82 -39.333 123 -118 123c-96 0 -144 -45.333 -144 -136c0 -81.333 39.667 -122 119 -122c95.333 0 143 45 143 135zM1155 1028c0 82 -39.333 123 -118 123c-79.333 0 -119 -38.333 -119 -115c0 -82 40.667 -123 122 -123
c76.667 0 115 38.333 115 115z" />
    <glyph glyph-name="uni0E2A" unicode="&#xe2a;" horiz-adv-x="1659" 
d="M1421 0l-151.001 0.000976562c0 126 -59.833 317.833 -179.5 575.5s-217.167 423.834 -292.5 498.501c-118.667 -128 -212.167 -250.5 -280.5 -367.5s-109.833 -210.5 -124.5 -280.5c40.667 52 92.334 78 155.001 78c52.667 0 99 -11.5 139 -34.5s71.333 -53.333 94 -91
s34 -81.834 34 -132.501c0 -76 -26.5 -139.333 -79.5 -190s-117.833 -76 -194.5 -76c-56 0 -105.167 13.667 -147.5 41s-74.833 64.166 -97.5 110.499s-34 99.5 -34 159.5c0 123.333 29 254 87 392s181.333 312.667 370 524l248 280c0 19.333 -53.333 29 -160 29
c-96 0 -180.833 -23 -254.5 -69s-133 -108.667 -178 -188s-67.5 -170 -67.5 -272v-110h-151v110c0 133.333 28.167 250 84.5 350s133 178.667 230 236s210.5 86 340.5 86c96 0 176.667 -15 242 -45c22 0 64.333 83.333 127 250l139 -62
c-50 -112.667 -96.333 -201.334 -139 -266.001c88.667 -58 151 -127.167 187 -207.5s54 -164.166 54 -251.499v-1077zM1286 434.001v623c0 101.333 -22.833 184.5 -68.5 249.5s-86.834 103.167 -123.501 114.5l-205 -245c50.667 -39.333 116.334 -134 197.001 -284
s125.667 -248 135 -294zM679.999 250.001c0 84.667 -41 127 -123 127c-95.333 0 -143 -46.333 -143 -139c0 -88 43 -132 129 -132c91.333 0 137 48 137 144z" />
    <glyph glyph-name="uni0E2B" unicode="&#xe2b;" horiz-adv-x="1757" 
d="M1450 1151l70 -41.002v-1110h-152v1044l-770 -1044h-135v1155c-24.667 -22 -64 -33 -118 -33c-78.667 0 -142.834 25.833 -192.501 77.5s-74.5 114.834 -74.5 189.501c0 46 10.333 88.667 31 128s52.334 72.833 95.001 100.5s92 41.5 148 41.5
c169.333 0 254 -93 254 -279v-1122l41 57l615 820c-136.667 66.667 -205 155.334 -205 266.001c0 72.667 25.5 133.834 76.5 183.501s112.833 74.5 185.5 74.5c76.667 0 140.167 -23.833 190.5 -71.5s75.5 -109.834 75.5 -186.501c0 -82 -45 -165.333 -135 -250zM1442 1401
c0 79.333 -41 119 -123 119c-21.333 0 -40.833 -5.66699 -58.5 -17s-32.167 -26 -43.5 -44s-17 -37.333 -17 -58c0 -59.333 46.333 -115.333 139 -168c68.667 60.667 103 116.667 103 168zM483 1397c0 82 -40.667 123 -122 123c-93.333 0 -140 -45.333 -140 -136
c0 -81.333 41 -122 123 -122c92.667 0 139 45 139 135z" />
    <glyph glyph-name="uni0E2C" unicode="&#xe2c;" horiz-adv-x="1896" 
d="M1884 2015l-224.996 -220.998v-1794h-152l-450 1425l-45 -168l-406 -1257h-139v1159c-32 -24.667 -74.333 -37 -127 -37c-48.667 0 -92.334 11.167 -131.001 33.5s-70.167 53.666 -94.5 93.999s-36.5 86.833 -36.5 139.5c0 46 10.167 88.333 30.5 127
s51.666 71.5 93.999 98.5s92.166 40.5 149.499 40.5c169.333 0 254 -88.667 254 -266v-971l82 291l299 929h143l386 -1192v1172c0 4.66699 2.16699 15.834 6.5 33.501s15.5 36.5 33.5 56.5c-38 -38 -90.333 -57 -157 -57c-52 0 -98 11.833 -138 35.5
s-71.833 55.5 -95.5 95.5s-35.5 86.333 -35.5 139c0 77.333 25.167 141.666 75.5 192.999s114.166 77 191.499 77c41.333 0 80.5 -8.33301 117.5 -25s68.333 -41 94 -73s41.167 -70.333 46.5 -115c0.666992 -4.66699 2 -18.334 4 -41.001c2 6.66699 6 21.667 12 45
c1.33301 4.66699 5.33301 20 12 46l95 94zM1528 1921c0 82 -40 123 -120 123c-89.333 0 -134 -43.667 -134 -131c0 -82 40.667 -123 122 -123c88 0 132 43.667 132 131zM471.004 1397c0 82 -40.333 123 -121 123c-91.333 0 -137 -46.667 -137 -140c0 -82 40 -123 120 -123
c92 0 138 46.667 138 140z" />
    <glyph glyph-name="uni0E2D" unicode="&#xe2d;" horiz-adv-x="1614" 
d="M1376 0h-970.001v963c0 77.333 24.5 141.666 73.5 192.999s111.833 77 188.5 77c52.667 0 99.5 -12.333 140.5 -37s73.5 -56.834 97.5 -96.501s36 -85.167 36 -136.5c0 -75.333 -24.667 -138.666 -74 -189.999s-110.666 -77 -183.999 -77c-48 0 -90.333 12.333 -127 37
v-581h668v913c0 127.333 -45.667 234.333 -137 321s-201.333 130 -330 130c-84.667 0 -163.167 -19.333 -235.5 -58s-134.5 -99 -186.5 -181s-78 -178.667 -78 -290v-110h-152v110c0 134 28.5 251 85.5 351s134 178.5 231 235.5s210.167 85.5 339.5 85.5
c170 0 314.833 -56.167 434.5 -168.5s179.5 -250.166 179.5 -413.499v-1077zM798.999 958c0 88 -45 132 -135 132c-79.333 0 -119 -41 -119 -123c0 -87.333 44.667 -131 134 -131c80 0 120 40.667 120 122z" />
    <glyph glyph-name="uni0E2E" unicode="&#xe2e;" horiz-adv-x="1565" 
d="M1225 1438c35.333 -38.667 61.168 -85.5 77.501 -140.5s24.5 -128.5 24.5 -220.5v-1077h-1081v725c0 78.667 24 143.334 72 194.001s111.333 76 190 76c77.333 0 142.333 -25.667 195 -77s79 -115.666 79 -192.999c0 -76.667 -22.667 -140.167 -68 -190.5
s-104 -75.5 -176 -75.5c-48.667 0 -95.667 12.333 -141 37v-344h779v1019c0 70.667 -19.333 128 -58 172c-49.333 -49.333 -112 -95 -188 -137s-170 -63 -282 -63c-113.333 0 -214.833 19.667 -304.5 59s-134.5 97.333 -134.5 174c0 83.333 49.5 151.333 148.5 204
s207.167 79 324.5 79c184.667 0 330 -43.667 436 -131c12 10.667 31.333 29.667 58 57l147 168l108 -99c0 -2.66699 -11.333 -16.334 -34 -41.001s-58.334 -61.334 -107.001 -110.001zM1016 1430c-78 60 -186.332 90.001 -324.999 90.001c-74 0 -147.667 -13.833 -221 -41.5
s-110 -61.834 -110 -102.501c0 -19.333 13.167 -36 39.5 -50s63.5 -24.833 111.5 -32.5s92.333 -11.5 133 -11.5c86 0 158.667 14.833 218 44.5s110.666 64.167 153.999 103.5zM635.003 721.001c0 87.333 -44.667 131 -134 131c-80 0 -120 -41 -120 -123
c0 -87.333 44.667 -131 134 -131c80 0 120 41 120 123z" />
    <glyph glyph-name="uni0E2F" unicode="&#xe2f;" horiz-adv-x="1470" 
d="M1233 0l-151.999 -0.00195312v1110l54 303l-13 4c-24 -107.333 -86 -206.666 -186 -297.999s-215.667 -137 -347 -137c-88 0 -166.167 16.167 -234.5 48.5s-126.833 81.333 -175.5 147s-73 131.834 -73 198.501c0 77.333 24.667 143.833 74 199.5s112.333 83.5 189 83.5
c52.667 0 98.5 -11.167 137.5 -33.5s69.5 -52.5 91.5 -90.5s33 -82.667 33 -134c0 -46.667 -10.333 -88.167 -31 -124.5s-49.5 -66.333 -86.5 -90s-77.833 -35.5 -122.5 -35.5c51.333 -24.667 100 -37 146 -37c285.333 0 466.666 174.667 543.999 524h152v-1638z
M500.001 1393c0 84.667 -42.333 127 -127 127s-127 -42.333 -127 -127s42.333 -127 127 -127s127 42.333 127 127z" />
    <glyph glyph-name="uni0E30" unicode="&#xe30;" horiz-adv-x="1470" 
d="M1368 1552c-77.333 -155.333 -183.501 -278.833 -318.501 -370.5s-278.5 -137.5 -430.5 -137.5c-88 0 -168 16.167 -240 48.5s-125.833 72 -161.5 119s-53.5 101.833 -53.5 164.5c0 50 11.833 94.167 35.5 132.5s56.167 69.5 97.5 93.5s88.333 36 141 36
c75.333 0 136.5 -24.5 183.5 -73.5s70.5 -110.833 70.5 -185.5c0 -116.667 -51.667 -188.667 -155 -216c108 0 208.167 21.667 300.5 65s171.333 99 237 167s119.834 149 162.501 243zM564.999 1364c0 90 -46 135 -138 135c-82.667 0 -124 -41 -124 -123
c0 -90 45.667 -135 137 -135c83.333 0 125 41 125 123zM1368 508c-77.333 -155.333 -183.5 -278.834 -318.5 -370.501s-278.5 -137.5 -430.5 -137.5c-87.333 0 -166.833 16 -238.5 48s-125.667 71.5 -162 118.5s-54.5 102.167 -54.5 165.5
c0 44.667 10.167 85.834 30.5 123.501s51.833 70.167 94.5 97.5s92.334 41 149.001 41c50.667 0 94.667 -11 132 -33s67 -52.333 89 -91s33 -83.667 33 -135c0 -116.667 -51.667 -188.667 -155 -216c147.333 0 283.666 41.5 408.999 124.5s222.333 199.833 291 350.5z
M564.999 319.999c0 90 -46 135 -138 135c-82.667 0 -124 -41 -124 -123c0 -90 45.667 -135 137 -135c83.333 0 125 41 125 123z" />
    <glyph glyph-name="uni0E31" unicode="&#xe31;" horiz-adv-x="0" 
d="M286 2417c-116 -148 -250.831 -269.666 -404.498 -364.999s-298.834 -143 -435.501 -143c-118 0 -210.333 26.167 -277 78.5s-100 121.166 -100 206.499c0 44.667 9.83301 86.334 29.5 125c19.667 38.667 49 70.834 88 96.5c39 25.667 84.5 38.5 136.5 38.5
c46 0 87.667 -11.333 125 -34s66.833 -51.5 88.5 -86.5s32.5 -74.167 32.5 -117.5c0 -86 -23.333 -143.333 -70 -172c46 0 139.167 36.5 279.5 109.5s271.166 193.5 392.499 361.5zM-561.998 2195c0 82 -41 123 -123 123c-76.667 0 -115 -38 -115 -114
c0 -82 41 -123 123 -123c76.667 0 115 38 115 114z" />
    <glyph glyph-name="uni0E32" unicode="&#xe32;" horiz-adv-x="1421" 
d="M1184 0l-152 0.000976562v1118c0 82 -16.333 152.667 -49 212s-76.5 105.166 -131.5 137.499s-120.5 48.5 -196.5 48.5c-102 0 -191.667 -36.5 -269 -109.5s-116 -159.5 -116 -259.5v-17h-147v29c0 137.333 53.167 255 159.5 353s230.5 147 372.5 147
c152 0 278.167 -47.833 378.5 -143.5s150.5 -218.5 150.5 -368.5v-1147z" />
    <glyph glyph-name="uni0E33" unicode="&#xe33;" horiz-adv-x="1421" 
d="M22 2348c0 -52 -11.8311 -100.667 -35.498 -146s-59.334 -83.666 -107.001 -115c-47.667 -31.333 -102.834 -47 -165.501 -47c-58 0 -110 13.833 -156 41.5s-82.833 64.5 -110.5 110.5s-41.5 98 -41.5 156s13.833 110 41.5 156s64.5 82.833 110.5 110.5s98 41.5 156 41.5
c58.667 0 111 -14 157 -42s82.667 -64.833 110 -110.5s41 -97.5 41 -155.5zM-117.998 2348c0 32 -7.5 60.5 -22.5 85.5s-35 45 -60 60s-53.5 22.5 -85.5 22.5c-28.667 0 -55.334 -6.5 -80.001 -19.5s-45.5 -32.5 -62.5 -58.5s-25.5 -56 -25.5 -90
c0 -28.667 6.5 -55.334 19.5 -80c13 -24.667 32.5 -45.5 58.5 -62.5s56 -25.5 90 -25.5c28.667 0 55.334 6.5 80.001 19.5s45.5 32.5 62.5 58.5s25.5 56 25.5 90zM1184 0l-152 0.000976562v1118c0 82 -16.333 152.667 -49 212s-76.5 105.166 -131.5 137.499
s-120.5 48.5 -196.5 48.5c-102 0 -191.667 -36.5 -269 -109.5s-116 -159.5 -116 -259.5v-17h-147v29c0 137.333 53.167 255 159.5 353s230.5 147 372.5 147c152 0 278.167 -47.833 378.5 -143.5s150.5 -218.5 150.5 -368.5v-1147z" />
    <glyph glyph-name="uni0E34" unicode="&#xe34;" horiz-adv-x="0" 
d="M-238 1905c-163.333 60 -317.332 103 -461.999 129s-296.334 39 -455.001 39c-150 0 -281 -7 -393 -21c0 41.333 13 90.5 39 147.5s57.667 106 95 147s81 75.167 131 102.5s106 47.833 168 61.5s130.333 20.5 205 20.5c104 0 196.167 -17.333 276.5 -52
s149.833 -77.667 208.5 -129s104.5 -110 137.5 -176s49.5 -155.667 49.5 -269zM-351.999 2032c-39.333 112 -113.498 199.333 -222.498 262s-235.5 94 -379.5 94c-200 0 -351.667 -78 -455 -234c23.333 11.333 69.666 24 138.999 38s154.333 21 255 21
c174 0 314.667 -20 422 -60s187.666 -80.333 240.999 -121z" />
    <glyph glyph-name="uni0E35" unicode="&#xe35;" horiz-adv-x="0" 
d="M-238 1905c-163.333 60 -317.333 103 -462 129s-296.334 39 -455.001 39c-150 0 -281 -7 -393 -21c0 55.333 23.833 124.833 71.5 208.5s118.834 149.667 213.501 198s216.667 72.5 366 72.5c68 0 136.833 -11 206.5 -33s135 -54 196 -96s111.167 -93 150.5 -153
c-24.667 49.333 -37 106.666 -37 172v381h143v-897zM-352 2032c-39.333 112 -113.498 199.333 -222.498 262s-235.5 94 -379.5 94c-200 0 -351.667 -78 -455 -234c23.333 11.333 69.666 24 138.999 38s154.333 21 255 21c174 0 314.667 -20 422 -60
s187.666 -80.333 240.999 -121z" />
    <glyph glyph-name="uni0E36" unicode="&#xe36;" horiz-adv-x="0" 
d="M-238 1905c-163.333 60 -317.33 103 -461.997 129s-296.334 39 -455.001 39c-150 0 -281 -7 -393 -21c0 40 12.667 88.167 38 144.5s57 105.333 95 147s82.5 76.334 133.5 104c51 27.667 108.5 48.5 172.5 62.5s134.667 21 212 21c81.333 0 142.666 -10.333 183.999 -31
c-10.667 19.333 -16 47.666 -16 85c0 46 9.5 85.5 28.5 118.5s45.667 59 80 78s74.5 28.5 120.5 28.5c68 0 124 -21.167 168 -63.5s66 -97.833 66 -166.5c0 -119.333 -61.667 -191.666 -185 -217c47.333 -22 94.666 -70.667 141.999 -146s71 -179.333 71 -312z
M-388.997 2568c0 79.333 -38.333 119 -115 119c-74 0 -111 -37 -111 -111c0 -78.667 38.333 -118 115 -118c74 0 111 36.667 111 110zM-351.997 2032c-39.333 112 -113.498 199.333 -222.498 262s-235.5 94 -379.5 94c-200 0 -351.667 -78 -455 -234
c23.333 11.333 69.666 24 138.999 38s154.333 21 255 21c174 0 314.667 -20 422 -60s187.666 -80.333 240.999 -121z" />
    <glyph glyph-name="uni0E37" unicode="&#xe37;" horiz-adv-x="0" 
d="M-238 1905c-163.333 60 -317.333 103 -462 129s-296.334 39 -455.001 39c-150 0 -281 -7 -393 -21c0 54 22.333 120.667 67 200s115.5 145.666 212.5 199c97 53.333 204.5 80 322.5 80c103.333 0 189.333 -12.667 258 -38v309h143v-373c12 0 44.833 -23.833 98.5 -71.5
s84.834 -84.834 93.501 -111.5c-18.667 87.333 -28 145.666 -28 175v381h143v-897zM-352 2032c-39.333 112 -113.498 199.333 -222.498 262s-235.5 94 -379.5 94c-200 0 -351.667 -78 -455 -234c23.333 11.333 69.666 24 138.999 38s154.333 21 255 21
c174 0 314.667 -20 422 -60s187.666 -80.333 240.999 -121z" />
    <glyph glyph-name="uni0E38" unicode="&#xe38;" horiz-adv-x="0" 
d="M-233 -893l-143.999 -0.000976562v205c0 36 13 73.333 39 112c7.33301 11.333 13.666 20.333 18.999 27c-46 -46 -102 -69 -168 -69c-45.333 0 -85 10 -119 30s-61 47.833 -81 83.5s-30 76.834 -30 123.501s11 87.834 33 123.501s51.667 64.334 89 86.001
s80 32.5 128 32.5c42 0 80.167 -8.83301 114.5 -26.5s62.833 -44.834 85.5 -81.501s34 -81.334 34 -134.001v-512zM-355.999 -384.001c0 76.667 -38.333 115 -115 115s-115 -38.333 -115 -115s38.333 -115 115 -115s115 38.333 115 115z" />
    <glyph glyph-name="uni0E39" unicode="&#xe39;" horiz-adv-x="0" 
d="M-233 -893l-603.001 -0.000976562v139h103v63c0 36.667 13 74 39 112c7.33301 11.333 13.666 20.333 18.999 27c-46 -46 -102 -69 -168 -69c-45.333 0 -84.833 10 -118.5 30s-60.667 47.833 -81 83.5s-30.5 76.834 -30.5 123.501s10.833 87.667 32.5 123
s51.334 64 89.001 86s80.5 33 128.5 33c68.667 0 124.834 -22.333 168.501 -67s65.5 -103 65.5 -175v-370h212v607h144v-746zM-712.001 -387.001c0 76.667 -38.333 115 -115 115s-115 -38.333 -115 -115s38.333 -115 115 -115s115 38.333 115 115z" />
    <glyph glyph-name="uni0E3A" unicode="&#xe3a;" horiz-adv-x="0" 
d="M-143 -426c0 -40 -9.5 -75.5 -28.5 -106.5s-44 -55.833 -75 -74.5s-66.167 -28 -105.5 -28s-74.666 9.33301 -105.999 28s-56.333 43.667 -75 75s-28 66.666 -28 105.999c0 40 9.5 75.5 28.5 106.5s44 55.833 75 74.5s66.167 28 105.5 28s74.666 -9.33301 105.999 -28
s56.333 -43.667 75 -75s28 -66.666 28 -105.999z" />
    <glyph glyph-name="uni0E3F" unicode="&#xe3f;" horiz-adv-x="1790" 
d="M945 0v-271.002h-134v271h-580v1921h580v261h134v-261h10c120 0 224.5 -18.833 313.5 -56.5s158 -93.167 207 -166.5s73.5 -161 73.5 -263c0 -83.333 -20.5 -160.666 -61.5 -231.999s-112.167 -135.666 -213.5 -192.999c131.333 -42.667 225.333 -104.167 282 -184.5
s85 -175.833 85 -286.5c0 -108 -22 -201 -66 -279s-112.5 -140.833 -205.5 -188.5s-204.5 -71.5 -334.5 -71.5h-90zM811 1076v683h-394v-683h394zM945 1758l-0.00292969 -682h34c80.667 0 149.834 14.333 207.501 43s102.334 68.667 134.001 120s47.5 113 47.5 185
c0 100 -31.167 179.5 -93.5 238.5s-172.166 90.833 -329.499 95.5zM944.997 912.998v-757.999h71c85.333 0 160.333 14 225 42s116.167 70.667 154.5 128s57.5 128.666 57.5 213.999c0 114.667 -39.167 205.667 -117.5 273s-182.5 101 -312.5 101h-78zM810.997 154.999v758
h-394v-758h394z" />
    <glyph glyph-name="uni0E40" unicode="&#xe40;" horiz-adv-x="827" 
d="M283 1638l150.999 -0.000976562v-1163c42.667 24.667 86.334 37 131.001 37c44 0 84.333 -9.66699 121 -29s68 -49.666 94 -90.999s39 -90 39 -146c0 -76 -26.5 -139.333 -79.5 -190s-117.833 -76 -194.5 -76s-139.5 25 -188.5 75s-73.5 113.667 -73.5 191v1392z
M675.999 245.999c0 84.667 -41.667 127 -125 127c-88.667 0 -133 -43.667 -133 -131c0 -84.667 42 -127 126 -127c88 0 132 43.667 132 131z" />
    <glyph glyph-name="uni0E41" unicode="&#xe41;" horiz-adv-x="1540" 
d="M995 1638h151v-1163c42.667 24.667 86.334 37 131.001 37c49.333 0 92.666 -11.5 129.999 -34.5s67.333 -54.5 90 -94.5s34 -85.667 34 -137c0 -76 -26.5 -139.333 -79.5 -190s-117.833 -76 -194.5 -76s-139.5 25 -188.5 75s-73.5 113.667 -73.5 191v1392zM1388 246
c0 84.667 -41.667 127 -125 127c-88.667 0 -133 -43.667 -133 -131c0 -84.667 42 -127 126 -127c88 0 132 43.667 132 131zM283 1638l150.999 -0.000976562v-1163c42.667 24.667 86.334 37 131.001 37c44 0 84.333 -9.66699 121 -29s68 -49.666 94 -90.999s39 -90 39 -146
c0 -76 -26.5 -139.333 -79.5 -190s-117.833 -76 -194.5 -76s-139.5 25 -188.5 75s-73.5 113.667 -73.5 191v1392zM675.999 245.999c0 84.667 -41.667 127 -125 127c-88.667 0 -133 -43.667 -133 -131c0 -84.667 42 -127 126 -127c88 0 132 43.667 132 131z" />
    <glyph glyph-name="uni0E42" unicode="&#xe42;" horiz-adv-x="995" 
d="M995 2089l-147 0.000976562c0 116 -32 211.167 -96 285.5s-149.333 111.5 -256 111.5c-84.667 0 -158 -29.167 -220 -87.5s-99.333 -119.5 -112 -183.5l438 -261v-1475c34 24.667 75.333 37 124 37c76 0 136.5 -24.833 181.5 -74.5s67.5 -114.834 67.5 -195.501
c0 -50 -10 -94.833 -30 -134.5s-50.333 -71.5 -91 -95.5s-90.334 -36 -149.001 -36c-161.333 0 -242 90 -242 270v1634l-463 275c64.667 311.333 231.334 467 500.001 467c99.333 0 185.5 -20.833 258.5 -62.5s130.667 -99.167 173 -172.5s63.5 -159 63.5 -257v-45z
M844 238.001c0 90 -42.667 135 -128 135c-86.667 0 -130 -42.333 -130 -127c0 -90 41 -135 123 -135c90 0 135 42.333 135 127z" />
    <glyph glyph-name="uni0E43" unicode="&#xe43;" horiz-adv-x="1139" 
d="M156 2388c19.333 16.667 51.666 25 96.999 25c42.667 0 80.167 -9 112.5 -27s57.333 -42.333 75 -73s26.5 -67 26.5 -109c0 -66.667 -21 -123 -63 -169s-94.667 -69 -158 -69c-164 0 -246 91.667 -246 275c0 81.333 17.667 153.333 53 216s81.833 111.834 139.5 147.5
c57.667 35.667 123.834 53.5 198.501 53.5c252.667 0 379 -168 379 -504v-1695c39.333 35.333 84 53 134 53c156.667 0 235 -88.667 235 -266s-91.667 -266 -275 -266c-158 0 -237 86 -237 258v1896c0 254 -89 381 -267 381c-96 0 -164 -42.333 -204 -127zM344 2189
c0 72.667 -34.333 109 -103 109c-70.667 0 -106 -34.333 -106 -103c0 -70.667 34.667 -106 104 -106c70 0 105 33.333 105 100zM1012 238c0 90 -44.333 135 -133 135c-80.667 0 -121 -46.667 -121 -140c0 -87.333 40.333 -131 121 -131c88.667 0 133 45.333 133 136z" />
    <glyph glyph-name="uni0E44" unicode="&#xe44;" horiz-adv-x="1065" 
d="M573 2511c-4 -9.33301 -16.667 -32.668 -38 -70.001l-52 -74l-290 -413h-148c0 28.667 1.66699 83.334 5 164.001c4.66699 108.667 7 198 7 268c0 114 -17.667 252.667 -53 416h131c35.333 -136.667 53 -267.334 53 -392c0 -73.333 -6.66699 -168 -20 -284l98 143
l279 414h151v-2200c34.667 22 72.667 33 114 33c164.667 0 247 -90 247 -270c0 -177.333 -91.667 -266 -275 -266c-155.333 0 -233 86 -233 258v2134c0 32 4.66699 65.667 14 101zM926 241.998c0 92.667 -41 139 -123 139c-87.333 0 -131 -46.333 -131 -139
c0 -90.667 39.667 -136 119 -136c90 0 135 45.333 135 136z" />
    <glyph glyph-name="uni0E45" unicode="&#xe45;" horiz-adv-x="1421" 
d="M1184 -995l-152 0.000976562v2113c0 82 -16.333 152.667 -49 212s-76.5 105.166 -131.5 137.499s-120.5 48.5 -196.5 48.5c-102 0 -191.667 -36.5 -269 -109.5s-116 -159.5 -116 -259.5v-17h-147v29c0 137.333 53.167 255 159.5 353s230.5 147 372.5 147
c151.333 0 277.333 -47.833 378 -143.5s151 -218.5 151 -368.5v-2142z" />
    <glyph glyph-name="uni0E46" unicode="&#xe46;" horiz-adv-x="1540" 
d="M1300 -995h-152.001v2482h-37c-104 0 -161.333 -65.667 -172 -197l-4 -49h-131l-4 49c-11.333 142 -104.333 213 -279 213c-38.667 0 -67.334 -4 -86.001 -12c134 -10.667 201 -88.667 201 -234c0 -69.333 -24.167 -127.5 -72.5 -174.5s-107.5 -70.5 -177.5 -70.5
c-51.333 0 -97.666 11.333 -138.999 34s-74.166 55 -98.499 97s-36.5 91 -36.5 147c0 72.667 16.667 134.5 50 185.5s81.5 90.833 144.5 119.5s137.5 43 223.5 43c86.667 0 161 -14.667 223 -44s99.333 -73.333 112 -132c0 42.667 22.667 82.667 68 120s117 56 215 56h152
v-2633zM504.999 1270c0 87.333 -44.667 131 -134 131c-80 0 -120 -41 -120 -123c0 -87.333 44.667 -131 134 -131c80 0 120 41 120 123z" />
    <glyph glyph-name="uni0E47" unicode="&#xe47;" horiz-adv-x="0" 
d="M-125 2564c-99.333 -105.333 -219.999 -158 -361.999 -158c-42.667 0 -94.667 3.66699 -156 11c-112.667 13.333 -184 20 -214 20c-63.333 0 -112.166 -17 -146.499 -51s-51.5 -83 -51.5 -147c0 -70 33 -132.333 99 -187c21.333 53.333 56.666 117.666 105.999 193
c104 -146.667 194.333 -226 271 -238c-33.333 36 -50 73 -50 111c0 36.667 8.16699 69 24.5 97s38.166 50.167 65.499 66.5s59 24.5 95 24.5c39.333 0 73.5 -8.66699 102.5 -26s52 -41.5 69 -72.5s25.5 -66.833 25.5 -107.5c0 -141.333 -92.333 -212 -277 -212
c-54 0 -111.167 18.667 -171.5 56s-104.833 73.333 -133.5 108c-8 0 -34 -54.667 -78 -164c-186 73.333 -279 191 -279 353c0 215.333 124.333 323 373 323c32.667 0 96.334 -4.66699 191.001 -14c50 -4.66699 93.333 -7 130 -7c59.333 0 110.666 9.5 153.999 28.5
s83 49.167 119 90.5zM-353.999 2109c0 60.667 -30 91 -90 91c-54.667 0 -82 -28.667 -82 -86c0 -60.667 30 -91 90 -91c54.667 0 82 28.667 82 86z" />
    <glyph glyph-name="uni0E48" unicode="&#xe48;" horiz-adv-x="0" 
d="M-233 1896h-156v574h156v-574z" />
    <glyph glyph-name="uni0E49" unicode="&#xe49;" horiz-adv-x="0" 
d="M49 2466c-68.667 -212 -179.002 -365.332 -331.002 -459.999s-324.333 -142 -517 -142c-72 0 -133.333 5.33301 -184 16l-8 94c133.333 59.333 237 152.333 311 278.999c-24.667 -27.333 -64.334 -41 -119.001 -41c-45.333 0 -84.666 10.333 -117.999 31
s-60.166 49 -80.499 85s-30.5 78 -30.5 126c0 66 22.833 121.333 68.5 166s101.834 67 168.501 67c51.333 0 96 -12.333 134 -37s68.167 -58.667 90.5 -102s33.5 -93 33.5 -149c0 -186.667 -86 -327 -258 -421c159.333 0 303 48.667 431 146s218 229 270 395zM-668.002 2441
c0 79.333 -39.667 119 -119 119c-76 0 -114 -38.333 -114 -115c0 -78.667 39.667 -118 119 -118c76 0 114 38 114 114z" />
    <glyph glyph-name="uni0E4A" unicode="&#xe4a;" horiz-adv-x="0" 
d="M21 2576c0 -157.333 -19.666 -285.5 -58.999 -384.5s-104 -170.833 -194 -215.5s-206.333 -67 -349 -67v82c117.333 64 176 158 176 282c0 101.333 -47.667 152 -143 152c-66 0 -111 -32.667 -135 -98h-57c-28.667 68 -87.334 102 -176.001 102
c-123.333 0 -185 -61.333 -185 -184c0 -50 5.33301 -81.667 16 -95c15.333 87.333 67 131 155 131c137.333 0 206 -62.667 206 -188c0 -53.333 -19.333 -98 -58 -134s-85 -54 -139 -54c-44.667 0 -86.5 11.833 -125.5 35.5s-75 61.834 -108 114.501s-49.5 111.667 -49.5 177
c0 224 83.667 336 251 336c96 0 175 -34 237 -102c41.333 68 105 102 191 102c162 0 243 -83.333 243 -250c0 -120 -34 -215.333 -102 -286c60 13.333 109.5 41.666 148.5 84.999s66.333 101 82 173s23.5 167.333 23.5 286h151zM-834.999 2089c0 62.667 -29.667 94 -89 94
c-55.333 0 -83 -27.333 -83 -82c0 -62.667 30 -94 90 -94c54.667 0 82 27.333 82 82z" />
    <glyph glyph-name="uni0E4B" unicode="&#xe4b;" horiz-adv-x="0" 
d="M37 2183h-283v-287h-143v287h-283v144h283v282h143v-282h283v-144z" />
    <glyph glyph-name="uni0E4C" unicode="&#xe4c;" horiz-adv-x="0" 
d="M262 2499c0 -24.667 -60.002 -54.167 -180.002 -88.5s-249.667 -51.5 -389 -51.5c-66 0 -112.333 -8 -139 -24c136 -19.333 204 -94.666 204 -226c0 -48.667 -10.667 -91.667 -32 -129s-50.166 -66.666 -86.499 -87.999s-78.5 -32 -126.5 -32
c-51.333 0 -96.166 11 -134.499 33s-68.5 52.167 -90.5 90.5s-33 83.166 -33 134.499c0 236 165 358.667 495 368c192 5.33301 339.667 50.333 443 135zM-373.002 2105c0 82 -43.667 123 -131 123c-70.667 0 -106 -38 -106 -114c0 -82 43.667 -123 131 -123
c70.667 0 106 38 106 114z" />
    <glyph glyph-name="uni0E4D" unicode="&#xe4d;" horiz-adv-x="0" 
d="M-233 2348c0 -52 -11.8311 -100.667 -35.498 -146s-59.334 -83.666 -107.001 -115c-47.667 -31.333 -102.834 -47 -165.501 -47c-58 0 -110 13.833 -156 41.5s-82.833 64.5 -110.5 110.5s-41.5 98 -41.5 156s13.833 110 41.5 156s64.5 82.833 110.5 110.5
s98 41.5 156 41.5s110 -13.833 156 -41.5s82.833 -64.5 110.5 -110.5s41.5 -98 41.5 -156zM-372.998 2348c0 32 -7.50098 60.5 -22.501 85.5s-35 45 -60 60s-53.5 22.5 -85.5 22.5s-60.5 -7.5 -85.5 -22.5s-45 -35 -60 -60s-22.5 -53.5 -22.5 -85.5s7.5 -60.5 22.5 -85.5
s35 -45 60 -60s53.5 -22.5 85.5 -22.5c28.667 0 55.334 6.5 80.001 19.5s45.5 32.5 62.5 58.5s25.5 56 25.5 90z" />
    <glyph glyph-name="uni0E4E" unicode="&#xe4e;" horiz-adv-x="0" 
d="M70 2814l-94.999 -61c-42.667 8 -75.334 12 -98.001 12c-72.667 1.33301 -140.667 -13.5 -204 -44.5s-95 -68.5 -95 -112.5c0 -38 27.5 -69.167 82.5 -93.5s112.167 -36.5 171.5 -36.5l-45 -94c-113.333 0 -207.833 -19.5 -283.5 -58.5s-113.5 -94.5 -113.5 -166.5
c0 -63.333 54.667 -95 164 -95c82.667 0 148 16.667 196 50l74 -58c-76.667 -62.667 -180.334 -94 -311.001 -94c-180.667 0 -271 67 -271 201c0 79.333 39.667 146.666 119 202c79.333 55.333 165.333 85 258 89c-41.333 2.66699 -80.666 20.167 -117.999 52.5
s-56 68.5 -56 108.5c0 69.333 40.333 125.333 121 168s183 64 307 64c86 0 151.667 -11 197 -33z" />
    <glyph glyph-name="uni0E4F" unicode="&#xe4f;" horiz-adv-x="1282" 
d="M1151 748c0 -141.333 -49.832 -261.668 -149.499 -361.001s-219.834 -149 -360.501 -149c-96 0 -182 23 -258 69s-136.833 106.833 -182.5 182.5s-68.5 161.834 -68.5 258.501c0 96 22.833 181.833 68.5 257.5s106.5 136.5 182.5 182.5s162 69 258 69s182 -23 258 -69
s137 -106.833 183 -182.5s69 -161.5 69 -257.5zM1086 747.998c0 83.333 -20.002 158.167 -60.002 224.5s-93.167 119.5 -159.5 159.5s-141.5 60 -225.5 60c-74.667 0 -144.667 -17.167 -210 -51.5s-120.666 -85.833 -165.999 -154.5s-68 -148 -68 -238
c0 -123.333 43.333 -228.333 130 -315s191.334 -130 314.001 -130s227.5 43.167 314.5 129.5s130.5 191.5 130.5 315.5zM857.999 747.999c0 -36.667 -8.33203 -70.999 -24.999 -102.999s-41.834 -59 -75.501 -81s-72.5 -33 -116.5 -33
c-40.667 0 -77.167 9.83301 -109.5 29.5s-58.333 45.667 -78 78s-29.5 68.833 -29.5 109.5c0 59.333 21.167 110.333 63.5 153s93.5 64 153.5 64c40.667 0 77.167 -9.66699 109.5 -29s58.333 -45.333 78 -78s29.5 -69.334 29.5 -110.001z" />
    <glyph glyph-name="uni0E50" unicode="&#xe50;" horiz-adv-x="1896" 
d="M1647 545c0 -177.333 -66.998 -319.998 -200.998 -427.998s-300.667 -162 -500 -162c-138.667 0 -260.834 26.167 -366.501 78.5s-187 121.5 -244 207.5s-85.5 187.333 -85.5 304c0 178.667 67.167 323.667 201.5 435s299.166 167 494.499 167
c138.667 0 261 -26.833 367 -80.5s188.167 -124.334 246.5 -212.001s87.5 -190.834 87.5 -309.501zM1499 545.002c0 139.333 -52.667 249.833 -158 331.5s-237 122.5 -395 122.5c-103.333 0 -196.833 -19 -280.5 -57s-148.667 -90.833 -195 -158.5
s-69.5 -147.167 -69.5 -238.5c0 -90.667 22.333 -168.667 67 -234s108.5 -117.833 191.5 -157.5s178.5 -59.5 286.5 -59.5c160 0 292.167 40.833 396.5 122.5s156.5 191.167 156.5 328.5z" />
    <glyph glyph-name="uni0E51" unicode="&#xe51;" horiz-adv-x="1896" 
d="M1166 -221l-77 106c116.667 54.667 211.334 137.334 284.001 248.001s109 227 109 349c0 100.667 -24.167 188.834 -72.5 264.501s-113.333 136 -195 181s-174.167 67.5 -277.5 67.5c-94.667 0 -178.834 -20.833 -252.501 -62.5s-131.834 -97 -174.501 -166
s-64 -148.5 -64 -238.5c0 -126.667 33.667 -227.834 101 -303.501s159 -113.5 275 -113.5l21 4c-147.333 25.333 -221 109 -221 251c0 70.667 25.5 132.5 76.5 185.5s114.167 79.5 189.5 79.5c81.333 0 147.333 -27.333 198 -82s76 -124.334 76 -209.001
c0 -103.333 -37.167 -185.833 -111.5 -247.5s-170.833 -92.5 -289.5 -92.5c-143.333 0 -255.666 52.667 -336.999 158s-122 235.666 -122 390.999c0 120 31 223.667 93 311s139.167 155.666 231.5 204.999s193.833 74 304.5 74c194 0 357.5 -60.5 490.5 -181.5
s199.5 -276.167 199.5 -465.5c0 -157.333 -40.333 -299.166 -121 -425.499s-192 -222.166 -334 -287.499zM1023 365c0 90 -45 135 -135 135s-135 -45 -135 -135c0 -90.667 45 -136 135 -136s135 45.333 135 136z" />
    <glyph glyph-name="uni0E52" unicode="&#xe52;" horiz-adv-x="1995" 
d="M1802 0l-1519 -0.000976562v1262c0 107.333 -13 178.833 -39 214.5s-59.667 59.5 -101 71.5l111 111c42 -26 70.833 -46.667 86.5 -62s30.334 -36.166 44.001 -62.499s24 -56.5 31 -90.5s10.5 -71.667 10.5 -113v-1192h1233v627c0 136.667 -54.667 205 -164 205
c-100 0 -179.333 -68.333 -238 -205c-78 139.333 -176 209 -294 209c-145.333 0 -227.333 -79.333 -246 -238c44.667 66 107.334 99 188.001 99c76.667 0 141 -24.667 193 -74s78 -112.333 78 -189c0 -76 -26 -139.333 -78 -190s-116.333 -76 -193 -76
c-61.333 0 -114.333 15.333 -159 46s-80.5 76.167 -107.5 136.5s-40.5 130.5 -40.5 210.5c0 82 17 154.167 51 216.5s77.5 110.833 130.5 145.5s114.167 52 183.5 52c124 0 222 -56 294 -168c46.667 112 133 168 259 168c85.333 0 154.333 -30 207 -90s79 -140.667 79 -242
v-782zM1028 572.999c0 90.667 -43.667 136 -131 136c-84.667 0 -127 -42.333 -127 -127c0 -90.667 43.667 -136 131 -136c84.667 0 127 42.333 127 127z" />
    <glyph glyph-name="uni0E53" unicode="&#xe53;" horiz-adv-x="1995" 
d="M1757 0l-142.996 0.00195312v733c0 156 -61.333 234 -184 234c-30.667 0 -57.334 -6.33301 -80.001 -19s-44.334 -33.334 -65.001 -62.001s-38.667 -67 -54 -115s-23 -100.333 -23 -157v-614h-143v569c0 116.667 -30.333 212.834 -91 288.501
s-142.334 113.5 -245.001 113.5c-108.667 0 -198 -48.833 -268 -146.5s-105 -208.5 -105 -332.5c0 -76 11 -144.333 33 -205c24.667 65.333 43 105.666 55 120.999c43.333 58.667 108.333 88 195 88c50 0 94.5 -11.667 133.5 -35s70.167 -54.666 93.5 -93.999
s35 -84 35 -134c0 -74.667 -24.833 -135.5 -74.5 -182.5s-112.167 -70.5 -187.5 -70.5c-126 0 -227.833 51.667 -305.5 155s-116.5 227.666 -116.5 372.999c0 169.333 47.667 312.666 143 429.999s219.666 176 372.999 176c198.667 0 331 -87.333 397 -262
c52.667 174.667 158 262 316 262c207.333 0 311 -118.667 311 -356v-758zM758.004 233.002c0 88 -43.667 132 -131 132c-84.667 0 -127 -42.333 -127 -127c0 -88 43.667 -132 131 -132c84.667 0 127 42.333 127 127z" />
    <glyph glyph-name="uni0E54" unicode="&#xe54;" horiz-adv-x="1995" 
d="M1995 1253c-22 -45.333 -50.334 -86.002 -85.001 -122.002s-74.834 -66.5 -120.501 -91.5s-92 -44.333 -139 -58s-90.833 -23 -131.5 -28s-92.334 -7.5 -155.001 -7.5l-455 12c-73.333 0 -137 -6.66699 -191 -20s-107.667 -36.5 -161 -69.5s-94.666 -75 -123.999 -126
s-44 -108.833 -44 -173.5c0 -148 50.667 -258.667 152 -332s254.333 -110 459 -110c-180.667 72 -271 203 -271 393c0 56.667 12.5 106.834 37.5 150.501s58 78 99 103s88.5 37.5 142.5 37.5c180 0 270 -90 270 -270c0 -161.333 -87.333 -242 -262 -242
c-44 0 -79.667 11 -107 33c42.667 -57.333 107 -103.833 193 -139.5s176 -53.5 270 -53.5h324v-139h-799c-140 0 -258.5 21.833 -355.5 65.5s-170.5 106.5 -220.5 188.5s-75 183 -75 303c0 72.667 11.833 138.334 35.5 197.001s58.667 110.834 105 156.501s98 83 155 112
s113.5 49.5 169.5 61.5s122 18 198 18l455 -12c62 0 114.333 3 157 9s87.834 18.167 135.501 36.5s90.334 44.666 128.001 78.999s68.167 75.833 91.5 124.5zM1151 540.998c0 90 -45 135 -135 135s-135 -45 -135 -135s45 -135 135 -135s135 45 135 135z" />
    <glyph glyph-name="uni0E55" unicode="&#xe55;" horiz-adv-x="1995" 
d="M1992 1253c-98.667 -207.333 -334.999 -310.998 -708.999 -310.998c-92.667 0 -218.334 9.66699 -377.001 29c-96 0 -182.333 -17.667 -259 -53s-139.334 -88.333 -188.001 -159s-73 -154 -73 -250c0 -254.667 203.667 -382 611 -382c-180.667 72 -271 203 -271 393
c0 56.667 12.5 106.834 37.5 150.501s58 78 99 103s88.5 37.5 142.5 37.5c78.667 0 143.334 -25.333 194.001 -76s76 -113.334 76 -188.001c0 -165.333 -87.333 -248 -262 -248c-44 0 -79.667 11 -107 33c42.667 -57.333 107 -103.833 193 -139.5s176 -53.5 270 -53.5h324
v-139h-799c-202 0 -361 47.667 -477 143s-174 230.666 -174 405.999c0 111.333 46.667 219.166 140 323.499s213.333 168.5 360 192.5c-118 58.667 -177 150 -177 274c0 82 29.333 151.667 88 209s129 86 211 86c90.667 0 164.667 -27 222 -81s86 -125.333 86 -214
c0 -102.667 -45.333 -185.667 -136 -249c75.333 -8.66699 152 -13 230 -13c321.333 0 523.333 87.333 606 262zM1033 1339c0 104 -56 155.999 -168 155.999c-42.667 0 -80.5 -15.667 -113.5 -47s-49.5 -69.333 -49.5 -114c0 -91.333 54.333 -164.666 163 -219.999
c112 53.333 168 128.333 168 225zM1148 541.001c0 90 -45 135 -135 135s-135 -45 -135 -135s45 -135 135 -135s135 45 135 135z" />
    <glyph glyph-name="uni0E56" unicode="&#xe56;" horiz-adv-x="1896" 
d="M690 115c26 -14 46 -20.9971 60 -20.9971c82.667 0 164.334 11.5 245.001 34.5s163.667 59.5 249 109.5s151.166 107.833 197.499 173.5s69.5 137.5 69.5 215.5c0 106.667 -50.667 188.5 -152 245.5s-227.333 85.5 -378 85.5c-230 0 -443.667 -58.667 -641 -176v480
c0 94.667 -10.667 162.167 -32 202.5s-57 68.166 -107 83.499l110 111c72.667 -40.667 119.5 -89 140.5 -145s31.5 -117 31.5 -183v-344c160 76.667 326.667 115 500 115c448 0 672 -157 672 -471c0 -186 -85.167 -341 -255.5 -465s-360.166 -186 -569.499 -186
c-136.667 0 -256 30.167 -358 90.5s-153 143.166 -153 248.499c0 76.667 27.167 141 81.5 193s120.166 78 197.499 78c44.667 0 85 -9.66699 121 -29s66.5 -50.333 91.5 -93s37.5 -95 37.5 -157c0 -32.667 -7 -62.834 -21 -90.501s-33.167 -51.5 -57.5 -71.5
s-50.833 -31.333 -79.5 -34zM717 319.003c0 90.667 -45 136 -135 136c-79.333 0 -119 -39.667 -119 -119c0 -90 45 -135 135 -135c79.333 0 119 39.333 119 118z" />
    <glyph glyph-name="uni0E57" unicode="&#xe57;" horiz-adv-x="1995" 
d="M1892 1548c-23.333 0 -54.6699 -23 -94.0029 -69c-27.333 -41.333 -41 -113.666 -41 -216.999v-930c0 -115.333 -31.167 -199.5 -93.5 -252.5s-134.833 -79.5 -217.5 -79.5h-221v733c0 147.333 -45 221 -135 221c-95.333 0 -155.666 -73.667 -180.999 -221h-94
c-16 150 -91 225 -225 225c-70 0 -129.833 -36.833 -179.5 -110.5s-74.5 -152.834 -74.5 -237.501c0 -118.667 24.667 -234.667 74 -348c0 67.333 22.333 123.166 67 167.499s105.334 66.5 182.001 66.5c50.667 0 95.667 -11.5 135 -34.5s70.5 -54.167 93.5 -93.5
s34.5 -84.333 34.5 -135c0 -168.667 -93 -253 -279 -253c-142 0 -252.5 62.667 -331.5 188s-118.5 275.333 -118.5 450c0 92 19.833 175.833 59.5 251.5s90.334 135.334 152.001 179.001s131.5 65.5 209.5 65.5c134.667 0 218 -68.333 250 -205
c45.333 136.667 126 205 242 205c76.667 0 139.5 -27.333 188.5 -82s73.5 -123 73.5 -205v-688h78c33.333 0 63.666 8.33301 90.999 25s47 38.834 59 66.501s18 61.5 18 101.5v999c0 41.333 3.5 79 10.5 113s17.333 64.167 31 90.5s28.334 47.166 44.001 62.499
s44.5 36 86.5 62zM773.996 233c0 88 -43.667 132 -131 132c-84.667 0 -127 -42.333 -127 -127c0 -88 43.667 -132 131 -132c84.667 0 127 42.333 127 127z" />
    <glyph glyph-name="uni0E58" unicode="&#xe58;" horiz-adv-x="1995" 
d="M1994 1253c-25.333 -53.333 -57.667 -99.832 -97 -139.499s-85.5 -72.334 -138.5 -98.001s-109.333 -43.667 -169 -54s-135.167 -15.5 -226.5 -15.5l-455 12c-94.667 0 -170.167 -9.83301 -226.5 -29.5s-105.833 -45 -148.5 -76s-77.5 -70.333 -104.5 -118
s-40.5 -108.167 -40.5 -181.5c0 -124 22.667 -219.333 68 -286c68.667 168.667 149 253 241 253c49.333 0 105 -21.333 167 -64l352 -270c0 46 4 90.5 12 133.5s33.5 83.833 76.5 122.5s96.5 58 160.5 58c75.333 0 139.333 -24.333 192 -73s79 -110.334 79 -185.001
c0 -51.333 -11.5 -98 -34.5 -140s-57.833 -77 -104.5 -105s-102 -42 -166 -42c-27.333 0 -56.166 4.16699 -86.499 12.5s-61.833 20.5 -94.5 36.5s-59 30.833 -79 44.5s-96.333 69.834 -229 168.501c-128 95.333 -211.667 143 -251 143c-63.333 0 -133 -126.667 -209 -380
c-158 160.667 -237 352.334 -237 575.001c0 73.333 11.833 139.5 35.5 198.5s58.5 111.167 104.5 156.5s97.333 82.666 154 111.999s113.167 50 169.5 62s122.833 18 199.5 18l455 -12c93.333 0 171.166 8 233.499 24s117.5 43 165.5 81s85.667 86 113 144zM1601 238.001
c0 87.333 -43.667 131 -131 131c-90.667 0 -136 -45.333 -136 -136c0 -87.333 43.667 -131 131 -131c90.667 0 136 45.333 136 136z" />
    <glyph glyph-name="uni0E59" unicode="&#xe59;" horiz-adv-x="1995" 
d="M1696 754c-48 144.667 -118.998 216.995 -212.998 216.995c-109.333 0 -164 -86 -164 -258c0 -72.667 13.667 -139.667 41 -201l115 -258c20 -45.333 38.667 -79.666 56 -102.999s41 -43.333 71 -60l24 -13l-70 -115c-16 0 -45.333 15.667 -88 47
s-78.667 81.333 -108 150l-193 442c-107.333 246 -254.666 369 -441.999 369c-116 0 -212.667 -40.833 -290 -122.5s-116 -183.5 -116 -305.5c0 -186 75 -318.667 225 -398c-29.333 35.333 -44 78.333 -44 129c0 74.667 25.667 137.834 77 189.501s114.333 77.5 189 77.5
c50.667 0 95.667 -12 135 -36s71 -56.333 95 -97s36 -86.667 36 -138c0 -86.667 -35 -156.834 -105 -210.501s-152.333 -80.5 -247 -80.5c-94 0 -177.167 24.667 -249.5 74s-132.166 118.5 -179.499 207.5s-71 186.5 -71 292.5c0 162.667 51 296.834 153 402.501
s231.667 158.5 389 158.5c235.333 0 398.666 -110.667 489.999 -332c0 100.667 23.5 181.834 70.5 243.501s112.5 92.5 196.5 92.5c103.333 0 186.666 -49 249.999 -147l24 -37c34.667 18 59.667 42.5 75 73.5s23 74.833 23 131.5v229c0 64 -5 106 -15 126
s-32.333 40.667 -67 62l95 103c52 -28.667 86 -59 102 -91c19.333 -36.667 29 -98 29 -184v-245c0 -68 -11.833 -128.167 -35.5 -180.5s-61.334 -97.666 -113.001 -135.999s-101.834 -61.166 -150.501 -68.499zM889.002 265.995c0 87.333 -43.667 131 -131 131
c-84.667 0 -127 -43.667 -127 -131s42.333 -131 127 -131c87.333 0 131 43.667 131 131z" />
    <glyph glyph-name="uni0E5A" unicode="&#xe5a;" horiz-adv-x="1675" 
d="M1204 0l-151.004 0.000976562v1110l53 303l-12 4c-30.667 -125.333 -96.167 -229.333 -196.5 -312s-212.166 -124 -335.499 -124c-91.333 0 -174.666 19.333 -249.999 58s-133.166 86.167 -173.499 142.5s-60.5 121.166 -60.5 194.499c0 77.333 25 143.833 75 199.5
s112.333 83.5 187 83.5c46.667 0 89.334 -9.66699 128.001 -29s70.667 -48.5 96 -87.5s38 -86.167 38 -141.5c0 -74 -22.5 -134.833 -67.5 -182.5s-103.167 -71.5 -174.5 -71.5c79.333 -22 126 -33 140 -33c92 0 174.5 20.333 247.5 61s136 100.5 189 179.5
s91.833 173.5 116.5 283.5h151v-1638zM470.996 1393c0 84.667 -42.333 127 -127 127s-127 -42.333 -127 -127s42.333 -127 127 -127s127 42.333 127 127zM1536 0.000976562h-143v1630h143v-1630z" />
    <glyph glyph-name="uni0E5B" unicode="&#xe5b;" horiz-adv-x="3244" 
d="M3183 836l-50.002 -221.002c-16.667 -74 -45 -136.167 -85 -186.5s-84.167 -87.833 -132.5 -112.5s-100.833 -37 -157.5 -37c-118 0 -213 54 -285 162l-110 165l-127 -176c-51.333 -71.333 -92.666 -107 -124 -107c-22.667 0 -67 52 -133 156l-83 131
c-128 -185.333 -207.667 -278 -239 -278c-23.333 0 -64.666 35.333 -123.999 106c-17.333 18 -44.666 50.667 -81.999 98c-142 -346.667 -358 -520 -648 -520c-150 0 -276.667 28.667 -380 86s-183.333 141 -240 251s-85 243.667 -85 401c0 150.667 27.5 281 82.5 391
s132.667 196.5 233 259.5s217.833 94.5 352.5 94.5c139.333 0 284 -43.667 434 -131l-12 -180c-130.667 95.333 -270 143 -418 143c-153.333 0 -273.5 -55.667 -360.5 -167s-130.5 -257.666 -130.5 -438.999c0 -106.667 18.167 -200.167 54.5 -280.5
s91.833 -143.833 166.5 -190.5s167.334 -70 278.001 -70c58 0 112.5 8.5 163.5 25.5s98 42.333 141 76s80.5 72.5 112.5 116.5s107.333 185.667 226 425c41.333 -63.333 123.333 -164.333 246 -303l115 152c33.333 50.667 75.666 102.334 126.999 155.001
c20 0 50 -35.333 90 -106l119 -213l147 204c50.667 71.333 84.667 107 102 107c7.33301 0 75.333 -88.333 204 -265c64 -88 118.333 -132 163 -132c126.667 0 206.667 61.333 240 184c16 48.667 36.333 124 61 226h148z" />
    <glyph glyph-name="uni200B" unicode="&#x200b;" horiz-adv-x="0" 
 />
    <glyph glyph-name="uni2013" unicode="&#x2013;" horiz-adv-x="1342" 
d="M1358 611h-1374v120h1374v-120z" />
    <glyph glyph-name="uni2014" unicode="&#x2014;" horiz-adv-x="2684" 
d="M2699 611h-2715v120h2715v-120z" />
    <glyph glyph-name="uni2018" unicode="&#x2018;" horiz-adv-x="596" 
d="M414 1823c-79.333 -52 -119 -138 -119 -258h107v-259h-225v259c0 162 57.333 280.667 172 356z" />
    <glyph glyph-name="uni2019" unicode="&#x2019;" horiz-adv-x="596" 
d="M238 1306l-65 99c79.333 52 119 138 119 258h-107v258h225v-258c0 -161.333 -57.333 -280.333 -172 -357z" />
    <glyph glyph-name="quotesinglbase" unicode="&#x201a;" horiz-adv-x="618" 
d="M218 -358l-22 38c90.667 53.333 136 160 136 320h-130v216h194v-190c0 -190 -59.333 -318 -178 -384z" />
    <glyph glyph-name="uni201C" unicode="&#x201c;" horiz-adv-x="1044" 
d="M864 1823c-80 -52 -120 -138 -120 -258h108v-259h-226v259c0 162 57.333 280.667 172 356zM408 1823c-80 -52 -120 -138 -120 -258h108v-259h-226v259c0 162 57.333 280.667 172 356z" />
    <glyph glyph-name="uni201D" unicode="&#x201d;" horiz-adv-x="1044" 
d="M692 1306l-66 99c80 52 120 138 120 258h-108v258h226v-258c0 -162.667 -57.333 -281.667 -172 -357zM236 1306l-66 99c80 52 120 138 120 258h-108v258h226v-258c0 -161.333 -57.333 -280.333 -172 -357z" />
    <glyph glyph-name="uni201E" unicode="&#x201e;" horiz-adv-x="926" 
d="M590 -358l-24 38c90.667 53.333 136 160 136 320h-130v216h194v-190c0 -193.333 -58.667 -321.333 -176 -384zM168 -358l-22 37.999c89.333 50.667 134 157.334 134 320.001h-128v216h194v-190c0 -118.667 -15.167 -204.667 -45.5 -258s-74.5 -95.333 -132.5 -126z" />
    <glyph glyph-name="uni2020" unicode="&#x2020;" horiz-adv-x="1546" 
d="M1396 1176h-544v-1646h-178v1646h-540v148h540v552h178v-552h544v-148z" />
    <glyph glyph-name="uni2021" unicode="&#x2021;" horiz-adv-x="1546" 
d="M1402 32h-546v-502h-178v502h-544v152h544v1052h-544v150h544v508h178v-508h546v-150h-546v-1052h546v-152z" />
    <glyph glyph-name="uni2022" unicode="&#x2022;" horiz-adv-x="1342" 
d="M1000 938c0 -62 -14.668 -117.332 -44.001 -165.999s-68.5 -87.667 -117.5 -117s-104.5 -44 -166.5 -44s-117.333 14.667 -166 44s-87.667 68.333 -117 117s-44 104 -44 166c0 91.333 31.833 168.833 95.5 232.5s140.834 95.5 231.501 95.5
c62.667 0 118.5 -14.833 167.5 -44.5s88 -68.834 117 -117.501s43.5 -104 43.5 -166z" />
    <glyph glyph-name="uni2026" unicode="&#x2026;" horiz-adv-x="2684" 
d="M2351 0h-228v254h228v-254zM1456 0h-227v254h227v-254zM561 0h-227v254h227v-254z" />
    <glyph glyph-name="uni2030" unicode="&#x2030;" horiz-adv-x="2780" 
d="M1380 1956l-790 -2030h-106l790 2030h106zM796 1464c0 -336 -118 -504 -354 -504c-238.667 0 -358 166 -358 498c0 321.333 118 482 354 482c238.667 0 358 -158.667 358 -476zM662 1450c0 260 -73.333 390 -220 390c-149.333 0 -224 -131.333 -224 -394
c0 -256 76 -384 228 -384c144 0 216 129.333 216 388zM2696 428c0 -334.667 -118 -502 -354 -502c-238.667 0 -358 165.333 -358 496c0 321.333 118 482 354 482c238.667 0 358 -158.667 358 -476zM2562 414c0 260 -73.333 390 -220 390c-149.333 0 -224 -130.667 -224 -392
c0 -256 76 -384 228 -384c144 0 216 128.667 216 386zM1780 428c0 -334.667 -118 -502 -354 -502c-237.333 0 -356 165.333 -356 496c0 321.333 117.333 482 352 482c238.667 0 358 -158.667 358 -476zM1648 414c0 260 -74 390 -222 390c-149.333 0 -224 -130.667 -224 -392
c0 -256 76 -384 228 -384c145.333 0 218 128.667 218 386z" />
    <glyph glyph-name="uni2039" unicode="&#x2039;" horiz-adv-x="926" 
d="M694 98h-124l-404 584l404 586h124l-338 -586z" />
    <glyph glyph-name="uni203A" unicode="&#x203a;" horiz-adv-x="926" 
d="M746 694l-390 -596h-124l340 588l-340 582h124z" />
    <glyph glyph-name="Euro" unicode="&#x20ac;" 
d="M1049 1796c-184 0 -343.667 -65.332 -479 -195.999c-124.667 -120.667 -197 -262.334 -217 -425.001h886l-35 -134h-872c-0.666992 -18 -1 -42 -1 -72c0 -20 2.33301 -66.333 7 -139h830l-36 -135h-773c72 -394.667 295.667 -592 671 -592c162 0 288.333 42.667 379 128
v-188c-108 -50.667 -227.333 -76 -358 -76c-392 0 -657 163 -795 489c-27.333 65.333 -51 145 -71 239h-199l36 135h144l-10 138c0 30.667 0.333008 55 1 73h-171l36 134h152c46 240 144 426.333 294 559c154 136 349.667 204 587 204c160.667 0 296 -35 406 -105l-52 -168
c-105.333 87.333 -225.333 131 -360 131z" />
    <glyph glyph-name="uni2122" unicode="&#x2122;" horiz-adv-x="2780" 
d="M2386 884h-100v908h-66l-278 -908h-116l-290 908h-68v-908h-102v1038h212l308 -964l292 964h208v-1038zM1176 1826h-362v-942h-116v942h-358v96h836v-96z" />
    <glyph glyph-name="uni25CC" unicode="&#x25cc;" horiz-adv-x="2040" 
d="M1117 1750c0 -60.667 -29 -91 -87 -91c-56.667 0 -85 30.333 -85 91c0 56.667 28.333 85 85 85c58 0 87 -28.333 87 -85zM1117 163c0 -60 -29 -90 -87 -90c-56.667 0 -85 30 -85 90c0 57.333 28.333 86 85 86c58 0 87 -28.667 87 -86zM1850 1257
c0 -59.333 -29.667 -89 -89 -89c-56.667 0 -85 29.667 -85 89c0 56.667 29.667 85 89 85c56.667 0 85 -28.333 85 -85zM1850 652c0 -57.333 -29.667 -86 -89 -86c-56.667 0 -85 28.667 -85 86c0 58.667 28.333 88 85 88c59.333 0 89 -29.333 89 -88zM817 1684
c0 -56 -29.667 -84 -89 -84c-56.667 0 -85 28 -85 84c0 60 28.333 90 85 90c59.333 0 89 -30 89 -90zM326 954c0 -57.333 -28.667 -86 -86 -86c-60 0 -90 28.667 -90 86s30 86 90 86c57.333 0 86 -28.667 86 -86zM556 390c0 -56.667 -28.333 -85 -85 -85
c-57.333 0 -86 28.333 -86 85c0 60 28.667 90 86 90c56.667 0 85 -30 85 -90zM817 226c0 -58.667 -29.667 -88 -89 -88c-56.667 0 -85 27 -85 81c0 60 28.333 90 85 90c59.333 0 89 -27.667 89 -83zM1419 1684c0 -56 -27 -84 -81 -84c-60 0 -90 28 -90 84c0 60 30 90 90 90
c54 0 81 -30 81 -90zM385 1257c0 -59.333 -27.333 -89 -82 -89c-58.667 0 -88 29.667 -88 89c0 56.667 28.333 85 85 85s85 -28.333 85 -85zM1912 954c0 -57.333 -27.333 -86 -82 -86c-60 0 -90 28.667 -90 86s30 86 90 86c54.667 0 82 -28.667 82 -86zM385 652
c0 -57.333 -28.333 -86 -85 -86s-85 28.667 -85 86c0 58.667 28.333 88 85 88s85 -29.333 85 -88zM1676 390c0 -56.667 -27 -85 -81 -85c-58 0 -87 28.333 -87 85c0 60 29 90 87 90c54 0 81 -30 81 -90zM1676 1513c0 -54 -27 -81 -81 -81c-60.667 0 -91 27 -91 81
c0 58 30.333 87 91 87c54 0 81 -29 81 -87zM556 1513c0 -54 -28.333 -81 -85 -81c-57.333 0 -86 26.333 -86 79c0 59.333 28.667 89 86 89c56.667 0 85 -29 85 -87zM1419 219c0 -54 -27 -81 -81 -81c-57.333 0 -86 27 -86 81c0 60 28.667 90 86 90c54 0 81 -30 81 -90z" />
    <glyph glyph-name="000a" horiz-adv-x="3072" 
d="M512 0v2560h2048v-2560h-2048zM576 64h1920v2432h-1920v-2432z" />
    <glyph glyph-name="glyph1" horiz-adv-x="0" 
 />
    <glyph glyph-name="glyph2" horiz-adv-x="746" 
 />
    <glyph glyph-name="DEL" horiz-adv-x="0" 
d="M0 0h-1229v2048h1229v-2048z" />
    <glyph glyph-name="glyph99" horiz-adv-x="1565" 
d="M1413 1716c-18.667 -155.333 -36.165 -246.667 -52.498 -274s-46.5 -41 -90.5 -41c-26 0 -107.333 16.333 -244 49c-133.333 32.667 -224.333 49 -273 49c-212.667 0 -350.334 -77.667 -413.001 -233c76 40.667 185.333 61 328 61c168 0 317.833 -22 449.5 -66
s197.5 -106.667 197.5 -188l-168 -1073h-143l-181 516c-4 21.333 -8 44.666 -12 69.999c0 8.66699 1.33301 36 4 82c-46.667 -93.333 -123.334 -140 -230.001 -140c-41.333 0 -80 10.167 -116 30.5s-67.833 52.333 -95.5 96s-41.5 94.5 -41.5 152.5
c0 73.333 25.333 136 76 188s113.334 78 188.001 78c128.667 0 214 -64 256 -192l168 -516l33 -177h12l12 271l86 590c0 44 -63.167 78.167 -189.5 102.5s-252.833 36.5 -379.5 36.5c-138.667 0 -272.334 -12.333 -401.001 -37l4 41c12 122.667 67.5 228.334 166.5 317.001
s233.167 133 402.5 133c104 0 223.667 -18 359 -54c58 -15.333 96.667 -23 116 -23c8 2 17.667 59.333 29 172zM725.002 798.999c0 84.667 -42.333 127 -127 127c-34 0 -63.667 -12.333 -89 -37s-38 -54.667 -38 -90c0 -84.667 42.333 -127 127 -127
c34 0 63.667 12.333 89 37s38 54.667 38 90z" />
    <glyph glyph-name="glyph100" horiz-adv-x="0" 
d="M-541 1905c-163.333 60 -317.332 103 -461.999 129s-296.334 39 -455.001 39c-150 0 -281 -7 -393 -21c0 41.333 13 90.5 39 147.5s57.667 106 95 147s81 75.167 131 102.5s106 47.833 168 61.5s130.333 20.5 205 20.5c104 0 196.167 -17.333 276.5 -52
s149.833 -77.667 208.5 -129s104.5 -110 137.5 -176s49.5 -155.667 49.5 -269zM-654.999 2032c-39.333 112 -113.498 199.333 -222.498 262s-235.5 94 -379.5 94c-200 0 -351.667 -78 -455 -234c23.333 11.333 69.666 24 138.999 38s154.333 21 255 21
c174 0 314.667 -20 422 -60s187.666 -80.333 240.999 -121z" />
    <glyph glyph-name="glyph101" horiz-adv-x="0" 
d="M-541 1905c-163.333 60 -317.333 103 -462 129s-296.334 39 -455.001 39c-150 0 -281 -7 -393 -21c0 55.333 23.833 124.833 71.5 208.5s118.834 149.667 213.501 198s216.667 72.5 366 72.5c106 0 210.667 -25.5 314 -76.5s183 -119.5 239 -205.5
c-24.667 49.333 -37 106.666 -37 172v381h143v-897zM-655 2032c-39.333 112 -113.498 199.333 -222.498 262s-235.5 94 -379.5 94c-200 0 -351.667 -78 -455 -234c23.333 11.333 69.666 24 138.999 38s154.333 21 255 21c174 0 314.667 -20 422 -60
s187.666 -80.333 240.999 -121z" />
    <glyph glyph-name="glyph102" horiz-adv-x="0" 
d="M-541 1905c-163.333 60 -317.33 103 -461.997 129s-296.334 39 -455.001 39c-150 0 -281 -7 -393 -21c0 40 12.667 88.167 38 144.5s57 105.333 95 147s82.5 76.334 133.5 104c51 27.667 108.5 48.5 172.5 62.5s134.667 21 212 21c81.333 0 142.666 -10.333 183.999 -31
c-10.667 19.333 -16 47.666 -16 85c0 45.333 9.5 84.666 28.5 118c19 33.333 45.667 59.5 80 78.5s74.5 28.5 120.5 28.5c68 0 124 -21.167 168 -63.5s66 -97.833 66 -166.5c0 -119.333 -61.667 -191.666 -185 -217c43.333 -20 89.666 -67.167 138.999 -141.5
s74 -179.833 74 -316.5zM-691.997 2568c0 79.333 -38.333 119 -115 119c-74 0 -111 -37 -111 -111c0 -78.667 38.333 -118 115 -118c74 0 111 36.667 111 110zM-654.997 2032c-39.333 112 -113.498 199.333 -222.498 262s-235.5 94 -379.5 94c-200 0 -351.667 -78 -455 -234
c23.333 11.333 69.666 24 138.999 38s154.333 21 255 21c174 0 314.667 -20 422 -60s187.666 -80.333 240.999 -121z" />
    <glyph glyph-name="glyph103" horiz-adv-x="0" 
d="M-541 1905c-163.333 60 -317.333 103 -462 129s-296.334 39 -455.001 39c-150 0 -281 -7 -393 -21c0 54 22.333 120.667 67 200s115.5 145.666 212.5 199c97 53.333 204.5 80 322.5 80c103.333 0 189.333 -12.667 258 -38v309h143v-373c12 0 44.833 -23.833 98.5 -71.5
s84.834 -84.834 93.501 -111.5c-18.667 87.333 -28 145.666 -28 175v381h143v-897zM-655 2032c-39.333 112 -113.498 199.333 -222.498 262s-235.5 94 -379.5 94c-200 0 -351.667 -78 -455 -234c23.333 11.333 69.666 24 138.999 38s154.333 21 255 21
c174 0 314.667 -20 422 -60s187.666 -80.333 240.999 -121z" />
    <glyph glyph-name="glyph105" horiz-adv-x="0" 
d="M-541 1896h-151v574h151v-574z" />
    <glyph glyph-name="glyph106" horiz-adv-x="0" 
d="M-254 2466c-68.667 -212 -179.001 -365.332 -331.001 -459.999s-324.333 -142 -517 -142c-72 0 -133.333 5.33301 -184 16l-8 94c133.333 59.333 237 152.333 311 278.999c-24.667 -27.333 -64.334 -41 -119.001 -41c-40 0 -76.167 8.5 -108.5 25.5s-60.5 44 -84.5 81
s-36 82.167 -36 135.5c0 66 22.833 121.333 68.5 166s101.834 67 168.501 67c76.667 0 138.834 -27.5 186.501 -82.5s71.5 -123.5 71.5 -205.5c0 -186.667 -86 -327 -258 -421c158 0 301.333 48.667 430 146s219 229 271 395zM-971.001 2441c0 79.333 -39.667 119 -119 119
c-76 0 -114 -38.333 -114 -115c0 -78.667 39.667 -118 119 -118c76 0 114 38 114 114z" />
    <glyph glyph-name="glyph107" horiz-adv-x="0" 
d="M-512 2576c0 -244 -46.8301 -416.168 -140.497 -516.501s-247.5 -150.5 -461.5 -150.5v82c117.333 64 176 158 176 282c0 101.333 -47.667 152 -143 152c-66 0 -111 -32.667 -135 -98h-57c-28.667 68 -87.334 102 -176.001 102c-123.333 0 -185 -61.333 -185 -184
c0 -50 5.33301 -81.667 16 -95c15.333 87.333 67 131 155 131c137.333 0 206 -62.667 206 -188c0 -32 -7.33301 -61.5 -22 -88.5s-37.334 -50.333 -68.001 -70s-66.334 -29.5 -107.001 -29.5c-44 0 -85.5 11.833 -124.5 35.5s-75 61.834 -108 114.501
s-49.5 111.667 -49.5 177c0 224 83.333 336 250 336c96 0 175 -34 237 -102c41.333 68 105 102 191 102c162 0 243 -83.333 243 -250c0 -120 -34 -215.333 -102 -286c77.333 16.667 139 61.834 185 135.5c46 73.667 69 209.834 69 408.5h151zM-1368 2089
c0 62.667 -29.667 94 -89 94c-55.333 0 -83 -27.333 -83 -82c0 -62.667 30 -94 90 -94c54.667 0 82 27.333 82 82z" />
    <glyph glyph-name="glyph108" horiz-adv-x="0" 
d="M-459 2183h-287v-287h-143v287h-283v144h283v282h143v-282h287v-144z" />
    <glyph glyph-name="glyph109" horiz-adv-x="0" 
d="M-37 2499c0 -24.667 -60 -54.167 -180 -88.5s-249.667 -51.5 -389 -51.5c-66 0 -112.333 -8 -139 -24c136 -19.333 204 -94.666 204 -226c0 -49.333 -10.833 -92.666 -32.5 -129.999s-50.5 -66.5 -86.5 -87.5s-78 -31.5 -126 -31.5c-46 0 -88 9.5 -126 28.5
s-69.5 48.167 -94.5 87.5s-37.5 86.666 -37.5 141.999c0 236 165 358.667 495 368c192 5.33301 339.667 50.333 443 135zM-672 2105c0 82 -43.667 123 -131 123c-70.667 0 -106 -38 -106 -114c0 -82 43.667 -123 131 -123c70.667 0 106 38 106 114z" />
    <glyph glyph-name="glyph115" horiz-adv-x="2490" 
d="M2253 0l-1004 0.00195312v1196c0 101.333 -45.167 180.666 -135.5 237.999s-200.833 86 -331.5 86c-159.333 0 -300 -43.667 -422 -131c108 -28 217.333 -80 328 -156c-104.667 -45.333 -178.667 -91 -222 -137s-65 -104 -65 -174v-463
c38.667 35.333 81.334 53 128.001 53c76 0 139.333 -25.167 190 -75.5s76 -113.833 76 -190.5c0 -52 -11.833 -97.5 -35.5 -136.5s-56.167 -70.333 -97.5 -94s-88.666 -35.5 -141.999 -35.5c-52 0 -97.5 11.333 -136.5 34s-69.667 53.667 -92 93s-33.5 85.666 -33.5 138.999
v708c0 132.667 68.333 223 205 271c-70 44.667 -183.333 85.667 -340 123c58 90 151.667 164.333 281 223s256.666 88 381.999 88c127.333 0 237.833 -19 331.5 -57s164.334 -90.167 212.001 -156.5s71.5 -146.833 71.5 -241.5v-1052h700v1486h152v-1638zM654.998 250.002
c0 82 -41.333 123 -124 123c-92 0 -138 -45 -138 -135c0 -82 41.667 -123 125 -123c91.333 0 137 45 137 135z" />
    <glyph glyph-name="glyph123" horiz-adv-x="0" 
d="M-13 2417c-260.667 -338.667 -543.334 -507.999 -848.001 -507.999c-74 0 -140.167 13.167 -198.5 39.5s-102 60.166 -131 101.499s-43.5 89.333 -43.5 144c0 44.667 9.83301 86.5 29.5 125.5s48.5 71.167 86.5 96.5s82.667 38 134 38c65.333 0 123.333 -23.5 174 -70.5
s76 -102.833 76 -167.5c0 -72.667 -24.667 -130 -74 -172c24.667 0 56.5 7 95.5 21s89.167 36.833 150.5 68.5s127.333 78 198 139s149.334 141.833 236.001 242.5zM-869 2195c0 82 -39.667 123 -119 123c-76.667 0 -115 -38 -115 -114c0 -82 39.667 -123 119 -123
c76.667 0 115 38 115 114z" />
    <glyph glyph-name="glyph124" horiz-adv-x="0" 
d="M-454 2253c0 -52 -11.832 -100.669 -35.499 -146.002s-59.334 -83.666 -107.001 -114.999s-102.834 -47 -165.501 -47c-52 0 -100.667 11.833 -146 35.5s-83.666 59.334 -114.999 107.001s-47 102.834 -47 165.5c0 58 13.833 110 41.5 156s64.5 82.833 110.5 110.5
s98 41.5 156 41.5c58.667 0 111 -14 157 -42s82.667 -64.833 110 -110.5s41 -97.5 41 -155.5zM-593.999 2253c0 28.667 -6.50098 55.334 -19.501 80c-13 24.667 -32.5 45.5 -58.5 62.5s-56 25.5 -90 25.5c-32 0 -60.5 -7.5 -85.5 -22.5s-45 -35 -60 -60
s-22.5 -53.5 -22.5 -85.5s7.5 -60.5 22.5 -85.5s35 -45 60 -60s53.5 -22.5 85.5 -22.5c28.667 0 55.334 6.5 80.001 19.5s45.5 32.5 62.5 58.5s25.5 56 25.5 90z" />
    <glyph glyph-name="glyph125" horiz-adv-x="0" 
d="M-418 2564c-99.333 -105.333 -220 -158 -362 -158c-42.667 0 -94.667 3.66699 -156 11c-112.667 13.333 -184 20 -214 20c-63.333 0 -112.166 -17 -146.499 -51s-51.5 -83 -51.5 -147c0 -70 33 -132.333 99 -187c21.333 53.333 56.666 117.666 105.999 193
c104 -146.667 194.333 -226 271 -238c-33.333 36 -50 73 -50 111c0 53.333 17.667 98 53 134s79.333 54 132 54c39.333 0 73.5 -8.66699 102.5 -26s52 -41.5 69 -72.5s25.5 -66.833 25.5 -107.5c0 -141.333 -92.333 -212 -277 -212c-54 0 -111.167 18.667 -171.5 56
s-104.833 73.333 -133.5 108c-8 0 -34 -54.667 -78 -164c-186 73.333 -279 191 -279 353c0 215.333 124.333 323 373 323c32.667 0 96.334 -4.66699 191.001 -14c50 -4.66699 93.333 -7 130 -7c59.333 0 110.666 9.5 153.999 28.5s83 49.167 119 90.5zM-647 2109
c0 60.667 -30 91 -90 91c-54.667 0 -82 -28.667 -82 -86c0 -60.667 30 -91 90 -91c54.667 0 82 28.667 82 86z" />
    <glyph glyph-name="glyph126" horiz-adv-x="0" 
d="M-541 2966h-151v573h151v-573z" />
    <glyph glyph-name="glyph127" horiz-adv-x="0" 
d="M-303 3457c-66.667 -194 -170.001 -332.667 -310.001 -416s-297.333 -125 -472 -125c-52.667 0 -100.667 4.33301 -144 13l-8 86c124 61.333 217 147.333 279 258c-22 -30 -56.333 -45 -103 -45c-37.333 0 -71 7.83301 -101 23.5s-55.5 40.667 -76.5 75
s-31.5 75.166 -31.5 122.5c0 40 9.5 75.5 28.5 106.5s44.333 55.833 76 74.5s67.834 28 108.501 28c40 0 76.5 -8.83301 109.5 -26.5s62 -46.5 87 -86.5s37.5 -88.333 37.5 -145c0 -172 -78 -299 -234 -381c145.333 0 274 43.667 386 131s193.667 207.333 245 360z
M-950.001 3441c0 68 -34.333 102 -103 102c-70.667 0 -106 -34 -106 -102c0 -71.333 35.333 -107 106 -107c68.667 0 103 35.667 103 107z" />
    <glyph glyph-name="glyph128" horiz-adv-x="0" 
d="M-304 3559c0 -144 -16.833 -259.833 -50.5 -347.5s-91.334 -152 -173.001 -193s-187.5 -61.5 -317.5 -61.5v74c104 56 156 140.667 156 254c0 92.667 -42.333 139 -127 139c-61.333 0 -101 -30 -119 -90h-49c-26 62.667 -81.333 94 -166 94
c-28.667 0 -54 -5.66699 -76 -17s-41.833 -30.166 -59.5 -56.5c-17.667 -26.333 -26.5 -57.833 -26.5 -94.5c0 -46 5.66699 -73.333 17 -82c12 79.333 59.333 119 142 119c33.333 0 64 -8.16699 92 -24.5s49.833 -37 65.5 -62s23.5 -53.5 23.5 -85.5
c0 -49.333 -16.833 -90.333 -50.5 -123s-75.5 -49 -125.5 -49c-46.667 0 -88.667 13 -126 39s-68.666 62 -93.999 108s-38 96.667 -38 152c0 80 21.333 149.833 64 209.5s101 89.5 175 89.5c80 0 147.667 -31.333 203 -94c40.667 62.667 93.667 94 159 94
c66 0 121 -22.333 165 -67s66 -103.334 66 -176c0 -86 -30.333 -166 -91 -240c74.667 22 131.667 66.167 171 132.5s59 185.833 59 358.5h131zM-1074 3117c0 57.333 -28.667 86 -86 86c-44 0 -66 -23.333 -66 -70c0 -57.333 28.667 -86 86 -86c44 0 66 23.333 66 70z" />
    <glyph glyph-name="glyph129" horiz-adv-x="0" 
d="M-262 3252h-287v-286h-143v286h-283v144h283v282h143v-282h287v-144z" />
    <glyph glyph-name="glyph130" horiz-adv-x="0" 
d="M-98 3187c-98 -84.667 -267.331 -127 -507.998 -127c-56.667 0 -97.667 -7 -123 -21c122.667 -16.667 184 -85 184 -205c0 -43.333 -9.83301 -81.833 -29.5 -115.5s-45.834 -60.334 -78.501 -80c-32.667 -19.667 -70.334 -29.5 -113.001 -29.5c-45.333 0 -85 10 -119 30
s-60.833 47.333 -80.5 82s-29.5 75.334 -29.5 122c0 108 41.333 190.167 124 246.5s188.667 85.833 318 88.5c164 3.33301 295 43 393 119zM-658.998 2822c0 79.333 -39.667 119 -119 119c-66 0 -99 -32.667 -99 -98c0 -79.333 37.667 -119 113 -119c70 0 105 32.667 105 98
z" />
    <glyph glyph-name="glyph131" horiz-adv-x="410" 
 />
    <glyph glyph-name="glyph190" horiz-adv-x="901" 
 />
    <glyph glyph-name="glyph191" horiz-adv-x="901" 
d="M66 -287l0.00195312 163.998c0 47.333 4.16699 78.333 12.5 93s38.166 22 89.499 22h578c54.667 0 86.167 -7.33301 94.5 -22s12.5 -45.667 12.5 -93v-164c0 -79.333 -18.333 -119 -55 -119c-16.667 0 -32.667 33 -48 99c-6.66699 27.333 -18.834 55.333 -36.501 84
s-50.5 45.667 -98.5 51s-97.667 8 -149 8c-68 0 -122.667 -3.16699 -164 -9.5s-70.333 -16.666 -87 -30.999s-33.667 -52.166 -51 -113.499c-16 -58.667 -34.333 -88 -55 -88c-28.667 0 -43 39.667 -43 119z" />
    <glyph glyph-name="glyph201" horiz-adv-x="0" 
d="M-233 2966h-156v573h156v-573z" />
    <glyph glyph-name="glyph202" horiz-adv-x="0" 
d="M0 3457c-66.667 -194 -169.999 -332.667 -309.999 -416s-297.333 -125 -472 -125c-52.667 0 -100.667 4.33301 -144 13l-8 86c124 61.333 217 147.333 279 258c-22 -30 -56.333 -45 -103 -45c-62.667 0 -113.167 21.167 -151.5 63.5s-57.5 94.833 -57.5 157.5
c0 58.667 20.667 108.167 62 148.5s91.666 60.5 150.999 60.5c68 0 124 -24.833 168 -74.5s66 -110.834 66 -183.5c0 -172 -78 -299 -234 -381c144 0 272.333 43.667 385 131s194.667 207.333 246 360zM-646.999 3441c0 68 -34.333 102 -103 102
c-70.667 0 -106 -34 -106 -102c0 -71.333 35.333 -107 106 -107c68.667 0 103 35.667 103 107z" />
    <glyph glyph-name="glyph203" horiz-adv-x="0" 
d="M-1 3559c0 -150 -17.6699 -267.833 -53.0029 -353.5s-93.166 -148.5 -173.499 -188.5s-185.166 -60 -314.499 -60v74c104 56 156 140.667 156 254c0 92.667 -42.333 139 -127 139c-61.333 0 -101 -30 -119 -90h-49c-26 62.667 -81.333 94 -166 94
c-28.667 0 -54 -5.66699 -76 -17s-41.833 -30.166 -59.5 -56.5c-17.667 -26.333 -26.5 -57.833 -26.5 -94.5c0 -46 5.66699 -73.333 17 -82c12 79.333 59.333 119 142 119c47.333 0 89.333 -16.5 126 -49.5s55 -73.833 55 -122.5c0 -49.333 -16.833 -90.333 -50.5 -123
s-75.5 -49 -125.5 -49c-46.667 0 -88.667 13 -126 39s-68.666 62 -93.999 108s-38 96.667 -38 152c0 80 21.333 149.833 64 209.5s101 89.5 175 89.5c80 0 147.667 -31.333 203 -94c40.667 62.667 93.667 94 159 94c42.667 0 81.5 -9.66699 116.5 -29
s62.833 -47.333 83.5 -84s31 -80 31 -130c0 -86 -30.333 -166 -91 -240c74.667 22 131.667 66.167 171 132.5s59 185.833 59 358.5h131zM-771.003 3117c0 57.333 -28.667 86 -86 86c-44 0 -66 -23.333 -66 -70c0 -57.333 28.667 -86 86 -86c44 0 66 23.333 66 70z" />
    <glyph glyph-name="glyph204" horiz-adv-x="0" 
d="M37 3252h-283v-286h-143v286h-283v144h283v282h143v-282h283v-144z" />
    <glyph glyph-name="glyph205" horiz-adv-x="0" 
d="M205 3187c-98 -84.667 -267.33 -127 -507.997 -127c-56.667 0 -97.667 -7 -123 -21c122.667 -16.667 184 -85 184 -205c0 -43.333 -9.83301 -81.833 -29.5 -115.5s-45.834 -60.334 -78.501 -80c-32.667 -19.667 -70.334 -29.5 -113.001 -29.5
c-40.667 0 -77.834 8.5 -111.501 25.5s-61.667 43.5 -84 79.5s-33.5 79 -33.5 129c0 104.667 40.333 186 121 244s187.667 88.333 321 91c164 3.33301 295 43 393 119zM-355.997 2822c0 79.333 -39.667 119 -119 119c-66 0 -99 -32.667 -99 -98
c0 -79.333 37.667 -119 113 -119c70 0 105 32.667 105 98z" />
    <glyph glyph-name="glyph221" horiz-adv-x="0" 
d="M-233 -1999l-144 -0.000976562v291c0 36 13 73.333 39 112c7.33301 11.333 13.666 20.333 18.999 27c-46 -46 -102 -69 -168 -69c-45.333 0 -85 10 -119 30s-61 47.833 -81 83.5s-30 76.834 -30 123.501c0 68.667 24.333 126.167 73 172.5s107.667 69.5 177 69.5
c68.667 0 124.834 -22.333 168.501 -67s65.5 -103 65.5 -175v-598zM-356 -1404c0 76.667 -38.333 115 -115 115s-115 -38.333 -115 -115s38.333 -115 115 -115s115 38.333 115 115z" />
    <glyph glyph-name="glyph222" horiz-adv-x="0" 
d="M-233 -2000h-603v140h103v146c0 36 13 73.333 39 112c7.33301 11.333 13.666 20.333 18.999 27c-46 -46 -102 -69 -168 -69c-67.333 0 -122.5 22.5 -165.5 67.5s-64.5 101.5 -64.5 169.5c0 68.667 24.333 126.167 73 172.5s107.667 69.5 177 69.5
c68.667 0 124.834 -22.333 168.501 -67s65.5 -103 65.5 -175v-453h212v692h144v-832zM-712 -1410c0 76.667 -38.333 115 -115 115s-115 -38.333 -115 -115s38.333 -115 115 -115s115 38.333 115 115z" />
    <glyph glyph-name="glyph223" horiz-adv-x="0" 
d="M-143 -1199c0 -39.333 -9.33301 -74.666 -28 -105.999s-43.667 -56.333 -75 -75s-66.666 -28 -105.999 -28c-40 0 -75.5 9.5 -106.5 28.5s-55.833 44 -74.5 75s-28 66.167 -28 105.5s9.33301 74.666 28 105.999s43.667 56.333 75 75s66.666 28 105.999 28
c35.333 0 68.333 -8 99 -24s56.667 -40.167 78 -72.5s32 -69.833 32 -112.5z" />
    <glyph glyph-name="zero.alt1" 
d="M1268 811c0 -559.333 -174.001 -839 -522.001 -839c-179.333 0 -311.166 69.5 -395.499 208.5s-126.5 347.5 -126.5 625.5c0 151.333 11 280.333 33 387s54.833 193.667 98.5 261s98.167 116.833 163.5 148.5s141 48.167 227 49.5c348 0 522 -280.333 522 -841zM1124 811
c0 485.333 -125 728.001 -375 728.001c-64.667 0 -120.667 -13 -168 -39s-86.5 -68.333 -117.5 -127s-54.167 -134.834 -69.5 -228.501s-23 -207.834 -23 -342.501c0 -113.333 6 -214.166 18 -302.499s32.667 -163 62 -224s68.5 -107.333 117.5 -139
s110.5 -47.5 184.5 -47.5c247.333 0 371 240.667 371 722z" />
    <glyph glyph-name="one.alt1" 
d="M884 0l-141 -0.000976562v1380c-124.667 -117.333 -264 -205.666 -418 -264.999v124c235.333 129.333 390 267 464 413h95v-1652z" />
    <glyph glyph-name="two.alt1" 
d="M1280 0l-1068 0.000976562c6 55.333 18.333 108 37 158c19.333 51.333 64 116.333 134 195s171 169.334 303 272.001l123 97l90 75c50.667 44 93.667 87.333 129 130c36.667 44.667 62.834 88.167 78.501 130.5s23.5 86.833 23.5 133.5
c0 50.667 -8.83301 97.167 -26.5 139.5s-42.334 78.833 -74.001 109.5s-69.667 54.5 -114 71.5s-93.166 25.5 -146.499 25.5c-208.667 0 -333 -120.333 -373 -361l-147 21c8 70.667 26 134.167 54 190.5s64.667 104.166 110 143.499s98.5 69.333 159.5 90
s128.833 31 203.5 31c72 0 138.667 -11.167 200 -33.5s114.5 -53.666 159.5 -93.999s80.167 -88.5 105.5 -144.5s38 -117.667 38 -185c0 -80 -18 -155.333 -54 -226s-86.667 -136.334 -152 -197.001c-33.333 -30.667 -76.333 -67.334 -129 -110.001l-190 -148
c-176 -134 -295.333 -261 -358 -381h884v-133z" />
    <glyph glyph-name="three.alt1" 
d="M221 418l137 21.001c52.667 -234 178.334 -351 377.001 -351c56 0 107.5 9.66699 154.5 29s87.333 46.333 121 81s60 76.167 79 124.5s28.5 101.5 28.5 159.5c0 52 -8.83301 99 -26.5 141s-42.5 77.833 -74.5 107.5s-70.333 52.667 -115 69s-93.667 24.5 -147 24.5
c-38 0 -87.333 -6.33301 -148 -19l15 124c81.333 0 149.166 8.16699 203.499 24.5s97.666 38.666 129.999 66.999s55.333 61.5 69 99.5s20.5 78.667 20.5 122s-7.83301 83 -23.5 119s-37.5 67 -65.5 93s-61.167 46.333 -99.5 61s-79.833 22 -124.5 22
c-176.667 0 -293 -108 -349 -324l-142 25c68.667 276 232 414 490 414c70 0 133.333 -9.83301 190 -29.5s105.334 -47.667 146.001 -84s72 -80.5 94 -132.5s33 -110 33 -174c0 -155.333 -81 -270.333 -243 -345c214 -55.333 321 -189 321 -401
c0 -76.667 -13 -146.5 -39 -209.5s-62.667 -117 -110 -162s-103.833 -80 -169.5 -105s-138.167 -37.5 -217.5 -37.5c-282 0 -453.667 148.667 -515 446z" />
    <glyph glyph-name="four.alt1" 
d="M1311 411h-226v-411h-138v411h-766v126l794 1115h110v-1115h226v-126zM947 537v885l-629 -885h629z" />
    <glyph glyph-name="five.alt1" 
d="M216 408l142 17c46.667 -224 173.667 -336 381 -336c46 0 92 8.83301 138 26.5s87.5 44.667 124.5 81s67.167 82.166 90.5 137.499s35 120.666 35 195.999c0 58.667 -9.33301 113 -28 163s-44.834 93.333 -78.501 130s-73.667 65.167 -120 85.5
s-97.166 30.5 -152.499 30.5c-130 0 -256.667 -60.333 -380 -181l-119 16l158 856h793v-130h-688l-105 -563c122.667 84.667 243.667 127 363 127c71.333 0 137.833 -13.667 199.5 -41s115.167 -64.666 160.5 -111.999s81 -102.666 107 -165.999s39 -131 39 -203
c0 -77.333 -13.5 -150.5 -40.5 -219.5s-65 -129.5 -114 -181.5s-107.833 -93.167 -176.5 -123.5s-144.667 -45.5 -228 -45.5c-261.333 0 -428.333 145.333 -501 436z" />
    <glyph glyph-name="six.alt1" 
d="M1243 1268l-140.001 -14.001c-49.333 188 -153.333 282 -312 282c-59.333 0 -112 -11.667 -158 -35s-86 -55.333 -120 -96s-61.833 -89 -83.5 -145s-37.834 -116.333 -48.501 -181c-5.33301 -34 -10.166 -73.833 -14.499 -119.5s-8.16602 -97.834 -11.499 -156.501
c119.333 159.333 267 239 443 239c70.667 0 135.5 -12.667 194.5 -38s109.833 -60.666 152.5 -105.999s76 -99.333 100 -162s36 -131 36 -205c0 -82 -12.833 -157.333 -38.5 -226s-61.5 -127.667 -107.5 -177s-100.667 -87.666 -164 -114.999s-132.333 -41 -207 -41
c-184.667 0 -324.667 70.667 -420 212c-24 36 -44.167 74.167 -60.5 114.5s-29.833 83.833 -40.5 130.5c-20.667 91.333 -31 204 -31 338c0 194 20.667 354 62 480c40.667 125.333 106 224.333 196 297c88.667 72 197.667 108 327 108c242 0 390.667 -128 446 -384z
M1127 515.999c0 58.667 -8.66602 112.334 -25.999 161.001s-41.5 90.5 -72.5 125.5s-68.167 62.333 -111.5 82s-91.333 29.5 -144 29.5c-54 0 -104.333 -9.5 -151 -28.5s-87.167 -45.5 -121.5 -79.5s-61.333 -74.5 -81 -121.5s-29.5 -98.167 -29.5 -153.5
c0 -58 9.33301 -113.833 28 -167.5s44.667 -100.834 78 -141.501s73 -73.167 119 -97.5s96.667 -36.5 152 -36.5c53.333 0 102.166 11.167 146.499 33.5s82.333 53 114 92s56.167 84.333 73.5 136s26 107.167 26 166.5z" />
    <glyph glyph-name="seven.alt1" 
d="M1269 1539c-207.333 -238.667 -361.67 -481.998 -463.003 -729.998c-100 -246.667 -161 -516.334 -183 -809.001h-152c8 127.333 24.333 250 49 368s57.334 233 98.001 345c20 56 42.833 111.5 68.5 166.5s53.834 109.833 84.501 164.5s72.334 120.167 125.001 196.5
s117 164.166 193 263.499h-865v126h1045v-91z" />
    <glyph glyph-name="eight.alt1" 
d="M516 889c-157.333 71.333 -235.997 183.999 -235.997 337.999c0 61.333 11.667 118 35 170s55.666 96.833 96.999 134.5s90.333 67.167 147 88.5s118.667 32 186 32c68 0 130.5 -10.667 187.5 -32s106.167 -50.833 147.5 -88.5s73.666 -82.5 96.999 -134.5
s35 -108.667 35 -170c0 -154 -78.667 -266.667 -236 -338c201.333 -69.333 302 -207 302 -413c0 -83.333 -14.667 -156.5 -44 -219.5s-68.5 -115.5 -117.5 -157.5s-105.667 -73.667 -170 -95s-131.5 -32 -201.5 -32c-104.667 0 -195.334 19.333 -272.001 58
s-139 98.667 -187 180c-48 80.667 -72 169.334 -72 266.001c0 98 23 181.667 69 251c46 68.667 123.667 122.667 233 162zM1131 463.999c0 54.667 -8.99902 104.167 -26.999 148.5s-43.667 81.833 -77 112.5s-73.833 54.334 -121.5 71.001s-101.167 25 -160.5 25
c-60 0 -113.833 -8.33301 -161.5 -25s-88.334 -40.334 -122.001 -71.001s-59.334 -68.167 -77.001 -112.5s-26.5 -93.833 -26.5 -148.5c0 -57.333 9.16699 -109.166 27.5 -155.499s44.5 -85.666 78.5 -117.999s74.833 -57.333 122.5 -75s100.5 -26.5 158.5 -26.5
s110.833 8.83301 158.5 26.5s88.334 42.667 122.001 75s59.667 71.666 78 117.999s27.5 98.166 27.5 155.499zM1068 1226c0 45.333 -7.99609 87.002 -23.9961 125.002s-38.333 70.833 -67 98.5s-62.834 49.167 -102.501 64.5s-82.834 23 -129.501 23
c-48 0 -91.667 -7.83301 -131 -23.5s-73.333 -37.334 -102 -65.001s-50.834 -60.5 -66.501 -98.5s-23.5 -79.333 -23.5 -124c0 -43.333 8.33301 -82.5 25 -117.5s39.5 -65.167 68.5 -90.5s63.167 -44.833 102.5 -58.5s81.666 -20.5 126.999 -20.5c44.667 0 86.667 7 126 21
s73.5 33.667 102.5 59s52 55.666 69 90.999s25.5 74 25.5 116z" />
    <glyph glyph-name="nine.alt1" 
d="M250 353l140.002 16.9971c48.667 -188.667 152.334 -283 311.001 -283c44.667 0 87 8.16699 127 24.5s76.5 38.5 109.5 66.5s61.667 61 86 99s43.166 78.667 56.499 122c13.333 44.667 25 101.834 35 171.501s17.667 152.834 23 249.501
c-119.333 -159.333 -267.333 -239 -444 -239c-70 0 -134.5 12.833 -193.5 38.5s-109.833 61.167 -152.5 106.5s-75.834 99 -99.501 161s-35.5 129.667 -35.5 203c0 81.333 12.833 156.333 38.5 225s61.334 128 107.001 178s100.167 89 163.5 117s132.666 42 207.999 42
c112.667 0 209 -27 289 -81c79.333 -54 142.666 -137 189.999 -249s71 -267 71 -465c0 -194.667 -21 -355 -63 -481c-21.333 -63.333 -48 -119.666 -80 -168.999s-70.333 -92 -115 -128c-89.333 -71.333 -198.333 -107 -327 -107c-242 0 -390.333 127 -445 381zM1105 1092
c0 58.667 -9.33203 114.668 -27.999 168.001s-44.834 100.5 -78.501 141.5s-73.834 73.667 -120.501 98s-97.667 36.5 -153 36.5c-53.333 0 -102.166 -11.333 -146.499 -34s-82.166 -53.5 -113.499 -92.5s-55.666 -84.5 -72.999 -136.5s-26 -107.333 -26 -166
s8.33301 -112.334 25 -161.001s40.5 -90.5 71.5 -125.5s68.167 -62.333 111.5 -82s91.666 -29.5 144.999 -29.5c54.667 0 105.667 9.66699 153 29s88.166 46.166 122.499 80.499s61.333 74.833 81 121.5s29.5 97.334 29.5 152.001z" />
    <glyph glyph-name="uni0E47.sm" horiz-adv-x="0" 
d="M-78 3538c-99.333 -105.333 -219.999 -158 -361.999 -158c-32 0 -68 1.66699 -108 5s-78.333 6.83301 -115 10.5s-68.834 7.16699 -96.501 10.5s-44.5 5 -50.5 5c-64 0 -113 -16.833 -147 -50.5s-51 -82.834 -51 -147.5c0 -70 33 -132.333 99 -187
c10.667 26.667 24.834 56 42.501 88s38.834 67 63.501 105c104 -146.667 194.333 -226 271 -238c-33.333 36.667 -50 73.667 -50 111c0 27.333 4.66699 52.5 14 75.5s22.166 42.833 38.499 59.5s35.833 29.667 58.5 39s47.334 14 74.001 14c28.667 0 55.167 -5 79.5 -15
s45.166 -24 62.499 -42s30.833 -39.667 40.5 -65s14.5 -53.333 14.5 -84c0 -141.333 -92.333 -212 -277 -212c-26.667 0 -55 5.5 -85 16.5s-59 24.667 -87 41s-53.833 34 -77.5 53s-42.167 36.833 -55.5 53.5c-8 0 -34 -54.667 -78 -164c-186 72.667 -279 190.334 -279 353
c0 215.333 124.333 323 373 323c8.66699 0 25 -1.16699 49 -3.5s51.5 -4.66602 82.5 -7l97 -7c33.667 -2.33301 64.5 -3.5 92.5 -3.5c59.333 0 110.666 9.5 153.999 28.5s83 49.167 119 90.5zM-306.999 3083c0 60.667 -30 91 -90 91c-54.667 0 -82 -28.667 -82 -86
c0 -60.667 30 -91 90 -91c54.667 0 82 28.667 82 86z" />
    <glyph glyph-name="uni0E48.small" horiz-adv-x="0" 
d="M-250 3503v-573h-156v573h156z" />
    <glyph glyph-name="uni0E49.small" horiz-adv-x="0" 
d="M92 3441c-67.333 -194.667 -170.665 -333.334 -309.998 -416c-140.667 -83.333 -298 -125 -472 -125c-54.667 0 -102.667 4.33301 -144 13l-8 86c124 60.667 217 146.667 279 258c-22 -30 -56.333 -45 -103 -45c-32 0 -60.833 5.83301 -86.5 17.5s-47.5 27.5 -65.5 47.5
s-32 43.333 -42 70s-15 55.334 -15 86c0 29.333 5.66699 56.833 17 82.5s26.666 47.834 45.999 66.5c19.333 18.667 41.833 33.334 67.5 44c25.667 10.667 53.167 16 82.5 16c33.333 0 64.333 -6.66699 93 -20s53.5 -31.5 74.5 -54.5s37.333 -50.333 49 -82
s17.5 -65.5 17.5 -101.5c0 -172 -78 -299 -234 -381c143.333 0 271.666 43.667 384.999 131c112.667 86.667 194.667 206.667 246 360zM-554.999 3425c0 68 -34.333 102 -103 102c-70.667 0 -106 -34 -106 -102c0 -71.333 35.333 -107 106 -107c68.667 0 103 35.667 103 107
z" />
    </font>
</defs>
</svg>
